<svg style="display: none;">
    <symbol id="i-inst-footer" viewBox="0 0 512 512" xmlns="http://www.w3.org/2000/svg" xmlns:xlink="http://www.w3.org/1999/xlink">
        <g>
            <circle style="fill:#FB5252" cx="256" cy="256" r="256" data-original="#6C27B3" class="active-path"
                    data-old_color="#6C27B3"/>
            <path style="fill:#FB5252"
                  d="M374.71,132.922c-30.587,3.872-62.479,3.737-94.575,0.681  c-44.822-3.448-110.33-24.135-134.465,17.239c-38.772,66.236-19.649,151.035-10.614,226.078l134.737,134.708  c130.388-6.923,234.886-111.407,241.831-241.79L374.71,132.922z"
                  data-original="#501A96" class="" data-old_color="#501A96"/>
            <g>
                <path style="fill:#FFFFFF;"
                      d="M315.227,109.468H196.772c-48.14,0-87.304,39.164-87.304,87.304v118.455   c0,48.138,39.164,87.305,87.305,87.305h118.455c48.138,0,87.305-39.165,87.305-87.305V196.772   C402.532,148.632,363.367,109.468,315.227,109.468L315.227,109.468z M373.05,315.228c0,31.934-25.888,57.822-57.822,57.822H196.773   c-31.934,0-57.822-25.888-57.822-57.822V196.773c0-31.934,25.888-57.823,57.822-57.823h118.455   c31.934,0,57.822,25.89,57.822,57.823V315.228z"
                      data-original="#FFFFFF" class=""/>
                <path style="fill:#FFFFFF;"
                      d="M256,180.202c-41.794,0-75.798,34.004-75.798,75.798c0,41.791,34.004,75.795,75.798,75.795   s75.795-34.001,75.795-75.795S297.794,180.202,256,180.202L256,180.202z M256,302.313c-25.579,0-46.316-20.733-46.316-46.313   s20.737-46.316,46.316-46.316s46.313,20.735,46.313,46.316C302.313,281.579,281.579,302.313,256,302.313L256,302.313z"
                      data-original="#FFFFFF" class=""/>
            </g>
            <g>
                <path style="fill:#FFFFFF"
                      d="M350.103,180.774c0,10.03-8.132,18.163-18.163,18.163c-10.03,0-18.163-8.133-18.163-18.163   c0-10.031,8.133-18.163,18.163-18.163C341.973,162.611,350.103,170.741,350.103,180.774L350.103,180.774z"
                      data-original="#D1D1D1" class="" data-old_color="#D1D1D1"/>
                <path style="fill:#FFFFFF"
                      d="M315.228,109.468h-59.802v29.482h59.802c31.934,0,57.822,25.89,57.822,57.823v118.455   c0,31.934-25.888,57.822-57.822,57.822h-59.802v29.482h59.802c48.138,0,87.304-39.165,87.304-87.305V196.772   C402.532,148.632,363.367,109.468,315.228,109.468z"
                      data-original="#D1D1D1" class="" data-old_color="#D1D1D1"/>
                <path style="fill:#FFFFFF"
                      d="M256,180.202c-0.193,0-0.381,0.014-0.574,0.014v29.482c0.191-0.002,0.381-0.014,0.574-0.014   c25.579,0,46.313,20.735,46.313,46.316c0,25.579-20.733,46.313-46.313,46.313c-0.193,0-0.383-0.012-0.574-0.014v29.482   c0.193,0.002,0.381,0.014,0.574,0.014c41.794,0,75.795-34.002,75.795-75.795C331.795,214.206,297.794,180.202,256,180.202z"
                      data-original="#D1D1D1" class="" data-old_color="#D1D1D1"/>
            </g>
        </g>
    </symbol>

    <symbol id="i-teleg-footer" viewBox="0 0 40 40" xmlns="http://www.w3.org/2000/svg">
        <path d="M20 40C8.95431 40 0 31.0457 0 20C0 8.9543 8.95431 0 20 0C31.0457 0 40 8.9543 40 20C40 31.0457 31.0457 40 20 40Z"
              fill="#039BE5"/>
        <path d="M30.8483 19.5665L11.565 12.1315C10.67 11.8082 9.88832 12.3499 10.1783 13.7032L10.1767 13.7015L13.46 29.1699C13.7033 30.2665 14.355 30.5332 15.2667 30.0165L20.2667 26.3315L22.6783 28.6549C22.945 28.9215 23.17 29.1465 23.6867 29.1465L23.3317 24.0582L14.065 15.6865C13.6617 15.3315 14.155 15.1315 14.6867 15.4849L26.1383 22.6949L31.075 21.1549C32.1467 20.8149 32.17 20.0832 30.8483 19.5665Z"
              fill="white"/>
    </symbol>

    <symbol id="i-vk-footer" viewBox="0 0 40 40" xmlns="http://www.w3.org/2000/svg">
        <path d="M20 40C31.0457 40 40 31.0457 40 20C40 8.95431 31.0457 0 20 0C8.95431 0 0 8.95431 0 20C0 31.0457 8.95431 40 20 40Z"
              fill="#4D76A1"/>
        <path fill-rule="evenodd" clip-rule="evenodd"
              d="M19.2445 28.7719H20.8143C20.8143 28.7719 21.2885 28.7198 21.5305 28.4588C21.7534 28.2193 21.7462 27.7693 21.7462 27.7693C21.7462 27.7693 21.7156 25.663 22.6931 25.3529C23.6568 25.0473 24.8943 27.3886 26.2059 28.2888C27.1978 28.9701 27.9514 28.8207 27.9514 28.8207L31.4585 28.7719C31.4585 28.7719 33.2932 28.6589 32.4233 27.2164C32.352 27.0984 31.9166 26.1493 29.8157 24.1992C27.6167 22.1581 27.9112 22.4882 30.5601 18.9576C32.1733 16.8075 32.8183 15.4947 32.6168 14.9325C32.4247 14.397 31.2382 14.5386 31.2382 14.5386L27.2894 14.5632C27.2894 14.5632 26.9967 14.5232 26.7796 14.653C26.5674 14.7803 26.4309 15.0769 26.4309 15.0769C26.4309 15.0769 25.8059 16.7408 24.9724 18.1558C23.214 21.1417 22.511 21.2992 22.2236 21.1138C21.5551 20.6817 21.722 19.378 21.722 18.4517C21.722 15.5582 22.1609 14.3517 20.8674 14.0394C20.4382 13.9357 20.1223 13.8672 19.0246 13.8562C17.6156 13.8416 16.423 13.8605 15.7478 14.1913C15.2986 14.4113 14.952 14.9015 15.1631 14.9297C15.4241 14.9646 16.0152 15.089 16.3286 15.5158C16.7332 16.0662 16.719 17.3027 16.719 17.3027C16.719 17.3027 16.9514 20.7088 16.176 21.132C15.6437 21.4222 14.9135 20.8297 13.3459 18.1209C12.5427 16.7333 11.9363 15.1996 11.9363 15.1996C11.9363 15.1996 11.8193 14.9129 11.6108 14.7596C11.3576 14.5739 11.004 14.5147 11.004 14.5147L7.25159 14.5393C7.25159 14.5393 6.68829 14.555 6.48151 14.7999C6.29755 15.0177 6.4669 15.4684 6.4669 15.4684C6.4669 15.4684 9.40461 22.3413 12.7309 25.8049C15.781 28.9804 19.2445 28.7719 19.2445 28.7719Z"
              fill="white"/>
    </symbol>

    <symbol id="i-logout" viewBox="0 0 512.00533 512" xmlns="http://www.w3.org/2000/svg">
        <g>
            <path d="m298.667969 277.335938c-35.285157 0-64-28.714844-64-64 0-35.285157 28.714843-64 64-64h42.664062v-85.332032c0-35.285156-28.714843-63.99999975-64-63.99999975h-229.332031c-7.019531 0-13.589844 3.45312475-17.578125 9.23437475-3.96875 5.78125-4.863281 13.144531-2.347656 19.691407l154.667969 405.335937c3.136718 8.277344 11.070312 13.738281 19.925781 13.738281h74.664062c35.285157 0 64-28.714844 64-64v-106.667968zm0 0"
                  fill="#2196f3" data-original="#2196F3" class="" style="fill:#09393B" data-old_color="#2196f3"/>
            <path d="m397.164062 318.382812c-7.957031-3.308593-13.164062-11.09375-13.164062-19.714843v-64h-85.332031c-11.777344 0-21.335938-9.554688-21.335938-21.332031 0-11.777344 9.558594-21.332032 21.335938-21.332032h85.332031v-64c0-8.621094 5.207031-16.40625 13.164062-19.714844 7.976563-3.304687 17.152344-1.46875 23.25 4.632813l85.335938 85.332031c8.339844 8.339844 8.339844 21.824219 0 30.164063l-85.335938 85.335937c-6.097656 6.097656-15.273437 7.933594-23.25 4.628906zm0 0"
                  fill="#607d8b" data-original="#607D8B" class="active-path" style="fill:#FFB229"
                  data-old_color="#607d8b"/>
            <path d="m184.449219 44.84375-128.191407-42.730469c-28.929687-8.894531-56.257812 12.460938-56.257812 40.554688v384c0 18.242187 11.605469 34.519531 28.886719 40.492187l128.167969 42.730469c4.714843 1.449219 9.046874 2.113281 13.613281 2.113281 23.53125 0 42.664062-19.136718 42.664062-42.667968v-384c0-18.238282-11.605469-34.515626-28.882812-40.492188zm0 0"
                  fill="#64b5f6" data-original="#64B5F6" class="" style="fill:#10696D" data-old_color="#64b5f6"/>
        </g>
    </symbol>
</svg>

