<svg width="1278" height="361" viewBox="0 0 1278 361" fill="none" xmlns="http://www.w3.org/2000/svg">
<path d="M0 201.5C26.8333 196.167 105.4 187.1 205 193.5C233.8 195.9 298 187.167 326.5 182.5C377.167 178.167 495.2 173.7 562 190.5C628.8 207.3 786.167 209.167 856.5 208C922.5 198.5 1064 180.4 1102 184C1140 187.6 1235.17 212.833 1278 225V360.5H0V339.5V201.5Z" fill="#AFD9C3"/>
<path d="M205 193.5C105.4 187.1 26.8333 196.167 0 201.5V339.5C151.167 292.667 501.3 203.4 692.5 221C931.5 243 935 215 1278 360.5V225C1235.17 212.833 1140 187.6 1102 184C1064 180.4 922.5 198.5 856.5 208C786.167 209.167 628.8 207.3 562 190.5C495.2 173.7 377.167 178.167 326.5 182.5C298 187.167 233.8 195.9 205 193.5Z" fill="#99C1A9"/>
<path d="M987.558 347.136H980.205L981.081 320.723C969.666 318.014 947.514 306.726 950.228 283.248C953.622 253.899 978.509 249.384 987.275 250.062C996.042 250.739 1016.4 254.577 1016.4 283.248C1016.4 311.919 996.127 318.917 985.904 320.723L987.558 347.136Z" fill="#D54003"/>
<path d="M987.558 347.136H980.205L981.081 320.723L981.957 294.31C977.225 292.353 967.762 288.259 967.762 287.537L982.047 291.601L982.751 270.38L983.288 278.958L987.275 275.12L983.443 281.442L984.815 303.34L999.436 296.793C998.531 298.238 989.387 302.964 984.928 305.146L985.904 320.723L987.558 347.136Z" fill="#6D4C41"/>
<path d="M807.64 217.136H801.837L802.528 183.109C793.52 179.619 776.038 165.078 778.18 134.831C780.858 97.0235 800.498 91.2069 807.417 92.0794C814.335 92.9519 830.404 97.896 830.404 134.831C830.404 171.767 814.402 180.783 806.334 183.109L807.64 217.136Z" fill="#FF5D00"/>
<path d="M807.64 217.136H801.837L802.528 183.109L803.22 149.082C799.485 146.562 792.017 141.288 792.017 140.357L803.29 145.592L803.846 118.254L804.27 129.306L807.417 124.361L804.393 132.505L805.475 160.715L817.013 152.281C816.299 154.143 809.083 160.231 805.564 163.042L806.334 183.109L807.64 217.136Z" fill="#6D4C41"/>
<path d="M301.64 314.136H295.837L296.528 293.977C287.52 291.91 270.038 283.295 272.18 265.375C274.858 242.976 294.498 239.53 301.417 240.047C308.335 240.564 324.404 243.493 324.404 265.375C324.404 287.258 308.402 292.599 300.334 293.977L301.64 314.136Z" fill="#FF5D00"/>
<path d="M301.64 314.136H295.837L296.528 293.977L297.22 273.818C293.485 272.325 286.017 269.2 286.017 268.649L297.29 271.75L297.846 255.554L298.27 262.102L301.417 259.172L298.393 263.997L299.475 280.71L311.013 275.713C310.299 276.816 303.083 280.423 299.564 282.088L300.334 293.977L301.64 314.136Z" fill="#6D4C41"/>
<path d="M1124.87 255.136H1115.3L1116.44 196.365C1101.59 190.337 1072.76 165.22 1076.3 112.979C1080.71 47.6766 1113.09 37.6301 1124.5 39.1371C1135.91 40.6441 1162.4 49.1836 1162.4 112.979C1162.4 176.774 1136.02 192.346 1122.72 196.365L1124.87 255.136Z" fill="#D54003"/>
<path d="M1124.87 255.136H1115.3L1116.44 196.364L1117.58 137.592C1111.43 133.239 1099.11 124.13 1099.11 122.523L1117.7 131.565L1118.61 84.3461L1119.31 103.434L1124.5 94.8949L1119.52 108.96L1121.3 157.685L1140.33 143.118C1139.15 146.333 1127.25 156.848 1121.45 161.704L1122.72 196.364L1124.87 255.136Z" fill="#6D4C41"/>
<path d="M79.4039 215.136H66.4039L67.9525 156.636C47.7696 150.636 8.60392 125.636 13.4039 73.6365C19.4039 8.63647 63.4039 -1.36352 78.9039 0.136475C94.4039 1.63648 130.404 10.1365 130.404 73.6365C130.404 137.136 94.5539 152.636 76.4789 156.636L79.4039 215.136Z" fill="#FFA012"/>
<path d="M79.4039 215.136H66.4039L67.9525 156.636L69.501 98.1365C61.1353 93.8031 44.4039 84.7365 44.4039 83.1365L69.6598 92.1365L70.9039 45.1365L71.8539 64.1365L78.9039 55.6365L72.1289 69.6365L74.5539 118.136L100.404 103.636C98.8039 106.836 82.6373 117.303 74.7539 122.136L76.4789 156.636L79.4039 215.136Z" fill="#6D4C41"/>
<path d="M412.64 192.136H406.837L407.528 158.109C398.52 154.619 381.038 140.078 383.18 109.831C385.858 72.0235 405.498 66.2069 412.417 67.0794C419.335 67.9519 435.404 72.896 435.404 109.831C435.404 146.767 419.402 155.783 411.334 158.109L412.64 192.136Z" fill="#D54003"/>
<path d="M412.64 192.136H406.837L407.528 158.109L408.22 124.082C404.485 121.562 397.017 116.288 397.017 115.357L408.29 120.592L408.846 93.254L409.27 104.306L412.417 99.3615L409.393 107.505L410.475 135.715L422.013 127.281C421.299 129.143 414.083 135.231 410.564 138.042L411.334 158.109L412.64 192.136Z" fill="#6D4C41"/>
<path d="M160.452 192.136H155.861L156.407 167.083C149.28 164.513 135.447 153.806 137.143 131.536C139.262 103.699 154.801 99.416 160.275 100.058C165.749 100.701 178.463 104.341 178.463 131.536C178.463 158.731 165.802 165.37 159.419 167.083L160.452 192.136Z" fill="#D54003"/>
<path d="M160.452 192.136H155.861L156.407 167.083L156.954 142.029C154 140.173 148.091 136.29 148.091 135.605L157.01 139.459L157.45 119.331L157.785 127.468L160.275 123.827L157.882 129.823L158.739 150.594L167.868 144.384C167.303 145.755 161.594 150.237 158.81 152.307L159.419 167.083L160.452 192.136Z" fill="#6D4C41"/>
<path d="M235.112 221.796H229.021L229.746 194.388C220.29 191.576 201.94 179.863 204.189 155.5C207 125.046 227.615 120.361 234.877 121.064C242.139 121.767 259.006 125.749 259.006 155.5C259.006 185.251 242.21 192.513 233.741 194.388L235.112 221.796Z" fill="#FFA012"/>
<path d="M235.112 221.796H229.021L229.746 194.388L230.472 166.979C226.552 164.949 218.713 160.701 218.713 159.951L230.546 164.168L231.129 142.147L231.574 151.049L234.877 147.067L231.703 153.626L232.839 176.35L244.951 169.556C244.201 171.055 236.627 175.959 232.933 178.224L233.741 194.388L235.112 221.796Z" fill="#6D4C41"/>
<path d="M529.98 302.59H524.111L524.81 266.536C515.698 262.839 498.015 247.431 500.182 215.383C502.891 175.323 522.756 169.16 529.754 170.084C536.752 171.009 553.006 176.247 553.006 215.383C553.006 254.518 536.82 264.071 528.66 266.536L529.98 302.59Z" fill="#FFA012"/>
<path d="M529.98 302.591H524.111L524.81 266.537L525.509 230.482C521.732 227.812 514.178 222.224 514.178 221.238L525.581 226.785L526.143 197.818L526.572 209.528L529.754 204.289L526.696 212.918L527.791 242.809L539.461 233.872C538.739 235.844 531.44 242.295 527.881 245.274L528.66 266.537L529.98 302.591Z" fill="#6D4C41"/>
<path d="M920.112 203.796H914.021L914.746 176.388C905.29 173.576 886.94 161.863 889.189 137.5C892 107.046 912.615 102.361 919.877 103.064C927.139 103.767 944.006 107.749 944.006 137.5C944.006 167.251 927.21 174.513 918.741 176.388L920.112 203.796Z" fill="#FFA012"/>
<path d="M920.112 203.796H914.021L914.746 176.388L915.472 148.979C911.553 146.949 903.714 142.701 903.714 141.951L915.546 146.168L916.129 124.147L916.574 133.049L919.877 129.067L916.703 135.626L917.839 158.35L929.951 151.556C929.201 153.055 921.627 157.959 917.933 160.224L918.741 176.388L920.112 203.796Z" fill="#6D4C41"/>
</svg>
