<svg width="96" height="96" viewBox="0 0 96 96" fill="none" xmlns="http://www.w3.org/2000/svg">
<g clip-path="url(#clip0)">
<path d="M28.3916 41.5034L7.42676 81.0019L26.4647 79.2431L35.679 95.997L56.6438 56.4984L28.3916 41.5034Z" fill="#E95454"/>
<path d="M30.7934 84.4955C31.3816 83.2319 30.7663 81.7222 29.5358 81.0679L28.3292 80.4256C27.1226 79.7382 26.6634 78.2105 27.3207 76.974C27.987 75.7164 29.5538 75.2361 30.8114 75.9025L34.221 77.7123C35.2745 78.2706 36.5951 77.8654 37.1383 76.8059L37.2224 76.6438C37.8467 75.6443 37.4775 74.3237 36.439 73.7745L26.2402 68.3629C24.9976 67.7026 24.3884 66.1989 24.9676 64.9323C25.6069 63.5847 27.2217 63.0534 28.5213 63.7438L37.9817 68.7651C39.0352 69.3234 40.3558 68.9182 40.9141 67.8647L40.9681 67.7266L40.9831 67.6966C41.5864 66.5921 41.1632 65.2054 40.0497 64.6142L34.7432 61.7988C33.5006 61.1385 32.8913 59.6348 33.4796 58.3532C34.1129 57.0206 35.7337 56.4743 37.0333 57.1647L42.895 60.2771C43.9905 60.8594 45.2992 60.3732 45.8664 59.2687C45.8754 59.2536 45.8754 59.2536 45.8814 59.2386C45.8904 59.2236 45.8904 59.2236 45.8964 59.2086C46.4937 58.1191 46.1636 56.7625 45.065 56.1832L38.7411 52.8276C37.5135 52.1763 36.9042 50.6726 37.4835 49.406C38.1228 48.0584 39.7375 47.5271 41.0372 48.2175L56.6385 56.4984L35.6736 95.9969L29.8959 85.4949C30.2681 85.2428 30.5923 84.9307 30.7934 84.4955Z" fill="#ED6362"/>
<path d="M67.6087 41.5034L88.5735 81.0019L69.5356 79.2431L60.3213 95.997L39.3564 56.4984L67.6087 41.5034Z" fill="#ED6362"/>
<path d="M65.2065 84.4954C64.6182 83.2318 65.2335 81.7221 66.4641 81.0678L67.6707 80.4255C68.8772 79.7382 69.3365 78.2105 68.6792 76.9739C68.0128 75.7163 66.4461 75.2361 65.1885 75.9024L61.7789 77.7122C60.7254 78.2705 59.4048 77.8653 58.8615 76.8058L58.7775 76.6437C58.1532 75.6443 58.5224 74.3236 59.5609 73.7744L69.7627 68.3598C71.0052 67.6995 71.6145 66.1958 71.0353 64.9292C70.396 63.5816 68.7812 63.0504 67.4816 63.7407L58.0212 68.762C56.9677 69.3203 55.647 68.9151 55.0888 67.8616L55.0348 67.7235L55.0197 67.6935C54.4165 66.589 54.8397 65.2024 55.9532 64.6111L61.2597 61.7958C62.5023 61.1355 63.1115 59.6317 62.5233 58.3501C61.89 57.0175 60.2692 56.4713 58.9696 57.1616L53.1018 60.2801C52.0063 60.8623 50.6977 60.3761 50.1305 59.2716C50.1214 59.2566 50.1214 59.2566 50.1154 59.2416C50.1064 59.2266 50.1064 59.2266 50.1004 59.2116C49.5032 58.122 49.8333 56.7654 50.9318 56.1861L57.2558 52.8306C58.4834 52.1793 59.0927 50.6756 58.5134 49.409C57.8741 48.0613 56.2593 47.5301 54.9597 48.2204L39.3584 56.5013L60.3232 95.9998L66.1009 85.4979C65.7318 85.2428 65.4076 84.9306 65.2065 84.4954Z" fill="#E95454"/>
<path d="M48.0001 70.0588C67.3463 70.0588 83.0295 54.3756 83.0295 35.0294C83.0295 15.6832 67.3463 0 48.0001 0C28.6539 0 12.9707 15.6832 12.9707 35.0294C12.9707 54.3756 28.6539 70.0588 48.0001 70.0588Z" fill="#FFCC5B"/>
<path d="M52.7509 31.0107H30.5525C28.8266 31.0107 27.41 29.594 27.41 27.8682L27.434 27.6521V27.6041C27.41 25.7822 28.8957 24.2935 30.7205 24.2935H46.1058C48.1437 24.2935 49.9446 22.7838 50.0646 20.7429C50.1607 18.6089 48.4589 16.808 46.3219 16.808H30.0242C28.2264 16.808 26.8817 15.2983 26.9058 13.4975C26.9058 13.4735 26.9058 13.4735 26.9058 13.4495C26.9058 13.4255 26.9058 13.4255 26.9058 13.4014C26.8817 11.6036 28.2234 10.0909 30.0242 10.0909H47.0782C49.0922 10.0909 50.893 8.58118 51.0131 6.56424C51.1091 4.40623 49.4073 2.62939 47.2703 2.62939H34.7814C22.0465 7.87885 13.0723 20.4007 13.0723 35.0296C13.0723 49.6584 22.0465 62.1773 34.7844 67.4208H50.6409C52.6548 67.4208 54.4557 65.911 54.5757 63.8941C54.6718 61.7361 52.97 59.9623 50.833 59.9623L32.7945 59.9593C30.6665 59.9593 28.9527 58.1794 29.0668 56.0244C29.1718 54.0075 30.9847 52.4918 33.0046 52.4918H39.9979C42.0088 52.4347 43.6326 50.787 43.6326 48.761C43.6326 46.699 41.9548 45.0183 39.8898 45.0183H29.2889C27.5631 45.0183 26.1464 43.6046 26.1704 41.8758V41.6117C26.0503 39.9099 27.419 38.4692 29.1208 38.4692H52.5348C54.5727 38.4692 56.3736 36.9595 56.4936 34.9425C56.5897 32.7875 54.8849 31.0107 52.7509 31.0107Z" fill="#FDBC4B"/>
<path d="M47.9998 60.0313C34.2114 60.0313 22.9951 48.8121 22.9951 35.0266C22.9951 21.2412 34.2114 10.0249 47.9998 10.0249C61.7883 10.0249 73.0046 21.2442 73.0046 35.0296C73.0046 48.8151 61.7883 60.0313 47.9998 60.0313Z" fill="#FFDB70"/>
<path d="M35.9523 44.9278C35.5591 45.285 35.328 45.7112 35.1449 46.1614C34.9708 46.6146 34.8447 47.0918 34.8778 47.6261C34.9138 48.1633 35.1329 48.7546 35.1629 49.2858C35.1689 49.3549 35.1509 49.4209 35.1539 49.4869C34.1454 48.1543 33.284 46.7407 32.5727 45.27C32.5907 44.9728 32.6357 44.6907 32.7438 44.4416C32.9178 44.0094 33.287 43.6852 33.5211 43.292C33.7522 42.8988 33.8663 42.4486 33.9653 41.9894C34.0554 41.5242 34.1274 41.053 34.0824 40.5007C34.0404 40.4737 33.9953 40.4467 33.9533 40.4167C33.5061 40.6538 33.197 40.987 32.9268 41.3531C32.6687 41.7253 32.4466 42.1275 32.3626 42.6197C32.2845 43.115 32.3626 43.7002 32.2755 44.1835C32.2605 44.2765 32.2185 44.3575 32.1945 44.4476C31.5462 42.9769 31.042 41.4552 30.6848 39.9034C30.7658 39.5673 30.8769 39.2551 31.06 39.009C31.3121 38.6579 31.7323 38.4508 32.0324 38.1506C32.3296 37.8445 32.5246 37.4603 32.7047 37.0581C32.8788 36.6469 33.0349 36.2267 33.0889 35.6985C33.0529 35.6625 33.0169 35.6264 32.9809 35.5904C32.5126 35.7015 32.1555 35.9386 31.8313 36.2117C31.5132 36.4908 31.228 36.815 31.051 37.2442C30.8799 37.6794 30.8409 38.2377 30.6608 38.6579C30.6158 38.7719 30.5437 38.859 30.4837 38.961C30.1896 37.4243 30.0365 35.8636 30.0275 34.2998C30.1866 33.9306 30.3726 33.5945 30.6428 33.3724C30.9489 33.1083 31.3811 33.0242 31.7203 32.8171C32.0564 32.607 32.3116 32.2889 32.5547 31.9557C32.7918 31.6106 33.0139 31.2474 33.1609 30.7552C33.1339 30.7101 33.1069 30.6681 33.0799 30.6231C32.6177 30.6111 32.2425 30.7522 31.8884 30.9292C31.5402 31.1183 31.21 31.3464 30.9669 31.7126C30.7238 32.0818 30.5857 32.595 30.3366 32.9432C30.2526 33.0662 30.1475 33.1563 30.0455 33.2523C30.0995 31.7246 30.2886 30.1999 30.6128 28.6932C30.6278 28.6692 30.6428 28.6482 30.6578 28.6242C30.9009 28.255 31.171 27.9278 31.5102 27.7628C31.8433 27.5887 32.2575 27.6217 32.6117 27.5076C32.9629 27.3906 33.257 27.1505 33.5451 26.8833C33.8273 26.6072 34.1004 26.3101 34.3315 25.8629C34.3135 25.8148 34.2985 25.7638 34.2805 25.7128C33.8573 25.5897 33.4851 25.6348 33.1249 25.7188C32.7678 25.8148 32.4196 25.9559 32.1255 26.247C31.8313 26.5442 31.6032 27.0034 31.3061 27.2675C31.177 27.3906 31.036 27.4716 30.8889 27.5497C31.2851 26.055 31.8223 24.5843 32.4946 23.1586C32.5066 23.1766 32.5216 23.1916 32.5337 23.2096C32.5907 23.1496 32.6507 23.0926 32.7077 23.0325C33.0079 22.7354 33.32 22.4863 33.6592 22.4112C33.9983 22.3242 34.3675 22.4593 34.7097 22.4323C35.0518 22.4022 35.37 22.2372 35.6881 22.0421C36.0033 21.835 36.3154 21.6039 36.6216 21.2137C36.6186 21.1597 36.6126 21.1056 36.6096 21.0546C36.2524 20.8355 35.9072 20.7905 35.5591 20.7905C35.2139 20.7995 34.8687 20.8565 34.5386 21.0726C34.2084 21.2947 33.9023 21.6879 33.5781 21.874C33.4191 21.973 33.251 22.0301 33.0829 22.0661C33.0889 22.0331 33.0889 22.0031 33.0949 21.97C34.1874 19.9411 35.5771 18.0232 37.2669 16.2764C35.6671 17.8221 34.3075 19.5269 33.185 21.3427C33.188 21.2887 33.212 21.2257 33.212 21.1717C33.239 20.7815 33.257 20.3943 33.221 20.0281C33.1039 19.3108 32.9088 18.6175 32.3776 18.0322C32.3206 18.0532 32.2635 18.0742 32.2065 18.0952C31.6422 19.0887 31.4952 19.9561 31.4922 20.7485C31.5162 21.1356 31.6032 21.4898 31.7203 21.829C31.8163 22.1801 31.9904 22.4893 32.2065 22.7744C32.2365 22.8164 32.2665 22.8555 32.2995 22.8975C31.6572 24.119 31.117 25.3856 30.6818 26.6792C30.6788 26.6672 30.6818 26.6522 30.6788 26.6372C30.5917 26.238 30.5077 25.8328 30.3786 25.4577C30.0785 24.7343 29.7123 24.047 29.046 23.5338C28.995 23.5668 28.947 23.5998 28.8959 23.6328C28.5928 24.7734 28.6648 25.7068 28.8689 26.5292C28.989 26.9254 29.1721 27.2765 29.3762 27.6067C29.5623 27.9518 29.8174 28.24 30.1055 28.4951C30.1145 28.5011 30.1235 28.5101 30.1295 28.5161C29.7994 29.8007 29.5653 31.1063 29.4332 32.4239C29.2561 32.0368 29.076 31.6526 28.8599 31.3074C28.3737 30.6171 27.8365 29.9718 27.0441 29.5576C27.0021 29.5996 26.96 29.6416 26.918 29.6867C26.9 30.9232 27.2092 31.8717 27.6234 32.6821C27.8485 33.0692 28.1216 33.3964 28.4127 33.6965C28.6678 33.9907 28.977 34.2128 29.3041 34.4109C29.2711 35.7105 29.3312 37.0161 29.4902 38.3127C29.2261 37.9765 28.965 37.6374 28.6768 37.3462C28.0075 36.734 27.2992 36.1697 26.3988 35.8786C26.3658 35.9296 26.3357 35.9806 26.3027 36.0316C26.5909 37.3012 27.1491 38.2167 27.7794 38.964C28.1066 39.3182 28.4698 39.6003 28.8449 39.8494C29.1451 40.0745 29.4812 40.2186 29.8234 40.3477C30.0785 41.6143 30.4297 42.8658 30.8739 44.0964C30.5347 43.8263 30.2016 43.5502 29.8504 43.319C29.004 42.8238 28.1366 42.3796 27.1401 42.2475C27.1191 42.3046 27.1011 42.3616 27.0801 42.4186C27.6954 43.6582 28.4998 44.4836 29.3432 45.1199C29.7724 45.417 30.2196 45.6301 30.6728 45.8102C31.0029 45.9603 31.3481 46.0263 31.6903 46.0893C32.2305 47.2719 32.8668 48.4244 33.5932 49.535C33.191 49.3429 32.7918 49.1388 32.3896 48.9887C31.3811 48.6586 30.3666 48.3734 29.3011 48.4184C29.2951 48.4815 29.2891 48.5415 29.2831 48.6045C30.2346 49.7451 31.2881 50.4204 32.3326 50.8946C32.8578 51.1077 33.3831 51.2338 33.9053 51.3238C34.2475 51.3988 34.5836 51.3868 34.9228 51.3898C35.487 52.1102 36.0963 52.8065 36.7446 53.4788C37.0868 53.1367 37.4319 52.7915 37.7741 52.4493C37.0268 51.729 36.3334 50.9696 35.6911 50.1833C35.6581 49.9251 35.6461 49.676 35.6821 49.4389C35.7452 48.9377 36.0303 48.5055 36.1684 48.0373C36.3004 47.566 36.3094 47.0678 36.3034 46.5636C36.2884 46.0563 36.2554 45.5491 36.0933 44.9878C36.0483 44.9638 36.0003 44.9458 35.9523 44.9278Z" fill="#ED6362"/>
<path d="M60.0473 44.9276C60.4405 45.2848 60.6716 45.711 60.8547 46.1612C61.0288 46.6144 61.1548 47.0917 61.1218 47.6259C61.0858 48.1632 60.8667 48.7544 60.8367 49.2857C60.8307 49.3547 60.8487 49.4208 60.8457 49.4868C61.8541 48.1542 62.7155 46.7405 63.4269 45.2698C63.4089 44.9727 63.3639 44.6905 63.2558 44.4414C63.0817 44.0092 62.7125 43.6851 62.4784 43.2919C62.2473 42.8987 62.1333 42.4485 62.0342 41.9893C61.9442 41.5241 61.8721 41.0528 61.9172 40.5006C61.9592 40.4736 62.0042 40.4465 62.0462 40.4165C62.4934 40.6536 62.8026 40.9868 63.0727 41.353C63.3308 41.7251 63.5529 42.1273 63.637 42.6196C63.715 43.1148 63.637 43.7001 63.724 44.1833C63.739 44.2763 63.781 44.3574 63.8051 44.4474C64.4534 42.9767 64.9576 41.455 65.3148 39.9033C65.2337 39.5671 65.1227 39.255 64.9396 39.0089C64.6875 38.6577 64.2673 38.4506 63.9671 38.1505C63.67 37.8443 63.4749 37.4601 63.2948 37.058C63.1207 36.6468 62.9647 36.2266 62.9106 35.6983C62.9467 35.6623 62.9827 35.6263 63.0187 35.5903C63.4869 35.7013 63.8441 35.9384 64.1682 36.2116C64.4864 36.4907 64.7715 36.8148 64.9486 37.244C65.1197 37.6793 65.1587 38.2375 65.3388 38.6577C65.3838 38.7718 65.4558 38.8588 65.5159 38.9609C65.81 37.4241 65.9631 35.8634 65.9721 34.2997C65.813 33.9305 65.6269 33.5943 65.3568 33.3722C65.0506 33.1081 64.6184 33.0241 64.2793 32.817C63.9431 32.6069 63.688 32.2887 63.4449 31.9556C63.2078 31.6104 62.9857 31.2472 62.8386 30.755C62.8656 30.71 62.8926 30.668 62.9196 30.6229C63.3819 30.6109 63.757 30.752 64.1112 30.9291C64.4594 31.1182 64.7895 31.3463 65.0326 31.7125C65.2757 32.0816 65.4138 32.5949 65.6629 32.943C65.747 33.0661 65.852 33.1561 65.9541 33.2522C65.9 31.7245 65.7109 30.1997 65.3868 28.693C65.3718 28.669 65.3568 28.648 65.3418 28.624C65.0987 28.2548 64.8285 27.9277 64.4894 27.7626C64.1562 27.5885 63.742 27.6215 63.3879 27.5075C63.0367 27.3904 62.7426 27.1503 62.4544 26.8832C62.1723 26.6071 61.8992 26.3099 61.6681 25.8627C61.6861 25.8147 61.7011 25.7637 61.7191 25.7126C62.1423 25.5896 62.5145 25.6346 62.8746 25.7186C63.2318 25.8147 63.58 25.9558 63.8741 26.2469C64.1682 26.544 64.3963 27.0032 64.6935 27.2674C64.8225 27.3904 64.9636 27.4715 65.1107 27.5495C64.7205 26.0578 64.1862 24.5871 63.5109 23.1614C63.4989 23.1795 63.4839 23.1945 63.4719 23.2125C63.4149 23.1524 63.3548 23.0954 63.2978 23.0354C62.9977 22.7383 62.6855 22.4891 62.3464 22.4141C62.0072 22.3271 61.638 22.4621 61.2959 22.4351C60.9537 22.4051 60.6356 22.24 60.3174 22.0449C60.0023 21.8378 59.6901 21.6067 59.384 21.2165C59.387 21.1625 59.393 21.1085 59.396 21.0575C59.7532 20.8384 60.0983 20.7933 60.4465 20.7933C60.7916 20.8023 61.1368 20.8594 61.467 21.0755C61.7971 21.2976 62.1033 21.6908 62.4274 21.8768C62.5865 21.9759 62.7546 22.0329 62.9226 22.0689C62.9166 22.0389 62.9136 22.0059 62.9106 21.9759C61.8181 19.9469 60.4285 18.029 58.7387 16.2822C60.3384 17.828 61.6981 19.5327 62.8206 21.3486C62.8176 21.2946 62.7936 21.2315 62.7936 21.1775C62.7666 20.7873 62.7486 20.4002 62.7846 20.034C62.9016 19.3166 63.0967 18.6233 63.628 18.038C63.685 18.0591 63.742 18.0801 63.7991 18.1011C64.3633 19.0945 64.5104 19.9619 64.5134 20.7543C64.4894 21.1415 64.4023 21.4957 64.2853 21.8348C64.1892 22.186 64.0152 22.4951 63.7991 22.7803C63.769 22.8223 63.739 22.8613 63.706 22.9033C64.3483 24.1249 64.8886 25.3915 65.3238 26.6851C65.3268 26.6731 65.3238 26.6581 65.3268 26.6431C65.4078 26.2379 65.4918 25.8327 65.6209 25.4575C65.9211 24.7342 66.2872 24.0469 66.9535 23.5336C67.0046 23.5666 67.0556 23.5967 67.1066 23.6297C67.4097 24.7702 67.3377 25.7036 67.1366 26.526C67.0166 26.9222 66.8335 27.2734 66.6294 27.6035C66.4433 27.9487 66.1882 28.2368 65.9 28.4919C65.891 28.4979 65.882 28.507 65.876 28.513C66.2062 29.7976 66.4403 31.1032 66.5724 32.4208C66.7494 32.0336 66.9295 31.6494 67.1456 31.3043C67.6319 30.6139 68.1691 29.9686 68.9615 29.5544C69.0035 29.5965 69.0455 29.6385 69.0875 29.6805C69.1055 30.9171 68.7964 31.8655 68.3822 32.6759C68.1571 33.0631 67.884 33.3902 67.5928 33.6904C67.3377 33.9845 67.0286 34.2066 66.7014 34.4047C66.7344 35.7043 66.6744 37.0099 66.5153 38.3065C66.7795 37.9704 67.0406 37.6312 67.3287 37.3401C67.998 36.7278 68.7064 36.1635 69.6068 35.8724C69.6398 35.9234 69.6698 35.9745 69.7028 36.0255C69.4147 37.2951 68.8564 38.2105 68.2261 38.9578C67.899 39.312 67.5358 39.5941 67.1606 39.8433C66.8605 40.0684 66.5243 40.2124 66.1822 40.3415C65.9271 41.6081 65.5759 42.8597 65.1317 44.0903C65.4708 43.8201 65.804 43.544 66.1552 43.3129C67.0016 42.8177 67.869 42.3735 68.8654 42.2414C68.8864 42.2984 68.9044 42.3554 68.9255 42.4125C68.3102 43.652 67.5058 44.4774 66.6624 45.1137C66.2332 45.4109 65.786 45.624 65.3328 45.8041C65.0026 45.9541 64.6575 46.0202 64.3153 46.0832C63.775 47.2657 63.1387 48.4183 62.4124 49.5288C62.8146 49.3367 63.2138 49.1326 63.616 48.9825C64.6244 48.6524 65.6389 48.3673 66.7044 48.4123C66.7104 48.4753 66.7164 48.5353 66.7224 48.5984C65.771 49.7389 64.7175 50.4142 63.673 50.8884C63.1477 51.1015 62.6225 51.2276 62.1003 51.3176C61.7581 51.3927 61.4219 51.3807 61.0828 51.3837C60.5185 52.104 59.9092 52.8003 59.2609 53.4726C58.9188 53.1305 58.5736 52.7853 58.2314 52.4432C58.9788 51.7228 59.6721 50.9635 60.3144 50.1771C60.3474 49.919 60.3594 49.6699 60.3234 49.4328C60.2604 48.9315 59.9753 48.4993 59.8372 48.0311C59.7051 47.5599 59.6961 47.0616 59.7021 46.5574C59.7171 46.0502 59.7502 45.5429 59.9122 44.9817C59.9513 44.9637 59.9993 44.9457 60.0473 44.9276Z" fill="#ED6362"/>
<path d="M47.5055 18.4707C46.7852 20.4816 45.4585 22.2375 43.5226 23.7472C42.5352 24.5185 41.6047 25.0858 40.6953 25.587V31.3647C42.7543 30.4163 44.6782 29.2878 46.3109 27.7601V51.5822H52.6319V18.4707H47.5055Z" fill="#E95454"/>
</g>
<defs>
<clipPath id="clip0">
<rect width="96" height="96" fill="white"/>
</clipPath>
</defs>
</svg>
