<svg width="346" height="243" viewBox="0 0 346 243" fill="none" xmlns="http://www.w3.org/2000/svg">
<path d="M0.21875 83.7656H345.781V243H0.21875V83.7656Z" fill="#DADADA"/>
<path d="M172.906 83.7656H345.781V243H172.906V83.7656Z" fill="#D5B79F"/>
<path d="M104.492 0H241.508V243H104.492V0Z" fill="#FFCE00"/>
<path d="M184.848 38.3164V102.27H167.18V60.3633C164.316 62.5352 161.551 64.293 158.879 65.6367C156.203 66.9805 152.852 68.2695 148.82 69.4961V55.1719C154.766 53.2578 159.387 50.9531 162.676 48.2656C165.961 45.5781 168.535 42.2617 170.395 38.3164H184.848Z" fill="#E80E03"/>
<path d="M80.3867 185.27H27.9727C28.5742 180.094 30.3945 175.227 33.4414 170.664C36.4883 166.102 42.1992 160.719 50.5781 154.516C55.6953 150.711 58.9688 147.824 60.3984 145.852C61.8281 143.879 62.543 142.004 62.543 140.23C62.543 138.316 61.8359 136.68 60.4219 135.32C59.0039 133.961 57.2266 133.281 55.082 133.281C52.8516 133.281 51.0273 133.984 49.6133 135.387C48.1953 136.785 47.2461 139.262 46.7578 142.805L29.2578 141.391C29.9453 136.473 31.2031 132.633 33.0312 129.871C34.8633 127.113 37.4453 124.996 40.7734 123.523C44.1055 122.051 48.7188 121.316 54.6094 121.316C60.7578 121.316 65.5391 122.016 68.957 123.418C72.3711 124.816 75.0625 126.969 77.0195 129.871C78.9766 132.773 79.957 136.027 79.957 139.629C79.957 143.461 78.8359 147.121 76.5898 150.609C74.3477 154.098 70.2656 157.93 64.3438 162.105C60.8281 164.535 58.4766 166.238 57.2891 167.211C56.1016 168.184 54.707 169.453 53.1055 171.027H80.3867V185.27Z" fill="#E80E03"/>
<path d="M283.203 140.574L266.688 137.613C268.062 132.355 270.699 128.32 274.602 125.52C278.504 122.719 284.031 121.316 291.18 121.316C299.387 121.316 305.32 122.844 308.98 125.906C312.641 128.965 314.469 132.809 314.469 137.441C314.469 140.16 313.727 142.617 312.238 144.82C310.754 147.023 308.508 148.953 305.508 150.609C307.938 151.211 309.797 151.91 311.082 152.711C313.168 154 314.793 155.691 315.949 157.797C317.109 159.898 317.688 162.406 317.688 165.324C317.688 168.984 316.73 172.492 314.812 175.852C312.898 179.215 310.141 181.801 306.535 183.617C302.934 185.434 298.199 186.34 292.34 186.34C286.617 186.34 282.109 185.668 278.805 184.324C275.504 182.98 272.785 181.016 270.656 178.43C268.527 175.84 266.891 172.59 265.746 168.672L283.203 166.355C283.891 169.871 284.953 172.309 286.398 173.668C287.844 175.027 289.68 175.703 291.91 175.703C294.254 175.703 296.207 174.848 297.766 173.133C299.324 171.414 300.102 169.129 300.102 166.27C300.102 163.352 299.352 161.094 297.852 159.492C296.352 157.891 294.312 157.09 291.738 157.09C290.367 157.09 288.48 157.434 286.078 158.117L286.977 145.637C287.949 145.781 288.707 145.852 289.25 145.852C291.535 145.852 293.445 145.121 294.977 143.664C296.504 142.203 297.27 140.477 297.27 138.473C297.27 136.559 296.699 135.027 295.555 133.883C294.41 132.738 292.84 132.168 290.836 132.168C288.777 132.168 287.105 132.789 285.816 134.035C284.531 135.277 283.66 137.457 283.203 140.574Z" fill="#E80E03"/>
</svg>
