<svg width="320" height="40" viewBox="0 0 320 40" fill="none" xmlns="http://www.w3.org/2000/svg">
<path d="M16.8386 2.72222C22.7469 6.85653 29.1202 29.5958 31.5684 40.4487L-0.0939079 40.4653C3.08849 26.1617 10.9303 -1.41208 16.8386 2.72222Z" fill="#FFA012" stroke="black"/>
<path d="M47.8386 2.72222C53.7469 6.85653 60.1202 29.5958 62.5684 40.4487L30.9061 40.4653C34.0885 26.1617 41.9303 -1.41208 47.8386 2.72222Z" fill="#FC421D" stroke="black"/>
<path d="M86.4494 9.4232C91.9566 12.8291 94.6764 31.5653 95.348 40.5077L61.928 40.5251C67.8071 28.7387 80.9421 6.01725 86.4494 9.4232Z" fill="#8D0C68" stroke="black"/>
<path d="M217.518 10.3574C222.112 13.6404 230.267 31.8063 233.77 40.4789L213.033 40.6247C212.614 29.1677 212.924 7.0745 217.518 10.3574Z" fill="#FFA012" stroke="black"/>
<path d="M281.459 10.3574C276.865 13.6404 268.71 31.8063 265.207 40.4789L285.944 40.6247C286.363 29.1677 286.053 7.0745 281.459 10.3574Z" fill="#FC421D" stroke="black"/>
<path d="M250.838 2.72222C256.747 6.85653 263.12 29.5958 265.568 40.4487L233.906 40.4653C237.088 26.1617 244.93 -1.41208 250.838 2.72222Z" fill="#00A1AD" stroke="black"/>
<path d="M302.838 2.72222C308.747 6.85653 315.12 29.5958 317.568 40.4487L285.906 40.4653C289.088 26.1617 296.93 -1.41208 302.838 2.72222Z" fill="#8D0C68" stroke="black"/>
<path d="M111.839 2.72222C117.747 6.85653 124.12 29.5958 126.568 40.4487L94.9061 40.4653C98.0885 26.1617 105.93 -1.41208 111.839 2.72222Z" fill="#00A1AD" stroke="black"/>
<path d="M135.06 10.3766C139.61 13.6478 146.125 31.6636 148.813 40.2626L126.377 40.3044C127.375 28.9654 130.51 7.10533 135.06 10.3766Z" fill="#FC421D" stroke="black"/>
<path d="M165.838 2.72222C171.747 6.85653 178.12 29.5958 180.568 40.4487L148.906 40.4653C152.088 26.1617 159.93 -1.41208 165.838 2.72222Z" fill="#AFD9C3" stroke="black"/>
<path d="M197.838 2.72222C203.747 6.85653 210.12 29.5958 212.568 40.4487L180.906 40.4653C184.088 26.1617 191.93 -1.41208 197.838 2.72222Z" fill="#8D0C68" stroke="black"/>
</svg>
