<svg width="278" height="159" viewBox="0 0 278 159" fill="none" xmlns="http://www.w3.org/2000/svg">
<path d="M250.5 123.5C241.7 118.3 230.167 113 225.5 111C223 109.903 210.5 119 202.5 123.5C196.1 127.1 197.5 134.333 199 137.5C203.5 141.167 209.8 150 199 156C188.2 162 179.833 146.167 177 137.5C160.6 148.7 120.833 144.167 103 140.5C103 157.7 94.3333 159.333 90 158C87 157.833 81.3 155.2 82.5 146C95.5 123 69 123.5 65 123.5C61.8 123.5 31 130.833 16 134.5C10.6667 134.833 0 134.8 0 132C0 129.2 6.33333 125.167 9.5 123.5C10.6039 123.113 11.773 122.692 13 122.238C10.6 122.429 9.66667 114.826 9.5 111C13.1 110.6 17 116.925 18.5 120.138C23.6216 118.121 29.4095 115.683 35.5 112.895C27.5 106.811 30.1667 96.4299 32.5 92C44.1 96 46 104.413 45.5 108.12C52.5338 104.616 59.7016 100.725 66.5 96.5458C55.7 90.5825 55 75.6972 56 69C73.2 72.6 78.1993 83.5 78.549 88.5C86.5554 82.6454 93.4092 76.4059 98 70.0001C79.6 66.8002 78.3333 45.0001 80 34.5C103.6 36.1 109.833 50.5884 110 57.6326C119.381 50.5238 129.831 47.2184 138.785 46.0001C135.357 43.8334 128.3 38.5 127.5 34.5C126.5 29.5 132 7.5 143.5 0C148 2.36477 157.8 11.3755 161 28.5C161.5 31.6668 161 39.6002 155 46.0001C160.228 47.595 168.828 51.1684 177 56.5699C179 49.2133 188.4 35.5 210 39.5C210.533 48.8334 207.238 67.5 189.799 67.5C191.826 69.83 193.599 72.3316 195 75.0001C205.5 95 216.5 87.0001 218 86.0001C219.5 85.0001 221.5 79.0001 237 75.0001C252.5 71.0001 270.5 88.0001 276.5 100C279.809 106.617 274.907 115.059 268 120.211C262.381 124.402 255.434 126.416 250.5 123.5Z" fill="#AF8B11"/>
<path d="M155.5 46.0001C160.728 47.595 169.328 51.1684 177.5 56.5699C179.5 49.2133 188.9 35.5 210.5 39.5C211.033 48.8334 207.738 67.5 190.299 67.5C186.633 63.2866 182.136 59.6341 177.5 56.5699C169.328 51.1684 160.728 47.595 155.5 46.0001C151.556 45.3335 145.819 45.1113 139.285 46.0001C130.331 47.2184 119.881 50.5238 110.5 57.6326C106.192 60.8975 102.109 64.9646 98.5 70.0001C93.9092 76.4059 87.0554 82.6454 79.049 88.5C75.2524 91.2763 71.1966 93.966 67 96.5458C60.2016 100.725 53.0338 104.616 46 108.12C42.617 109.805 39.265 111.4 36 112.895C29.9095 115.683 24.1216 118.121 19 120.138C17.065 120.899 15.2252 121.601 13.5 122.238C11.1 122.429 10.1667 114.826 10 111C13.6 110.6 17.5 116.925 19 120.138C24.1216 118.121 29.9095 115.683 36 112.895C28 106.811 30.6667 96.4299 33 92C44.6 96 46.5 104.413 46 108.12C53.0338 104.616 60.2016 100.725 67 96.5458C56.2 90.5825 55.5 75.6972 56.5 69C73.7 72.6 78.6993 83.5 79.049 88.5C87.0554 82.6454 93.9092 76.4059 98.5 70.0001C80.1 66.8002 78.8333 45.0001 80.5 34.5C104.1 36.1 110.333 50.5884 110.5 57.6326C119.881 50.5238 130.331 47.2184 139.285 46.0001C135.857 43.8334 128.8 38.5 128 34.5C127 29.5 132.5 7.5 144 0C148.5 2.36477 158.3 11.3755 161.5 28.5C162 31.6668 161.5 39.6002 155.5 46.0001Z" fill="#FF757C"/>
<path d="M248 105C248.167 108.474 252.4 116.279 268 119.711" stroke="black"/>
<circle r="9" transform="matrix(-1 0 0 1 242 92)" fill="white"/>
<circle r="4.66667" transform="matrix(-1 0 0 1 244.333 92.3334)" fill="black"/>
<path d="M244.667 88.6666C243.889 88.5555 242.133 88.6666 241.333 89.9999C240.533 91.3333 243.222 89.6666 244.667 88.6666Z" fill="white"/>
<path d="M112.5 63.4999C111.5 62.9 109 65.8333 108 66.9999C107 68.4999 107 68.9999 108 69.9999C109.118 71.1179 117.5 66.4996 112.5 63.4999Z" fill="#F4EFE9"/>
<path d="M103.658 73.1382L103.627 73.1815C102.058 74.9837 101.401 75.3243 99.6812 75.2251C97.7588 75.1143 100.446 65.4277 106.412 67.2858C107.595 67.654 104.809 71.5353 103.658 73.1382Z" fill="#F4EFE9"/>
<path d="M94.9808 90.7888L95.0119 90.7455C96.5808 88.9433 97.2385 88.6027 98.958 88.7019C100.88 88.8127 98.1933 98.4993 92.227 96.6412C91.0446 96.273 93.8303 92.3917 94.9808 90.7888Z" fill="#F4EFE9"/>
<path d="M117.078 56.5467C116.651 55.7138 113.851 57.7129 112.734 58.5065C111.487 59.6069 111.292 60.0673 111.563 61.2685C111.867 62.6115 119.217 60.7113 117.078 56.5467Z" fill="#F4EFE9"/>
<path d="M110.078 76.5467C109.651 75.7138 106.851 77.7129 105.734 78.5065C104.487 79.6069 104.292 80.0673 104.563 81.2685C104.867 82.6115 112.217 80.7113 110.078 76.5467Z" fill="#F4EFE9"/>
<path d="M80.8982 89.416L80.8438 89.4443C78.3783 90.8627 77.6464 91.4481 76.4528 92.9564C75.1182 94.6427 84.1411 92.0655 87.1817 86.8659C87.7843 85.8354 82.9109 88.3694 80.8982 89.416Z" fill="#F4EFE9"/>
<path d="M123.505 53.882C122.776 53.2875 120.197 53.5909 119.166 53.7096C118.078 53.9628 117.992 54.1647 118.652 54.9208C119.39 55.7661 127.147 56.8547 123.505 53.882Z" fill="#F4EFE9"/>
<path d="M92.7362 81.0954C91.8233 80.8707 89.623 82.2513 88.7427 82.8006C87.8687 83.4959 87.878 83.715 88.7985 84.1149C89.8276 84.562 97.3012 82.2187 92.7362 81.0954Z" fill="#F4EFE9"/>
<path d="M120.99 61.1514C120.613 60.6498 118.763 61.5361 118.024 61.8875C117.217 62.3998 117.115 62.6412 117.41 63.3361C117.74 64.1128 122.876 63.6595 120.99 61.1514Z" fill="#F4EFE9"/>
<path d="M111.99 72.1514C111.613 71.6498 109.763 72.5361 109.024 72.8875C108.217 73.3998 108.115 73.6412 108.41 74.3361C108.74 75.1128 113.876 74.6595 111.99 72.1514Z" fill="#F4EFE9"/>
<path d="M79.9901 99.1514C79.613 98.6498 77.7627 99.5361 77.0239 99.8875C76.217 100.4 76.1146 100.641 76.4099 101.336C76.7401 102.113 81.8758 101.659 79.9901 99.1514Z" fill="#F4EFE9"/>
<path d="M96.1193 81.6026C96.6246 80.865 99.278 82.2993 100.337 82.8681C101.501 83.6834 101.658 84.0532 101.278 85.0868C100.853 86.2423 93.5924 85.291 96.1193 81.6026Z" fill="#F4EFE9"/>
<path d="M108.224 62.9304C107.92 62.5251 106.424 63.2414 105.827 63.5253C105.175 63.9393 105.093 64.1344 105.331 64.6959C105.598 65.3236 109.748 64.9572 108.224 62.9304Z" fill="#F4EFE9"/>
<path d="M119.651 57.9304C119.955 57.5251 121.451 58.2414 122.048 58.5253C122.7 58.9393 122.782 59.1344 122.544 59.6959C122.277 60.3236 118.127 59.9572 119.651 57.9304Z" fill="#F4EFE9"/>
<path d="M94.6505 76.9304C94.9553 76.5251 96.4505 77.2414 97.0475 77.5253C97.6996 77.9393 97.7823 78.1344 97.5437 78.6959C97.2769 79.3236 93.1267 78.9572 94.6505 76.9304Z" fill="#F4EFE9"/>
<path d="M88.2138 89.2323C88.0833 88.7422 89.5702 88.0089 90.1623 87.7148C90.8907 87.4577 91.0952 87.5132 91.3893 88.0477C91.7182 88.6453 88.8663 91.6826 88.2138 89.2323Z" fill="#F4EFE9"/>
<path d="M82.2138 94.2323C82.0833 93.7422 83.5702 93.0089 84.1623 92.7148C84.8907 92.4577 85.0952 92.5132 85.3893 93.0477C85.7182 93.6453 82.8663 96.6826 82.2138 94.2323Z" fill="#F4EFE9"/>
<path d="M103.346 76.9962C103.008 76.5858 101.454 77.2326 100.833 77.4888C100.159 77.8708 100.079 78.0594 100.353 78.6208C100.66 79.2483 105.036 79.048 103.346 76.9962Z" fill="#F4EFE9"/>
<path d="M87.3458 94.9962C87.0078 94.5858 85.4535 95.2326 84.8329 95.4888C84.1589 95.8708 84.079 96.0594 84.3531 96.6208C84.6595 97.2483 89.036 97.048 87.3458 94.9962Z" fill="#F4EFE9"/>
<path d="M74.3458 94.9962C74.0078 94.5858 72.4535 95.2326 71.8329 95.4888C71.1589 95.8708 71.079 96.0594 71.3531 96.6208C71.6595 97.2483 76.036 97.048 74.3458 94.9962Z" fill="#F4EFE9"/>
</svg>
