<svg width="296" height="296" viewBox="0 0 296 296" fill="none" xmlns="http://www.w3.org/2000/svg">
<path d="M255.3 42.55H221.383V101.75H255.3V42.55Z" fill="#F05540"/>
<path d="M268.25 12.3333H208.433V44.4001H268.25V12.3333Z" fill="#F3705A"/>
<path d="M25.8999 159.717V296H267.633V159.717C220.15 112.234 193.633 85.717 146.766 38.8501C99.8999 86.3332 73.383 112.85 25.8999 159.717Z" fill="#FFD15C"/>
<path d="M268.25 159.717C220.767 112.234 194.25 85.717 147.383 38.8501C123.333 62.2832 104.833 80.7832 86.333 99.2833C67.833 117.783 49.333 136.283 25.8999 159.716V187.466C73.383 139.983 99.8999 113.466 146.767 66.5995C194.25 114.083 220.767 140.6 267.634 187.466V191.166V159.716H268.25V159.717Z" fill="#F7B64C"/>
<path d="M125.183 296H52.417V224.467C52.417 204.117 69.067 188.083 88.8001 188.083C109.15 188.083 125.183 204.733 125.183 224.467V296Z" fill="#415A6B"/>
<path d="M241.733 188.083H146.767V271.333H241.733V188.083Z" fill="#344A5E"/>
<path d="M290.45 134.433L161.567 5.55C154.167 -1.85 141.217 -1.85 133.817 5.55L5.55 134.433C-1.85 141.833 -1.85 154.783 5.55 162.183C12.95 169.583 25.9 169.583 33.3 162.183L148 47.4831L262.7 162.183C270.1 169.583 283.05 169.583 290.45 162.183C297.85 154.167 297.85 141.833 290.45 134.433Z" fill="#F3705A"/>
<path d="M189.316 197.95H156.633V261.467H189.316V197.95Z" fill="#8AD7F8"/>
<path d="M231.866 197.95H199.183V261.467H231.866V197.95Z" fill="#8AD7F8"/>
<path d="M126.338 287.387C126.154 283.364 123.961 283.462 123.25 283.702L133.678 277.983C134.287 278.396 135.84 280.248 137.174 284.357C138.508 288.466 133.969 290.507 130.283 291.333C129.635 291.688 126.521 291.41 126.338 287.387Z" fill="#109B7E"/>
<path d="M154.222 258.638C158.99 261.351 165.961 269.243 155.702 279.107C150.572 283.842 139.919 282.396 135.233 281.08C131.78 280.587 125.072 280.636 125.861 284.779C126.848 289.958 123.642 296.124 119.203 295.384C114.764 294.644 111.311 295.384 109.091 292.178C107.316 289.613 109.996 287.657 111.558 286.999C112.462 285.684 113.235 282.659 109.091 281.08C108.542 280.871 107.962 280.609 107.365 280.292C102.337 277.625 96.1252 271.088 97.007 259.624C95.3628 259.049 92.2719 257.306 93.0611 254.939C94.0475 251.979 98.9799 248.527 99.7198 248.033C100.46 247.54 102.186 240.881 111.064 227.317C104.817 231.345 90.4962 237.379 83.1963 229.29C75.8964 221.201 77.8529 211.452 79.7437 207.588C83.0319 203.642 92.8638 195.8 105.885 195.997C106.05 193.777 107.069 189.091 109.831 188.105C112.593 187.118 114.435 193.328 115.01 196.557C115.53 196.631 116.022 196.713 116.49 196.804C117.887 194.644 121.472 190.423 124.628 190.818C127.785 191.212 125.172 197.394 123.471 200.436C123.793 200.815 124.096 201.226 124.385 201.669C127.261 201.011 133.112 200.288 133.507 202.656C133.901 205.023 129.725 207.588 127.588 208.574C127.603 209.399 127.626 210.31 127.658 211.287C129.772 211.123 134.345 211.534 135.726 214.493C137.107 217.453 131.121 218.028 127.956 217.946C128.008 218.84 128.065 219.747 128.128 220.659C130.168 220.494 134.444 220.659 135.233 222.632C136.022 224.605 131.212 226.578 128.708 227.317C128.771 227.903 128.837 228.479 128.907 229.044C130.851 228.797 135.036 228.748 136.219 230.523C137.403 232.299 132.483 234.223 129.875 234.963C130.062 235.8 130.263 236.547 130.478 237.182C131.981 236.771 135.529 236.344 137.699 237.922C139.869 239.5 135.075 242.032 132.407 243.101C132.524 243.536 132.644 243.979 132.767 244.429C134.411 244.069 138.044 243.791 139.425 245.567C140.806 247.343 136.634 249.431 134.375 250.253C134.514 250.746 134.653 251.24 134.792 251.733C136.337 251.239 139.771 250.697 141.152 252.472C142.533 254.248 138.534 256.336 136.362 257.158C136.546 257.779 136.728 258.385 136.906 258.973C138.65 258.779 142.385 258.786 143.371 260.364C144.358 261.943 140.613 263.652 138.618 264.31C139.196 265.964 139.654 267.049 139.919 267.27C140.658 266.447 142.681 265.001 144.851 265.79C147.021 266.579 144.769 269.505 143.371 270.869C144.206 271.492 145.119 272.021 146.084 272.373C146.577 270.754 147.909 267.615 149.29 268.009C150.671 268.404 151.345 270.908 151.51 272.111C152.251 271.734 152.994 271.198 153.729 270.472C152.907 269.405 151.411 267.171 152.003 266.776C152.595 266.382 155.219 266.283 156.457 266.283C156.603 265.707 156.689 265.042 156.663 264.31C156.616 263.023 156.225 261.529 155.209 259.955C154.929 259.521 154.602 259.081 154.222 258.638Z" fill="#1BAD8E"/>
<path d="M83.4258 229.432C93 222.5 98 221.5 110 220.5" stroke="black"/>
<path d="M99.5403 248.175C100.28 247.682 102.006 241.023 110.885 227.459C111.477 241.467 103.568 247.106 99.5403 248.175Z" fill="#AFD9C3"/>
<path d="M96.8275 259.766C95.9457 271.229 102.158 277.766 107.185 280.434C108.83 278.806 111.131 271.456 107.185 255.08C105.048 256.313 99.9842 258.977 96.8275 259.766Z" fill="#AFD9C3"/>
<path d="M105.621 195.997C105.785 193.777 106.804 189.091 109.567 188.105C112.329 187.118 114.17 193.328 114.745 196.557C115.265 196.631 115.758 196.713 116.225 196.804C117.623 194.644 121.207 190.423 124.364 190.818C127.52 191.212 124.907 197.394 123.206 200.436C123.529 200.815 123.831 201.226 124.121 201.669C126.997 201.011 132.847 200.288 133.242 202.656C133.636 205.023 129.46 207.588 127.323 208.574C127.339 209.399 127.362 210.31 127.393 211.287C129.507 211.123 134.08 211.534 135.461 214.493C136.843 217.453 130.857 218.028 127.691 217.946C127.743 218.84 127.8 219.747 127.863 220.659C129.903 220.494 134.179 220.659 134.968 222.632C135.757 224.605 130.947 226.577 128.443 227.317C128.506 227.903 128.573 228.479 128.642 229.044C130.587 228.797 134.771 228.748 135.955 230.523C137.138 232.299 132.218 234.223 129.61 234.963C129.797 235.8 129.998 236.547 130.213 237.182C131.716 236.771 135.264 236.344 137.434 237.922C139.605 239.5 134.81 242.032 132.142 243.101C132.259 243.536 132.38 243.979 132.502 244.429C134.146 244.069 137.78 243.791 139.161 245.567C140.542 247.343 136.369 249.431 134.11 250.253C134.249 250.746 134.388 251.24 134.528 251.733C136.072 251.239 139.506 250.697 140.887 252.472C142.268 254.248 138.269 256.336 136.097 257.158C136.281 257.779 136.463 258.385 136.641 258.973C138.385 258.779 142.12 258.786 143.107 260.364C144.093 261.943 140.349 263.652 138.353 264.31C138.932 265.964 139.39 267.049 139.654 267.27C140.394 266.447 142.416 265.001 144.586 265.79C146.757 266.579 144.504 269.505 143.107 270.869C143.941 271.492 144.854 272.021 145.819 272.373C146.313 270.754 147.644 267.615 149.025 268.009C150.407 268.404 151.081 270.908 151.245 272.111C151.987 271.734 152.73 271.198 153.465 270.472C152.643 269.405 151.146 267.171 151.738 266.776C152.33 266.382 154.954 266.283 156.192 266.283C156.005 267.022 155.717 267.613 155.438 268.009C154.791 269 154.131 269.814 153.465 270.472C152.73 271.198 151.987 271.734 151.245 272.111C149.377 273.059 147.519 272.992 145.819 272.373C144.854 272.021 143.941 271.492 143.107 270.869C141.676 269.801 140.479 268.458 139.654 267.27C139.39 267.049 138.932 265.964 138.353 264.31C137.856 262.888 137.27 261.047 136.641 258.973C136.463 258.385 136.281 257.779 136.097 257.158C135.585 255.43 135.054 253.59 134.528 251.733C134.388 251.24 134.249 250.746 134.11 250.253C133.553 248.267 133.008 246.288 132.502 244.429C132.38 243.979 132.259 243.536 132.142 243.101C131.729 241.574 131.35 240.153 131.022 238.908C130.733 238.507 130.464 237.92 130.213 237.182C129.998 236.547 129.797 235.8 129.61 234.963C129.236 233.29 128.915 231.258 128.642 229.044C128.573 228.479 128.506 227.903 128.443 227.317C128.211 225.17 128.019 222.903 127.863 220.659C127.8 219.747 127.743 218.84 127.691 217.946C127.554 215.57 127.457 213.29 127.393 211.287C127.362 210.31 127.339 209.399 127.323 208.574C126.188 205.667 125.258 203.412 124.121 201.669C123.831 201.226 123.529 200.815 123.206 200.436C121.626 198.578 119.563 197.458 116.225 196.804C115.758 196.713 115.265 196.631 114.745 196.557C112.352 196.216 109.381 196.054 105.621 195.997Z" fill="#FFA012"/>
<path d="M113.235 207.216C110.717 208.885 105.454 210.756 104.542 204.886" stroke="black"/>
</svg>
