<svg width="39" height="39" viewBox="0 0 39 39" fill="none" xmlns="http://www.w3.org/2000/svg">
<path d="M18.1312 32.0804C18.1682 35.4648 20.9457 38.2298 24.3303 38.2478C25.2313 38.2538 26.1229 38.064 26.9433 37.6915C27.7637 37.3189 28.4934 36.7726 29.0818 36.0902C29.5411 36.6856 30.123 37.1754 30.788 37.5264C31.453 37.8774 32.1857 38.0815 32.9364 38.1249C33.6872 38.1682 34.4384 38.0498 35.1394 37.7776C35.8404 37.5055 36.4748 37.0859 36.9996 36.5474C37.5244 36.0088 37.9275 35.3638 38.1814 34.656C38.4354 33.9482 38.5343 33.1941 38.4716 32.4448C38.4089 31.6954 38.1859 30.9683 37.8178 30.3125C37.4497 29.6568 36.9451 29.0878 36.338 28.644C37.0049 28.0381 37.5323 27.2946 37.8835 26.4648C38.2347 25.6351 38.4014 24.7389 38.3722 23.8383C38.2667 20.4554 35.431 17.7502 32.0466 17.8007C30.5542 17.8232 29.1193 18.3802 28.0026 19.3706C26.8859 20.3611 26.1615 21.7191 25.961 23.1982L2.6253 0.457943L0.0340418 3.11704L23.3697 25.8573C21.8963 26.096 20.5574 26.8553 19.5961 27.9972C18.6349 29.1391 18.1151 30.5879 18.1312 32.0804V32.0804ZM31.27 32.908C31.2649 32.5186 31.3755 32.1364 31.5877 31.8099C31.7998 31.4833 32.104 31.227 32.4619 31.0733C32.8197 30.9196 33.2151 30.8755 33.598 30.9465C33.9809 31.0176 34.3342 31.2006 34.6131 31.4724C34.892 31.7442 35.084 32.0925 35.1649 32.4735C35.2458 32.8544 35.212 33.2508 35.0676 33.6125C34.9232 33.9742 34.6748 34.285 34.3539 34.5055C34.0329 34.726 33.6537 34.8464 33.2643 34.8514C32.7421 34.8582 32.2386 34.6572 31.8646 34.2928C31.4906 33.9283 31.2767 33.4302 31.27 32.908V32.908ZM29.1866 24.0735C29.1791 23.4894 29.3449 22.9161 29.6631 22.4263C29.9814 21.9364 30.4377 21.5519 30.9745 21.3214C31.5112 21.0909 32.1043 21.0247 32.6787 21.1313C33.253 21.2378 33.7829 21.5123 34.2013 21.92C34.6196 22.3277 34.9077 22.8503 35.0291 23.4217C35.1504 23.9931 35.0996 24.5877 34.883 25.1302C34.6665 25.6728 34.2939 26.1389 33.8124 26.4697C33.331 26.8005 32.7622 26.9811 32.1781 26.9886C31.3948 26.9987 30.6396 26.6973 30.0786 26.1506C29.5176 25.6039 29.1967 24.8567 29.1866 24.0735V24.0735ZM21.4128 32.0508C21.4053 31.4666 21.5711 30.8934 21.8894 30.4036C22.2076 29.9137 22.664 29.5292 23.2007 29.2987C23.7375 29.0682 24.3305 29.002 24.9049 29.1086C25.4793 29.2151 26.0091 29.4896 26.4275 29.8973C26.8459 30.305 27.1339 30.8276 27.2553 31.399C27.3766 31.9704 27.3258 32.565 27.1093 33.1075C26.8927 33.6501 26.5201 34.1162 26.0387 34.447C25.5572 34.7778 24.9884 34.9584 24.4043 34.9659C23.6211 34.976 22.8658 34.6746 22.3048 34.1279C21.7438 33.5812 21.423 32.834 21.4128 32.0508V32.0508Z" fill="#FCAC1E"/>
<path d="M23.8465 17.2461L23.8464 17.2461C23.1122 16.5307 21.9371 16.5458 21.2217 17.28L17.3353 21.2681C16.6199 22.0023 16.6351 23.1774 17.3693 23.8928L17.3693 23.8929C18.1035 24.6083 19.2786 24.5931 19.994 23.859L23.8804 19.8709C24.5958 19.1367 24.5806 17.9616 23.8465 17.2461Z" fill="#FFBA40"/>
<path d="M10.0055 12.8341L6.11864 16.8228L4.12432 14.8793L6.06776 12.885L4.07343 10.9416L2.12999 12.9359L0.135669 10.9925L4.02255 7.00381L10.0055 12.8341Z" fill="#F98500"/>
</svg>
