<svg width="820" height="590" viewBox="0 0 820 590" fill="none" xmlns="http://www.w3.org/2000/svg">
<rect x="44.4121" width="730.877" height="530.446" fill="#774531"/>
<path d="M0.573242 575.831V58.8595L44.7626 0.354492V530.446L0.573242 575.831Z" fill="#653B2A"/>
<path d="M819.479 576.186V59.2138L775.29 0.70874V530.8L819.479 576.186Z" fill="#653B2A"/>
<path d="M44.4123 0L0.222961 45.7403V58.8596H819.479V45.7403L775.991 0H44.4123Z" fill="#C27352"/>
<path d="M0.222961 45.7402H819.479V58.8595H0.222961V45.7402Z" fill="#A95E3F"/>
<path d="M44.4118 132.611L0.222473 178.352V191.471H819.479V178.352L775.991 132.611H44.4118Z" fill="#C27352"/>
<path d="M0.222473 178.352H819.479V191.471H0.222473V178.352Z" fill="#A95E3F"/>
<path d="M44.4123 265.223L0.222961 310.963V324.083H819.479V310.963L775.991 265.223H44.4123Z" fill="#C27352"/>
<path d="M0.222961 310.963H819.479V324.083H0.222961V310.963Z" fill="#A95E3F"/>
<path d="M44.4123 397.834L0.222961 443.575V456.694H819.479V443.575L775.991 397.834H44.4123Z" fill="#C27352"/>
<path d="M0.222961 443.575H819.479V456.694H0.222961V443.575Z" fill="#A95E3F"/>
<path d="M44.4118 530.446L0.222473 576.186V589.305H819.479V576.186L775.991 530.446H44.4118Z" fill="#C27352"/>
<path d="M0.222473 576.186H819.479V589.305H0.222473V576.186Z" fill="#A95E3F"/>
</svg>
