<svg width="1058" height="676" viewBox="0 0 1058 676" fill="none" xmlns="http://www.w3.org/2000/svg">
<g filter="url(#filter0_d)">
<path d="M28.0469 184.666C26.0892 163.408 29.4507 133.388 47.5296 119.89C48.2533 119.349 49.0005 118.836 49.7719 118.35L143.489 53.9899C156.29 44.6956 174.237 39.4797 199.029 42.1561L1005.53 42.3977V495.582L833.582 638.793L28.0469 634.082V184.666Z" fill="#E6D1B8"/>
<path d="M929.147 558.834L1005.04 495.582C1006.99 516.841 1003.63 546.86 985.553 560.358C984.83 560.899 984.083 561.413 983.311 561.898L889.594 626.258C876.793 635.552 858.846 640.768 834.054 638.092L918.37 567.817C918.747 562.645 918.714 557.775 918.382 553.459C922.119 555.491 925.706 557.277 929.147 558.834Z" fill="#E6D1B8"/>
<g filter="url(#filter1_d)">
<path d="M917.487 553.997C921.225 556.029 924.812 557.816 928.253 559.372C953.328 570.715 970.674 569.831 982.417 562.437L984.659 560.897C983.936 561.437 983.188 561.951 982.417 562.437L888.7 626.796C908.551 612.383 916.029 588.161 917.475 568.355C917.853 563.183 917.819 558.313 917.487 553.997Z" fill="#D0BDA6"/>
</g>
<g filter="url(#filter2_d)">
<path d="M114.512 126.503C110.774 124.471 107.187 122.685 103.746 121.128C78.6708 109.785 61.3248 110.67 49.5822 118.064L47.3398 119.604C48.0635 119.063 48.8107 118.549 49.5822 118.064L143.299 53.7039C123.448 68.1173 115.97 92.3391 114.524 112.145C114.146 117.317 114.18 122.187 114.512 126.503Z" fill="#D0BDA6"/>
</g>
</g>
<g filter="url(#filter3_d)">
<path d="M4 587.481V549.286L122.714 640.644L111.157 668L4 587.481Z" fill="#D0BDA6"/>
</g>
<g filter="url(#filter4_d)">
<path d="M1024.42 154.847L1053.48 148.383L950.968 15.4597L933.367 34.5334L1024.42 154.847Z" fill="#D0BDA6"/>
</g>
<rect x="381.811" y="374.042" width="31.0917" height="264.75" fill="#F4EBEB"/>
<rect x="767.159" y="119.656" width="31.0917" height="286.42" fill="#F4EBEB"/>
<rect x="273.461" y="214.815" width="31.0917" height="185.608" fill="#F4EBEB"/>
<rect x="273.461" y="121.54" width="31.0917" height="278.883" fill="#F4EBEB"/>
<rect x="798.251" y="374.042" width="31.0917" height="680.248" transform="rotate(90 798.251 374.042)" fill="#F4EBEB"/>
<rect x="798.251" y="183.724" width="31.0917" height="524.79" transform="rotate(90 798.251 183.724)" fill="#F4EBEB"/>
<rect x="560.824" y="214.815" width="31.0917" height="191.261" fill="#F4EBEB"/>
<rect x="410.076" y="90.4485" width="31.0917" height="136.615" transform="rotate(90 410.076 90.4485)" fill="#F4EBEB"/>
<g clip-path="url(#clip0)">
<path d="M500.541 538.863H543.926C546.102 535.845 547.397 532.151 547.397 528.146C547.397 519.118 540.881 511.625 532.297 510.082C531.202 509.885 530.367 509.057 530.024 507.998C528.631 503.698 524.602 500.587 519.839 500.587C518.594 500.587 517.399 500.8 516.288 501.191C515.297 501.54 514.2 501.422 513.383 500.761C510.467 498.401 506.925 496.786 503.04 496.219C502.027 496.071 500.99 496.218 499.935 496.218C487.754 496.218 479.979 506.156 480.558 518.465C481.101 529.994 488.999 538.863 500.541 538.863V538.863Z" fill="#AEDB81"/>
<path d="M484.649 518.465C484.119 507.201 492.319 497.746 503.044 496.219C502.035 496.072 500.985 495.994 499.935 495.994C487.754 495.994 477.946 506.156 478.525 518.465C479.068 529.993 488.999 538.863 500.541 538.863H506.665C495.123 538.863 485.192 529.993 484.649 518.465V518.465Z" fill="#95CC81"/>
<path d="M533.107 540.012C532.9 540.012 532.689 539.969 532.488 539.88C531.715 539.537 531.366 538.632 531.709 537.859L535.572 529.154C535.916 528.384 536.818 528.032 537.592 528.376C538.365 528.719 538.714 529.624 538.371 530.397L534.508 539.102C534.253 539.673 533.694 540.012 533.107 540.012V540.012Z" fill="#D19A6E"/>
<path d="M527.187 519.572C526.681 518.896 525.721 518.755 525.045 519.266L520.323 522.807L518.218 516.913C517.934 516.118 517.055 515.701 516.262 515.986C515.465 516.271 515.05 517.147 515.335 517.944L522.99 539.378C523.213 540.004 523.802 540.395 524.432 540.395C524.602 540.395 524.777 540.366 524.946 540.305C525.743 540.02 526.159 539.144 525.873 538.348L522.16 527.951C521.708 526.687 522.133 525.276 523.206 524.471L526.881 521.715C527.558 521.208 527.696 520.248 527.187 519.572V519.572Z" fill="#D19A6E"/>
<path d="M506.589 508.337C505.796 508.046 504.916 508.45 504.623 509.244L503.4 512.563L499.967 508.414C499.427 507.763 498.463 507.672 497.811 508.211C497.159 508.75 497.069 509.715 497.608 510.367L501.052 514.529C501.748 515.369 501.944 516.516 501.566 517.54L493.906 538.334C493.614 539.127 494.019 540.007 494.813 540.3C494.988 540.364 495.166 540.395 495.342 540.395C495.966 540.395 496.551 540.011 496.779 539.392L507.496 510.303C507.788 509.51 507.383 508.629 506.589 508.337V508.337Z" fill="#D19A6E"/>
<path d="M507.542 533.034C507.062 526.921 502.777 521.622 496.949 519.715C494.413 518.886 491.977 518.789 489.708 519.185C488.74 519.353 487.737 519.076 487.051 518.373C483.093 514.321 477.279 512.09 470.983 513.062C470.799 513.09 470.616 513.121 470.434 513.155C462.813 514.578 458.578 520.879 457.513 528.592C457.021 532.161 458.949 535.567 460.256 538.558L503.906 538.863L507.591 534.27C507.591 533.861 507.574 533.449 507.542 533.034V533.034Z" fill="#95CC81"/>
<path d="M466.253 534.27C463.716 534.27 461.66 532.214 461.66 529.677C461.66 522.804 465.136 516.732 470.434 513.156C462.811 514.577 456.781 520.878 455.717 528.592C455.224 532.161 455.758 535.567 457.065 538.558L506.89 538.863C507.345 537.414 507.59 535.87 507.591 534.27H466.253Z" fill="#7DBD80"/>
<path d="M475.375 523.113C475.131 522.303 474.28 521.842 473.469 522.086C472.658 522.329 472.199 523.183 472.441 523.992L474.286 530.141L468.249 528.218C467.439 527.961 466.582 528.406 466.325 529.212C466.069 530.018 466.513 530.879 467.319 531.135L473.812 533.203C474.776 533.51 475.525 534.273 475.816 535.241L477.034 539.303C477.233 539.967 477.842 540.395 478.501 540.395C478.646 540.395 478.794 540.373 478.941 540.33C479.751 540.087 480.21 539.233 479.968 538.423L475.375 523.113Z" fill="#B57F5F"/>
<path d="M493.04 526.817C492.303 526.396 491.37 526.652 490.951 527.387L484.827 538.104C484.407 538.838 484.663 539.773 485.397 540.192C485.636 540.329 485.898 540.394 486.155 540.394C486.687 540.394 487.203 540.118 487.486 539.623L493.61 528.906C494.03 528.171 493.774 527.236 493.04 526.817V526.817Z" fill="#B57F5F"/>
<path d="M548.928 540.394H454.005C453.158 540.394 452.474 539.709 452.474 538.863C452.474 538.018 453.158 537.332 454.005 537.332H548.928C549.775 537.332 550.46 538.018 550.46 538.863C550.46 539.709 549.775 540.394 548.928 540.394Z" fill="#95CC81"/>
</g>
<g clip-path="url(#clip1)">
<path d="M706.877 178.953H750.262C752.437 175.935 753.733 172.241 753.733 168.236C753.733 159.208 747.217 151.716 738.633 150.172C737.538 149.975 736.702 149.147 736.36 148.089C734.967 143.789 730.938 140.678 726.175 140.678C724.93 140.678 723.735 140.891 722.624 141.281C721.633 141.63 720.536 141.512 719.719 140.851C716.803 138.491 713.261 136.876 709.376 136.309C708.363 136.161 707.326 136.308 706.271 136.308C694.09 136.308 686.315 146.246 686.894 158.555C687.437 170.084 695.335 178.953 706.877 178.953V178.953Z" fill="#AEDB81"/>
<path d="M690.985 158.555C690.455 147.292 698.655 137.836 709.38 136.309C708.371 136.163 707.321 136.084 706.271 136.084C694.09 136.084 684.282 146.246 684.861 158.555C685.404 170.084 695.335 178.953 706.877 178.953H713.001C701.459 178.953 691.528 170.084 690.985 158.555V158.555Z" fill="#95CC81"/>
<path d="M739.443 180.102C739.236 180.102 739.025 180.06 738.824 179.97C738.051 179.627 737.702 178.722 738.045 177.949L741.908 169.245C742.252 168.474 743.154 168.122 743.928 168.467C744.701 168.81 745.05 169.714 744.707 170.487L740.844 179.192C740.589 179.763 740.03 180.102 739.443 180.102V180.102Z" fill="#D19A6E"/>
<path d="M733.523 159.662C733.016 158.986 732.057 158.846 731.381 159.356L726.659 162.898L724.554 157.004C724.27 156.208 723.391 155.791 722.598 156.077C721.801 156.362 721.386 157.238 721.671 158.034L729.326 179.468C729.549 180.094 730.138 180.485 730.768 180.485C730.938 180.485 731.113 180.456 731.282 180.395C732.079 180.111 732.495 179.235 732.209 178.438L728.496 168.041C728.044 166.777 728.469 165.367 729.542 164.562L733.217 161.806C733.894 161.299 734.032 160.339 733.523 159.662V159.662Z" fill="#D19A6E"/>
<path d="M712.925 148.427C712.132 148.136 711.252 148.541 710.959 149.335L709.736 152.653L706.303 148.505C705.763 147.854 704.799 147.762 704.147 148.301C703.495 148.84 703.405 149.805 703.944 150.457L707.388 154.619C708.084 155.46 708.28 156.607 707.902 157.63L700.241 178.424C699.95 179.217 700.355 180.098 701.149 180.39C701.324 180.454 701.502 180.485 701.678 180.485C702.302 180.485 702.887 180.101 703.115 179.482L713.832 150.393C714.124 149.6 713.719 148.719 712.925 148.427V148.427Z" fill="#D19A6E"/>
<path d="M713.878 173.124C713.398 167.011 709.113 161.712 703.285 159.806C700.749 158.977 698.313 158.879 696.044 159.275C695.076 159.444 694.073 159.166 693.387 158.463C689.429 154.411 683.615 152.181 677.319 153.152C677.135 153.18 676.952 153.212 676.77 153.246C669.148 154.668 664.913 160.969 663.849 168.683C663.357 172.251 665.285 175.658 666.592 178.649L710.242 178.954L713.926 174.361C713.926 173.952 713.91 173.54 713.878 173.124V173.124Z" fill="#95CC81"/>
<path d="M672.589 174.36C670.052 174.36 667.996 172.304 667.996 169.767C667.996 162.894 671.472 156.822 676.77 153.246C669.147 154.667 663.117 160.968 662.052 168.683C661.56 172.251 662.094 175.658 663.401 178.649L713.226 178.954C713.681 177.505 713.926 175.96 713.927 174.36H672.589Z" fill="#7DBD80"/>
<path d="M681.711 163.203C681.467 162.393 680.616 161.933 679.804 162.176C678.994 162.419 678.535 163.273 678.777 164.083L680.622 170.231L674.585 168.309C673.775 168.051 672.918 168.496 672.661 169.302C672.405 170.108 672.849 170.969 673.655 171.226L680.148 173.294C681.112 173.6 681.861 174.363 682.152 175.332L683.37 179.393C683.569 180.057 684.178 180.485 684.837 180.485C684.982 180.485 685.13 180.464 685.277 180.42C686.087 180.177 686.546 179.323 686.304 178.514L681.711 163.203Z" fill="#B57F5F"/>
<path d="M699.376 166.907C698.639 166.486 697.706 166.743 697.287 167.477L691.163 178.194C690.743 178.928 690.999 179.863 691.733 180.283C691.972 180.42 692.234 180.485 692.491 180.485C693.023 180.485 693.539 180.208 693.822 179.713L699.946 168.996C700.366 168.262 700.11 167.326 699.376 166.907V166.907Z" fill="#B57F5F"/>
<path d="M755.264 180.484H660.341C659.494 180.484 658.81 179.799 658.81 178.953C658.81 178.108 659.494 177.422 660.341 177.422H755.264C756.111 177.422 756.795 178.108 756.795 178.953C756.795 179.799 756.111 180.484 755.264 180.484Z" fill="#95CC81"/>
</g>
<g clip-path="url(#clip2)">
<path d="M222.6 372.099H265.986C268.161 369.08 269.457 365.386 269.457 361.382C269.457 352.353 262.94 344.861 254.357 343.318C253.261 343.121 252.426 342.292 252.083 341.234C250.691 336.934 246.662 333.823 241.898 333.823C240.653 333.823 239.459 334.036 238.348 334.427C237.357 334.775 236.26 334.657 235.443 333.996C232.527 331.637 228.984 330.022 225.1 329.454C224.086 329.306 223.05 329.453 221.995 329.453C209.813 329.453 202.038 339.391 202.618 351.7C203.16 363.229 211.059 372.099 222.6 372.099V372.099Z" fill="#AEDB81"/>
<path d="M206.709 351.7C206.179 340.437 214.379 330.981 225.104 329.454C224.095 329.308 223.045 329.23 221.995 329.23C209.814 329.23 200.006 339.391 200.585 351.7C201.128 363.229 211.059 372.099 222.6 372.099H228.724C217.183 372.099 207.252 363.229 206.709 351.7V351.7Z" fill="#95CC81"/>
<path d="M255.166 373.248C254.96 373.248 254.749 373.205 254.547 373.116C253.774 372.772 253.426 371.868 253.768 371.095L257.632 362.39C257.976 361.619 258.877 361.267 259.652 361.612C260.425 361.955 260.773 362.86 260.431 363.633L256.567 372.337C256.313 372.908 255.754 373.248 255.166 373.248V373.248Z" fill="#D19A6E"/>
<path d="M249.247 352.808C248.74 352.132 247.78 351.991 247.104 352.502L242.383 356.043L240.278 350.149C239.994 349.354 239.114 348.936 238.322 349.222C237.525 349.507 237.109 350.383 237.395 351.179L245.05 372.614C245.273 373.239 245.862 373.63 246.491 373.63C246.662 373.63 246.837 373.601 247.006 373.541C247.803 373.256 248.218 372.38 247.933 371.583L244.219 361.186C243.768 359.922 244.192 358.512 245.266 357.707L248.94 354.951C249.618 354.444 249.755 353.484 249.247 352.808V352.808Z" fill="#D19A6E"/>
<path d="M228.649 341.572C227.856 341.281 226.976 341.686 226.683 342.48L225.46 345.799L222.027 341.65C221.487 340.999 220.523 340.908 219.871 341.447C219.219 341.985 219.129 342.951 219.667 343.603L223.112 347.765C223.807 348.605 224.003 349.752 223.626 350.776L215.965 371.569C215.674 372.362 216.079 373.243 216.873 373.535C217.048 373.6 217.226 373.63 217.402 373.63C218.025 373.63 218.61 373.247 218.839 372.628L229.556 343.538C229.848 342.745 229.442 341.865 228.649 341.572V341.572Z" fill="#D19A6E"/>
<path d="M229.601 366.269C229.122 360.156 224.837 354.857 219.008 352.951C216.473 352.122 214.037 352.024 211.768 352.42C210.799 352.589 209.797 352.311 209.11 351.608C205.153 347.556 199.339 345.326 193.042 346.297C192.858 346.326 192.675 346.357 192.493 346.391C184.872 347.814 180.637 354.114 179.573 361.828C179.08 365.397 181.009 368.803 182.316 371.794L225.966 372.099L229.65 367.506C229.65 367.097 229.634 366.685 229.601 366.269V366.269Z" fill="#95CC81"/>
<path d="M188.312 367.506C185.776 367.506 183.719 365.449 183.719 362.913C183.719 356.039 187.195 349.967 192.493 346.391C184.871 347.813 178.841 354.113 177.776 361.828C177.284 365.397 177.817 368.803 179.125 371.794L228.949 372.099C229.405 370.65 229.65 369.105 229.65 367.506H188.312Z" fill="#7DBD80"/>
<path d="M197.434 356.349C197.191 355.538 196.34 355.078 195.528 355.322C194.718 355.565 194.259 356.418 194.501 357.228L196.346 363.377L190.309 361.454C189.498 361.197 188.642 361.642 188.384 362.447C188.129 363.253 188.573 364.114 189.379 364.371L195.872 366.439C196.835 366.746 197.585 367.508 197.876 368.477L199.094 372.538C199.293 373.202 199.901 373.63 200.561 373.63C200.706 373.63 200.854 373.609 201 373.565C201.811 373.322 202.27 372.469 202.027 371.659L197.434 356.349Z" fill="#B57F5F"/>
<path d="M215.1 360.052C214.362 359.632 213.429 359.888 213.011 360.622L206.887 371.339C206.467 372.073 206.722 373.009 207.457 373.428C207.696 373.565 207.957 373.63 208.215 373.63C208.747 373.63 209.263 373.353 209.545 372.859L215.669 362.141C216.089 361.407 215.834 360.472 215.1 360.052V360.052Z" fill="#B57F5F"/>
<path d="M270.988 373.63H176.064C175.218 373.63 174.533 372.944 174.533 372.099C174.533 371.253 175.218 370.568 176.064 370.568H270.988C271.834 370.568 272.519 371.253 272.519 372.099C272.519 372.944 271.834 373.63 270.988 373.63Z" fill="#95CC81"/>
</g>
<g clip-path="url(#clip3)">
<path d="M127.397 296.243C125.909 298.66 124.005 306.457 124.005 317.398L117.263 323.177C115.841 324.396 115.022 326.176 115.022 328.049L115.022 345.349C115.022 347.187 115.679 348.964 116.876 350.36L122.722 357.18L123.761 364.454C123.908 365.488 124.667 366.328 125.679 366.581L129.138 367.446L138.121 348.197L138.121 294.298L130.866 294.298C129.448 294.299 128.142 295.035 127.397 296.243Z" fill="#FFB47D"/>
<path d="M131.705 294.299C129.138 294.299 126.572 298.148 126.572 316.114L126.572 366.163C126.572 366.872 127.146 367.446 127.855 367.446L135.555 367.446L139.405 343.063L139.405 294.298L131.705 294.298L131.705 294.299Z" fill="#FF9164"/>
<path d="M136.838 294.299L136.838 354.473L134.302 365.885C134.151 366.571 134.583 367.262 135.276 367.417C135.968 367.57 136.653 367.133 136.807 366.442L139.374 354.892C139.394 354.801 139.404 354.708 139.404 354.614L139.404 294.299C139.404 293.59 138.83 293.016 138.121 293.016C137.412 293.016 136.838 293.589 136.838 294.299Z" fill="#FF7D5A"/>
<path d="M143.254 305.849C143.254 302.305 140.381 299.433 136.837 299.433C133.294 299.433 130.421 302.305 130.421 305.849C130.421 309.393 133.294 312.265 136.837 312.265C140.381 312.265 143.254 309.393 143.254 305.849Z" fill="#EDEDEE"/>
<path d="M144.538 305.848C144.538 310.094 141.084 313.548 136.838 313.548C132.592 313.548 129.138 310.094 129.138 305.848C129.138 301.602 132.592 298.148 136.838 298.148C141.084 298.148 144.538 301.602 144.538 305.848ZM131.705 305.848C131.705 308.679 134.007 310.981 136.838 310.981C139.669 310.981 141.971 308.679 141.971 305.848C141.971 303.017 139.669 300.715 136.838 300.715C134.007 300.715 131.705 303.017 131.705 305.848Z" fill="#504B5A"/>
<path d="M139.404 305.849C139.404 304.431 138.255 303.282 136.838 303.282C135.42 303.282 134.271 304.431 134.271 305.849C134.271 307.266 135.42 308.416 136.838 308.416C138.255 308.416 139.404 307.266 139.404 305.849Z" fill="#DCDBDE"/>
<path d="M143.254 354.614C143.254 351.071 140.381 348.198 136.837 348.198C133.294 348.198 130.421 351.071 130.421 354.614C130.421 358.158 133.294 361.031 136.837 361.031C140.381 361.031 143.254 358.158 143.254 354.614Z" fill="#EDEDEE"/>
<path d="M144.538 354.613C144.538 358.859 141.084 362.313 136.838 362.313C132.592 362.313 129.138 358.859 129.138 354.613C129.138 350.368 132.592 346.914 136.838 346.914C141.084 346.914 144.538 350.368 144.538 354.613ZM131.705 354.613C131.705 357.444 134.007 359.747 136.838 359.747C139.669 359.747 141.971 357.444 141.971 354.613C141.971 351.783 139.669 349.48 136.838 349.48C134.007 349.48 131.705 351.783 131.705 354.613Z" fill="#504B5A"/>
<path d="M139.404 354.614C139.404 353.197 138.255 352.048 136.838 352.048C135.42 352.048 134.271 353.197 134.271 354.614C134.271 356.032 135.42 357.181 136.838 357.181C138.255 357.181 139.404 356.032 139.404 354.614Z" fill="#DCDBDE"/>
<path d="M134.272 316.115L134.272 343.064C134.272 343.772 133.697 344.347 132.988 344.347C132.28 344.347 131.705 343.772 131.705 343.064L131.705 316.115C131.705 315.406 132.28 314.831 132.988 314.831C133.697 314.831 134.272 315.406 134.272 316.115Z" fill="#FF7D5A"/>
<path d="M134.272 294.299L134.272 295.582C134.272 296.291 133.697 296.865 132.988 296.865C132.28 296.865 131.705 296.291 131.705 295.582L131.705 294.299C131.705 293.59 132.28 293.016 132.988 293.016C133.697 293.016 134.272 293.59 134.272 294.299Z" fill="#FF7D5A"/>
<path d="M122.722 357.18L116.876 350.36C115.68 348.965 115.022 347.187 115.022 345.349L115.022 328.049C115.022 326.176 115.84 324.397 117.263 323.177L124.005 317.398L124.005 347.781C124.005 348.912 123.912 350.041 123.726 351.157L122.722 357.18Z" fill="#FF9164"/>
<path d="M117.229 329.462C116.643 329.949 116.305 330.672 116.305 331.433L116.305 343.285C116.305 343.965 116.576 344.618 117.057 345.1L120.907 348.949C121.247 349.29 121.709 349.481 122.19 349.481C123.192 349.481 124.005 348.668 124.005 347.666L124.005 325.184C124.005 324.64 123.37 324.343 122.952 324.691L117.229 329.462Z" fill="#625D6B"/>
<path d="M124.005 340.497L124.005 344.347L116.305 341.781L116.305 339.214L124.005 340.497Z" fill="#504B5A"/>
<path d="M127.855 295.676L127.855 296.865C127.855 297.574 128.429 298.149 129.138 298.149C129.847 298.149 130.421 297.574 130.421 296.865L130.421 294.356C129.423 294.468 128.521 294.932 127.855 295.676Z" fill="#EDEDEE"/>
<path d="M117.262 323.177C116.904 323.485 116.584 323.829 116.305 324.2L116.305 326.294C116.305 326.838 116.94 327.136 117.358 326.787L123.082 322.017C123.667 321.53 124.005 320.807 124.005 320.046L124.005 317.398L117.262 323.177Z" fill="#625D6B"/>
<path d="M127.855 367.446L129.138 367.446L129.138 364.88C129.138 364.171 128.564 363.596 127.855 363.596C127.146 363.596 126.572 364.171 126.572 364.88L126.572 366.163C126.572 366.872 127.146 367.446 127.855 367.446Z" fill="#FF6464"/>
</g>
<g clip-path="url(#clip4)">
<path d="M328.653 563.773C328.653 563.773 328.653 572.639 317.681 579.258C314.63 581.096 310.882 578.273 311.763 574.817C313.388 568.446 315.29 559.573 315.29 552.934C315.29 541.337 302.256 557.723 302.256 557.723L304.699 575.118C304.699 575.118 303.125 580.816 298.853 585.849C296.77 588.304 292.81 587.419 291.933 584.323C290.48 579.214 289.683 571.013 294.304 561.251C302.18 544.609 283.272 559.485 283.272 559.485C283.272 559.485 288.445 573.28 285.338 588.2C284.725 591.143 281.142 592.34 278.851 590.39C273.79 586.081 266.734 577.36 267.387 562.508C267.387 562.508 266.95 575.053 264.107 577.132C264.107 577.132 253.267 571.586 252.511 568.054C251.754 564.522 252.511 575.366 252.511 575.366C252.511 575.366 293.103 586.458 271.924 628.311H298.144C298.144 628.311 281.91 610.972 302.256 595.187C322.602 579.402 326.13 582.93 330.919 568.558C335.713 554.191 328.653 563.773 328.653 563.773Z" fill="#9A795F"/>
<path d="M257.38 571.758C258.918 571.526 260.487 571.478 262.037 571.622C261.585 569.74 264.648 568.31 265.797 569.864C267.203 571.762 265.369 575.526 267.599 576.303C268.901 576.755 270.066 575.458 271.195 574.673C272.745 573.6 274.871 573.424 276.577 574.229C276.633 573.083 276.689 571.938 276.745 570.793C277.81 570.837 278.879 570.881 279.944 570.925C279.968 569.912 279.989 568.903 280.013 567.89C285.298 568.522 288.966 575.326 294.196 574.325C294.889 574.193 295.593 573.916 296.282 574.072C296.919 574.213 297.411 574.693 297.948 575.058C300.435 576.755 303.83 576.055 306.589 574.841C309.344 573.628 312.019 571.938 315.03 571.794C317.333 571.682 320.164 572.295 321.525 570.437C321.914 569.904 322.114 569.219 322.627 568.807C324.116 567.601 325.974 569.628 327.348 570.965C329.766 573.32 333.418 573.792 336.79 573.868C338.54 573.908 340.358 573.86 341.919 573.071C343.481 572.283 344.694 570.549 344.346 568.839C343.974 567.029 342.052 565.143 343.209 563.701C345.211 564.626 347.786 564.122 349.287 562.504C347.706 559.248 350.365 554.788 353.98 554.627C354.937 554.587 355.923 554.792 356.844 554.523C357.764 554.255 358.573 553.214 358.133 552.365C357.568 551.28 355.542 551.436 355.318 550.235C355.154 549.354 356.159 548.761 356.631 548C357.504 546.591 356.267 544.633 354.673 544.192C353.079 543.752 351.39 544.36 349.888 545.057C349.56 541.838 347.045 538.959 343.898 538.202C345.868 537.329 346.737 534.606 345.635 532.756C344.534 530.906 341.727 530.365 340.021 531.675C340.702 529.857 340.262 527.67 338.936 526.253C337.611 524.835 335.46 524.255 333.598 524.807C333.006 522.052 332.413 519.293 331.82 516.538C331.6 515.509 331.356 514.432 330.675 513.627C329.021 511.673 325.718 512.23 323.732 510.608C323.219 510.188 322.747 509.603 322.082 509.567C320.973 509.507 320.34 510.996 319.243 511.161C318.626 511.253 318.046 510.9 317.465 510.672C315.399 509.847 312.8 510.704 311.627 512.594C311.182 510.912 309.236 510.063 307.498 510.043C305.76 510.023 304.054 510.576 302.317 510.612C299.538 510.668 296.903 509.407 294.14 509.098C291.377 508.79 287.985 510.011 287.545 512.758C287.336 514.04 287.789 515.533 286.956 516.526C286.439 517.143 285.591 517.339 284.866 517.688C283.38 518.404 282.315 519.922 282.147 521.56C281.182 520.863 280.185 520.126 279.644 519.065C279.104 518.004 279.192 516.522 280.161 515.834C280.657 515.481 281.294 515.385 281.83 515.097C283.184 514.372 283.592 512.658 283.861 511.145C283.925 510.776 283.989 510.376 283.821 510.039C283.636 509.671 283.232 509.479 282.856 509.311C280.99 508.49 279.128 507.673 277.262 506.852C275.456 506.059 272.921 505.462 271.864 507.128C271.523 507.669 271.431 508.362 270.995 508.83C270.146 509.731 268.516 509.303 267.539 510.079C266.45 510.944 266.73 512.838 265.661 513.731C265.084 514.216 264.268 514.272 263.599 514.612C262.57 515.141 261.977 516.406 262.237 517.535C262.498 518.665 263.583 519.55 264.744 519.574C265.773 519.594 266.714 519.013 267.723 518.797C268.732 518.581 270.066 518.973 270.19 519.998C270.306 520.959 269.229 521.672 268.26 521.708C267.295 521.74 266.354 521.364 265.389 521.332C262.522 521.243 259.574 524.147 257.152 522.609C256.267 522.048 255.67 520.959 254.637 520.803C252.839 520.531 252.062 523.109 250.453 523.954C248.847 524.795 246.22 524.042 245.575 525.736C245.423 526.137 245.451 526.577 245.403 527.002C245.147 529.312 242.812 530.75 240.686 531.687C238.864 532.492 236.97 533.216 235.424 534.47C233.879 535.719 232.713 537.649 232.958 539.623C233.162 541.301 234.347 542.839 234.123 544.513C232.93 544.985 231.68 545.49 230.855 546.471C230.031 547.452 229.794 549.065 230.703 549.974C232.177 551.452 234.72 549.878 236.746 550.363C236.886 551.072 237.022 551.78 237.162 552.489C239.056 552.629 240.954 552.769 242.848 552.91C242.953 553.558 243.053 554.211 243.157 554.86C244.658 553.002 247.738 554.283 249.976 553.438C251.153 552.994 252.014 551.981 253.091 551.328C254.169 550.675 255.802 550.527 256.495 551.576C254.309 553.883 251.562 555.649 248.559 556.682C246.717 557.314 244.726 557.703 243.185 558.896C241.643 560.089 240.774 562.472 241.971 564.006C240.738 563.938 239.493 564.058 238.295 564.37C238.143 565.747 238.311 567.157 238.776 568.462C240.93 568.102 243.241 569.472 243.966 571.53C244.262 572.371 244.314 573.284 244.642 574.109C245.507 576.295 248.134 577.348 250.477 577.136C252.819 576.924 254.941 575.738 256.984 574.577" fill="#8CC63E"/>
<path d="M289.162 531.486C287.621 530.253 286.075 529.02 284.533 527.786C284.105 527.442 283.636 527.085 283.088 527.061C282.635 527.041 282.215 527.258 281.786 527.398C279.192 528.255 276.533 526.489 273.854 525.956C269.998 525.191 266.158 527.021 262.654 528.799C261.753 529.256 260.736 529.877 260.64 530.882C259.31 530.305 257.881 529.716 256.451 529.961C255.021 530.205 253.712 531.67 254.189 533.04C252.695 533.737 250.977 532.319 249.351 532.591C247.706 532.868 246.841 534.722 246.624 536.376C246.408 538.029 246.536 539.803 245.711 541.253L245.755 541.741C247.658 542.058 249.68 542.426 251.101 543.727C251.686 544.26 252.134 544.925 252.687 545.493C254.553 547.407 257.636 548.008 260.083 546.935C261.713 546.222 262.982 544.889 264.496 543.956C266.009 543.019 268.068 542.53 269.505 543.579C271.275 544.873 271.543 548.06 273.714 548.356C275.391 548.589 276.545 546.827 277.678 545.569C278.983 544.12 280.781 543.119 282.703 542.778C284.225 542.506 285.819 542.634 287.292 542.166C288.766 541.697 290.151 540.32 289.871 538.798C289.21 539.651 287.525 538.97 287.641 537.897C287.801 536.404 290.183 536.303 290.848 534.958C291.465 533.705 290.252 532.359 289.162 531.486Z" fill="#7FB239"/>
<path d="M332.778 526.677C331.981 525.872 330.772 525.348 330.471 524.255C330.347 523.806 330.403 523.326 330.423 522.861C330.611 518.336 326.519 514.084 321.99 514.1C322.106 514.624 322.218 515.145 322.334 515.669C320.308 515.133 317.986 516.082 316.917 517.884C313.297 516.734 309.681 515.585 306.061 514.436C305.62 514.296 305.128 514.16 304.715 514.364C304.239 514.6 304.071 515.185 303.806 515.645C302.953 517.135 300.999 517.451 299.35 517.928C297.7 518.404 295.862 519.734 296.258 521.404L295.75 522.845C295.017 525.832 297.496 529.172 300.567 529.34C301.872 529.412 303.146 528.996 304.423 528.743C306.377 528.359 308.399 528.343 310.357 528.699C310.69 528.759 311.046 528.844 311.27 529.1C312.139 530.077 310.017 531.502 310.522 532.712C310.722 533.188 311.262 533.409 311.755 533.565C314.906 534.55 318.29 534.786 321.546 534.241C322.767 534.037 324.064 533.669 324.837 532.7C325.562 531.791 325.738 530.449 326.683 529.773C328.293 528.623 330.719 530.269 332.465 529.34C333.599 529.292 333.575 527.482 332.778 526.677Z" fill="#7FB239"/>
<path d="M301.26 560.73C300.695 559.533 299.694 558.604 298.661 557.779C295.918 555.584 292.306 553.822 288.978 554.948C287.949 555.296 287.012 555.901 285.959 556.161C282.331 557.046 278.903 553.614 275.175 553.794C271.704 553.963 268.953 557.202 265.481 557.354C263.811 557.426 262.201 556.766 260.54 556.61C258.87 556.453 256.884 557.054 256.375 558.644C256.031 559.721 256.463 560.998 255.891 561.975C255.454 562.724 254.561 563.064 253.92 563.653C252.255 565.179 252.667 567.858 253.212 570.052L253.332 569.539C254.065 569.031 254.553 570.392 255.078 571.113C255.622 571.866 256.748 571.99 257.612 571.646C258.477 571.301 259.138 570.597 259.767 569.912C261.1 568.458 262.466 566.941 264.268 566.14C266.07 565.335 268.444 565.451 269.726 566.949C270.703 568.09 271.199 570.028 272.701 570.096C274.451 570.176 274.907 567.722 276.048 566.392C277.322 564.906 279.568 564.874 281.526 564.959C282.732 565.011 283.973 565.071 285.074 565.559C286.103 566.016 286.94 566.813 287.929 567.349C288.918 567.886 290.224 568.118 291.117 567.433C290.372 566.628 289.963 565.523 290.003 564.426C291.765 564.778 293.523 565.127 295.285 565.479C297.307 565.884 299.794 566.128 301.055 564.498C301.864 563.453 301.824 561.927 301.26 560.73Z" fill="#7FB239"/>
<path d="M347.353 547.4C345.495 548.389 343.145 547.852 341.387 546.695C339.629 545.542 338.303 543.856 336.854 542.33C336.281 541.726 335.653 541.125 334.856 540.877C333.682 540.512 332.437 540.997 331.22 541.141C327.248 541.613 322.971 538.526 319.471 540.468C317.717 541.441 316.276 543.616 314.322 543.167C313.473 542.971 312.824 542.294 312.039 541.918C310.746 541.297 309.208 541.541 307.843 541.978C305.164 542.835 302.713 544.392 300.807 546.459L301.251 547.264C300.487 547.312 299.77 547.808 299.458 548.509C301.504 548.693 303.121 550.883 302.701 552.894C302.569 553.53 302.265 554.139 302.285 554.788C302.333 556.453 304.271 557.258 305.808 557.891C307.903 558.752 309.833 560.017 311.462 561.591C311.827 561.943 312.191 562.336 312.319 562.832C312.624 564.026 311.438 565.139 311.487 566.368C311.539 567.726 313.124 568.579 314.474 568.422C315.823 568.27 316.98 567.441 318.146 566.741C319.928 565.667 321.862 564.838 323.868 564.286C324.216 564.19 324.589 564.102 324.933 564.21C325.269 564.31 325.53 564.582 325.85 564.722C326.811 565.151 327.832 564.354 328.657 563.705C329.482 563.053 330.791 562.54 331.472 563.345C330.503 566.32 333.494 569.796 336.582 569.271C335.985 568.058 337.21 566.753 338.372 566.06C339.533 565.367 340.946 564.506 340.898 563.153C340.846 561.671 339.128 560.966 337.947 560.069C336.261 558.796 335.408 556.509 335.849 554.443C335.933 554.051 336.073 553.646 336.377 553.382C336.854 552.978 337.555 553.042 338.175 553.114C340.79 553.414 343.441 553.39 346.052 553.046C346.685 552.962 347.341 552.846 347.842 552.453C349.303 551.304 348.378 548.965 347.353 547.4Z" fill="#7FB239"/>
</g>
<g clip-path="url(#clip5)">
<path d="M193.922 195.384C193.922 195.384 193.922 204.249 182.951 210.869C179.899 212.707 176.151 209.884 177.032 206.428C178.658 200.057 180.56 191.183 180.56 184.544C180.56 172.948 167.526 189.333 167.526 189.333L169.969 206.728C169.969 206.728 168.395 212.426 164.122 217.46C162.04 219.914 158.08 219.029 157.203 215.934C155.749 210.825 154.952 202.624 159.573 192.861C167.45 176.219 148.541 191.095 148.541 191.095C148.541 191.095 153.715 204.89 150.608 219.81C149.995 222.753 146.411 223.951 144.121 222.001C139.059 217.692 132.004 208.971 132.656 194.119C132.656 194.119 132.22 206.664 129.377 208.742C129.377 208.742 118.537 203.196 117.78 199.665C117.023 196.133 117.78 206.976 117.78 206.976C117.78 206.976 158.372 218.068 137.193 259.922H163.413C163.413 259.922 147.18 242.583 167.526 226.798C187.872 211.013 191.4 214.541 196.189 200.169C200.982 185.802 193.922 195.384 193.922 195.384Z" fill="#9A795F"/>
<path d="M122.65 203.369C124.187 203.136 125.757 203.088 127.307 203.232C126.854 201.35 129.917 199.921 131.067 201.475C132.472 203.373 130.638 207.137 132.869 207.913C134.17 208.366 135.335 207.069 136.465 206.284C138.014 205.211 140.141 205.034 141.846 205.839C141.902 204.694 141.958 203.549 142.015 202.404C143.08 202.448 144.149 202.492 145.214 202.536C145.238 201.523 145.258 200.513 145.282 199.5C150.568 200.133 154.236 206.936 159.465 205.935C160.158 205.803 160.863 205.527 161.552 205.683C162.188 205.823 162.681 206.304 163.217 206.668C165.704 208.366 169.1 207.665 171.859 206.452C174.614 205.239 177.289 203.549 180.3 203.405C182.602 203.292 185.433 203.905 186.795 202.047C187.183 201.515 187.384 200.83 187.896 200.417C189.386 199.212 191.244 201.238 192.617 202.576C195.036 204.93 198.688 205.403 202.059 205.479C203.809 205.519 205.627 205.471 207.189 204.682C208.751 203.893 209.964 202.159 209.616 200.449C209.243 198.639 207.321 196.753 208.478 195.312C210.48 196.237 213.055 195.732 214.557 194.115C212.975 190.859 215.634 186.398 219.25 186.238C220.207 186.198 221.192 186.402 222.113 186.134C223.034 185.866 223.843 184.825 223.402 183.976C222.838 182.89 220.812 183.047 220.587 181.845C220.423 180.964 221.428 180.372 221.901 179.611C222.774 178.201 221.536 176.243 219.943 175.803C218.349 175.362 216.659 175.971 215.158 176.668C214.829 173.448 212.314 170.569 209.167 169.812C211.137 168.939 212.006 166.216 210.905 164.366C209.804 162.516 206.997 161.976 205.291 163.285C205.972 161.467 205.531 159.281 204.206 157.863C202.88 156.446 200.73 155.865 198.868 156.418C198.275 153.663 197.683 150.904 197.09 148.149C196.87 147.12 196.626 146.043 195.945 145.238C194.291 143.284 190.987 143.84 189.001 142.219C188.489 141.798 188.016 141.213 187.351 141.177C186.242 141.117 185.61 142.607 184.512 142.771C183.896 142.863 183.315 142.511 182.735 142.283C180.668 141.458 178.069 142.315 176.896 144.205C176.452 142.523 174.506 141.674 172.768 141.654C171.03 141.634 169.324 142.187 167.586 142.223C164.807 142.279 162.172 141.017 159.409 140.709C156.646 140.401 153.255 141.622 152.814 144.369C152.606 145.65 153.058 147.144 152.226 148.137C151.709 148.754 150.86 148.95 150.135 149.298C148.65 150.015 147.585 151.533 147.416 153.17C146.451 152.474 145.454 151.737 144.914 150.676C144.373 149.615 144.461 148.133 145.43 147.444C145.927 147.092 146.563 146.996 147.1 146.707C148.453 145.983 148.862 144.269 149.13 142.755C149.194 142.387 149.258 141.986 149.09 141.65C148.906 141.282 148.502 141.089 148.125 140.921C146.259 140.1 144.397 139.283 142.531 138.462C140.725 137.67 138.19 137.073 137.133 138.739C136.793 139.279 136.701 139.972 136.264 140.441C135.415 141.342 133.786 140.913 132.809 141.69C131.719 142.555 132 144.449 130.931 145.342C130.354 145.826 129.537 145.883 128.868 146.223C127.839 146.751 127.247 148.017 127.507 149.146C127.767 150.275 128.852 151.16 130.014 151.184C131.043 151.204 131.984 150.624 132.993 150.407C134.002 150.191 135.335 150.584 135.459 151.609C135.576 152.57 134.498 153.282 133.529 153.319C132.564 153.351 131.623 152.974 130.658 152.942C127.791 152.854 124.844 155.757 122.421 154.22C121.536 153.659 120.94 152.57 119.907 152.414C118.109 152.141 117.332 154.72 115.722 155.565C114.116 156.406 111.49 155.653 110.845 157.347C110.693 157.747 110.721 158.188 110.673 158.612C110.416 160.923 108.082 162.36 105.956 163.297C104.134 164.102 102.24 164.827 100.694 166.08C99.1482 167.33 97.983 169.26 98.2272 171.234C98.4315 172.912 99.6167 174.449 99.3925 176.123C98.1992 176.596 96.9499 177.1 96.125 178.081C95.3001 179.062 95.0638 180.676 95.9728 181.585C97.4464 183.063 99.9891 181.489 102.015 181.973C102.155 182.682 102.292 183.391 102.432 184.1C104.326 184.24 106.224 184.38 108.118 184.52C108.222 185.169 108.322 185.822 108.426 186.47C109.928 184.612 113.007 185.894 115.246 185.049C116.423 184.604 117.284 183.591 118.361 182.939C119.438 182.286 121.072 182.138 121.765 183.187C119.578 185.493 116.831 187.259 113.828 188.292C111.986 188.925 109.996 189.313 108.454 190.507C106.913 191.7 106.044 194.083 107.241 195.616C106.008 195.548 104.762 195.668 103.565 195.981C103.413 197.358 103.581 198.768 104.046 200.073C106.2 199.713 108.51 201.082 109.235 203.14C109.531 203.981 109.584 204.894 109.912 205.719C110.777 207.905 113.404 208.959 115.746 208.746C118.089 208.534 120.211 207.349 122.253 206.188" fill="#8CC63E"/>
<path d="M154.432 163.097C152.89 161.864 151.345 160.63 149.803 159.397C149.374 159.052 148.906 158.696 148.357 158.672C147.905 158.652 147.484 158.868 147.056 159.008C144.461 159.865 141.802 158.099 139.123 157.567C135.267 156.802 131.427 158.632 127.923 160.41C127.022 160.866 126.005 161.487 125.909 162.492C124.58 161.916 123.15 161.327 121.721 161.571C120.291 161.815 118.982 163.281 119.458 164.651C117.964 165.347 116.247 163.93 114.621 164.202C112.975 164.478 112.11 166.332 111.894 167.986C111.678 169.64 111.806 171.414 110.981 172.863L111.025 173.352C112.927 173.668 114.949 174.037 116.371 175.338C116.955 175.871 117.404 176.535 117.956 177.104C119.823 179.018 122.906 179.619 125.352 178.546C126.982 177.833 128.252 176.499 129.765 175.566C131.279 174.629 133.337 174.141 134.775 175.19C136.545 176.483 136.813 179.671 138.983 179.967C140.661 180.199 141.814 178.437 142.947 177.18C144.253 175.73 146.051 174.729 147.973 174.389C149.495 174.117 151.088 174.245 152.562 173.776C154.035 173.308 155.421 171.93 155.141 170.409C154.48 171.262 152.794 170.581 152.91 169.508C153.07 168.014 155.453 167.914 156.118 166.569C156.734 165.315 155.521 163.97 154.432 163.097Z" fill="#7FB239"/>
<path d="M198.047 158.288C197.25 157.483 196.041 156.958 195.741 155.865C195.617 155.417 195.673 154.936 195.693 154.472C195.881 149.947 191.788 145.694 187.26 145.71C187.376 146.235 187.488 146.755 187.604 147.28C185.578 146.743 183.255 147.692 182.186 149.494C178.566 148.345 174.95 147.196 171.33 146.047C170.89 145.906 170.397 145.77 169.985 145.975C169.508 146.211 169.34 146.795 169.076 147.256C168.223 148.746 166.269 149.062 164.619 149.538C162.969 150.015 161.131 151.344 161.528 153.014L161.019 154.456C160.286 157.443 162.765 160.783 165.836 160.951C167.142 161.023 168.415 160.606 169.693 160.354C171.647 159.97 173.669 159.954 175.627 160.31C175.959 160.37 176.316 160.454 176.54 160.71C177.409 161.687 175.287 163.113 175.791 164.322C175.991 164.799 176.532 165.019 177.025 165.175C180.176 166.16 183.56 166.397 186.815 165.852C188.036 165.648 189.334 165.279 190.107 164.31C190.831 163.401 191.008 162.06 191.953 161.383C193.562 160.234 195.989 161.88 197.735 160.951C198.868 160.903 198.844 159.093 198.047 158.288Z" fill="#7FB239"/>
<path d="M166.529 192.341C165.965 191.143 164.963 190.214 163.93 189.389C161.187 187.195 157.575 185.433 154.248 186.558C153.219 186.907 152.282 187.511 151.229 187.772C147.601 188.657 144.173 185.225 140.445 185.405C136.973 185.573 134.222 188.813 130.75 188.965C129.081 189.037 127.471 188.376 125.809 188.22C124.139 188.064 122.153 188.665 121.645 190.254C121.3 191.331 121.733 192.609 121.16 193.586C120.724 194.335 119.831 194.675 119.19 195.264C117.524 196.789 117.937 199.468 118.481 201.663L118.601 201.15C119.334 200.642 119.823 202.003 120.347 202.724C120.892 203.477 122.017 203.601 122.882 203.256C123.747 202.912 124.408 202.207 125.036 201.522C126.37 200.069 127.735 198.551 129.537 197.75C131.339 196.946 133.714 197.062 134.995 198.559C135.972 199.701 136.469 201.639 137.97 201.707C139.72 201.787 140.177 199.332 141.318 198.003C142.591 196.517 144.838 196.485 146.796 196.569C148.001 196.621 149.242 196.681 150.344 197.17C151.373 197.626 152.21 198.423 153.199 198.96C154.188 199.496 155.493 199.729 156.386 199.044C155.641 198.239 155.233 197.134 155.273 196.037C157.035 196.389 158.793 196.737 160.555 197.09C162.577 197.494 165.064 197.738 166.325 196.109C167.134 195.064 167.094 193.538 166.529 192.341Z" fill="#7FB239"/>
<path d="M212.623 179.01C210.765 179.999 208.414 179.463 206.656 178.305C204.898 177.152 203.573 175.466 202.123 173.941C201.551 173.336 200.922 172.735 200.125 172.487C198.952 172.123 197.707 172.607 196.489 172.751C192.517 173.224 188.24 170.137 184.741 172.079C182.987 173.052 181.545 175.226 179.591 174.778C178.742 174.581 178.093 173.905 177.309 173.528C176.015 172.908 174.478 173.152 173.112 173.588C170.433 174.445 167.983 176.003 166.077 178.069L166.521 178.874C165.756 178.922 165.039 179.419 164.727 180.119C166.773 180.304 168.391 182.494 167.971 184.504C167.838 185.141 167.534 185.75 167.554 186.398C167.602 188.064 169.54 188.869 171.078 189.502C173.172 190.363 175.102 191.628 176.732 193.202C177.096 193.554 177.461 193.946 177.589 194.443C177.893 195.636 176.708 196.749 176.756 197.979C176.808 199.336 178.394 200.189 179.743 200.033C181.093 199.881 182.25 199.052 183.415 198.351C185.197 197.278 187.131 196.449 189.137 195.896C189.486 195.8 189.858 195.712 190.203 195.82C190.539 195.921 190.799 196.193 191.12 196.333C192.081 196.761 193.102 195.965 193.927 195.316C194.751 194.663 196.061 194.151 196.742 194.955C195.773 197.931 198.764 201.406 201.851 200.882C201.254 199.669 202.48 198.363 203.641 197.67C204.802 196.978 206.216 196.117 206.168 194.763C206.116 193.282 204.398 192.577 203.217 191.68C201.531 190.407 200.678 188.12 201.118 186.054C201.202 185.661 201.343 185.257 201.647 184.993C202.123 184.588 202.824 184.652 203.445 184.724C206.06 185.025 208.711 185.001 211.321 184.656C211.954 184.572 212.611 184.456 213.111 184.064C214.573 182.914 213.648 180.576 212.623 179.01Z" fill="#7FB239"/>
</g>
<g clip-path="url(#clip6)">
<path d="M520.31 132.924V136.141C520.31 136.141 519.284 137.949 518.605 138.231H506.3L505.397 137.949L505 138.853H474.292L474.21 138.824L472.824 138.344L462.382 139.698C462.382 139.698 462.051 139.683 461.577 139.621C460.247 139.448 457.792 138.909 458.373 137.327C458.373 137.327 457.819 134.327 458.373 132.586C458.373 132.586 458.542 130.158 460.63 129.31C462.72 128.465 468.872 126.826 472.259 126.32C472.259 126.32 475.25 125.417 476.549 124.231C476.549 124.231 479.478 122.042 483.096 120.456C485.046 119.602 487.131 119.099 489.25 118.901C493.35 118.516 502.261 117.923 507.933 119.318C512.752 120.506 515.946 123.228 517.628 125.047C518.551 126.046 519.054 127.351 519.054 128.711V129.932L519.449 131.344C519.451 131.344 520.31 131.964 520.31 132.924Z" fill="#E14B4B"/>
<path d="M474.236 138.25C474.236 138.443 474.228 138.635 474.21 138.824L472.824 138.343L462.382 139.698C462.382 139.698 462.051 139.683 461.577 139.621C461.48 139.179 461.429 138.721 461.429 138.25C461.429 134.714 464.296 131.847 467.832 131.847C471.368 131.847 474.236 134.714 474.236 138.25Z" fill="#2E3235"/>
<path d="M467.832 143.483C470.722 143.483 473.065 141.14 473.065 138.25C473.065 135.36 470.722 133.017 467.832 133.017C464.942 133.017 462.599 135.36 462.599 138.25C462.599 141.14 464.942 143.483 467.832 143.483Z" fill="#3E4347"/>
<path d="M505.274 138.227L505.396 137.947L506.3 138.229H518.079C518.067 134.703 515.205 131.847 511.677 131.847C508.147 131.847 505.286 134.703 505.274 138.227Z" fill="#2E3235"/>
<path d="M511.675 143.483C514.566 143.483 516.908 141.14 516.908 138.25C516.908 135.36 514.566 133.017 511.675 133.017C508.785 133.017 506.442 135.36 506.442 138.25C506.442 141.14 508.785 143.483 511.675 143.483Z" fill="#3E4347"/>
<path d="M493.057 120.118C491.97 120.155 491.282 120.192 491.268 120.193L491.229 120.195H491.19C491.082 120.192 490.973 120.192 490.864 120.192C486.119 120.192 481.391 123.01 478.994 124.69C477.912 125.448 477.06 126.515 476.566 127.72L491.688 126.513L493.057 120.118Z" fill="#3E4347"/>
<path d="M507.183 121.064C505.681 120.407 502.102 120.046 497.09 120.046C496.503 120.046 495.934 120.051 495.397 120.059L494.853 126.258L509.839 125.063C509.887 124.783 509.928 124.517 509.957 124.274L509.959 124.254L509.963 124.235C510.121 123.317 508.414 121.815 507.183 121.064Z" fill="#3E4347"/>
<path d="M459.466 131.637C459.466 131.637 461.548 129.213 463.88 129.396C464.448 129.441 466.145 130.201 463.491 131.637C462.661 132.086 461.029 132.351 459.786 132.37C458.779 132.384 459.466 131.637 459.466 131.637Z" fill="#FFD83B"/>
<path d="M519.056 129.932V128.712C519.056 128.185 518.959 127.673 518.813 127.178C517.974 127.073 516.922 127.02 516.58 127.362C516.125 127.817 516.125 129.481 516.58 129.936C516.961 130.317 518.232 130.21 519.097 130.084L519.056 129.932Z" fill="#FFD83B"/>
<path d="M467.833 141.744C469.762 141.744 471.326 140.18 471.326 138.25C471.326 136.321 469.762 134.757 467.833 134.757C465.903 134.757 464.339 136.321 464.339 138.25C464.339 140.18 465.903 141.744 467.833 141.744Z" fill="#CBD6E0"/>
<path d="M467.832 141.1C469.406 141.1 470.682 139.824 470.682 138.25C470.682 136.677 469.406 135.401 467.832 135.401C466.258 135.401 464.982 136.677 464.982 138.25C464.982 139.824 466.258 141.1 467.832 141.1Z" fill="#939799"/>
<path d="M467.833 140.301C468.965 140.301 469.883 139.383 469.883 138.25C469.883 137.118 468.965 136.199 467.833 136.199C466.7 136.199 465.782 137.118 465.782 138.25C465.782 139.383 466.7 140.301 467.833 140.301Z" fill="#CBD6E0"/>
<path d="M511.676 141.744C513.605 141.744 515.169 140.18 515.169 138.25C515.169 136.321 513.605 134.757 511.676 134.757C509.747 134.757 508.183 136.321 508.183 138.25C508.183 140.18 509.747 141.744 511.676 141.744Z" fill="#CBD6E0"/>
<path d="M511.675 141.1C513.249 141.1 514.525 139.824 514.525 138.25C514.525 136.677 513.249 135.401 511.675 135.401C510.102 135.401 508.826 136.677 508.826 138.25C508.826 139.824 510.102 141.1 511.675 141.1Z" fill="#939799"/>
<path d="M511.675 140.301C512.808 140.301 513.726 139.383 513.726 138.25C513.726 137.118 512.808 136.199 511.675 136.199C510.543 136.199 509.625 137.118 509.625 138.25C509.625 139.383 510.543 140.301 511.675 140.301Z" fill="#CBD6E0"/>
<path d="M480.103 127.436L483.285 127.182L487.287 120.674C485.895 121.031 484.575 121.558 483.361 122.139L480.103 127.436Z" fill="#5A5F63"/>
<path d="M484.406 127.092L486.066 126.96L490.201 120.236C489.631 120.267 489.066 120.329 488.504 120.429L484.406 127.092Z" fill="#5A5F63"/>
<path d="M495.718 126.19L498.9 125.936L502.413 120.222C501.527 120.156 500.543 120.108 499.474 120.081L495.718 126.19Z" fill="#5A5F63"/>
<path d="M500.02 125.846L501.68 125.714L504.89 120.495C504.442 120.425 503.962 120.361 503.426 120.308L500.02 125.846Z" fill="#5A5F63"/>
</g>
<g clip-path="url(#clip7)">
<path d="M928.816 113.415C928.816 113.415 928.816 122.281 917.845 128.9C914.793 130.738 911.045 127.915 911.926 124.459C913.552 118.088 915.454 109.215 915.454 102.575C915.454 90.9789 902.42 107.365 902.42 107.365L904.863 124.759C904.863 124.759 903.289 130.458 899.016 135.491C896.934 137.946 892.974 137.061 892.097 133.965C890.643 128.856 889.846 120.655 894.467 110.892C902.344 94.2505 883.435 109.127 883.435 109.127C883.435 109.127 888.609 122.921 885.502 137.842C884.889 140.785 881.305 141.982 879.015 140.032C873.953 135.723 866.898 127.002 867.55 112.15C867.55 112.15 867.114 124.695 864.271 126.774C864.271 126.774 853.431 121.228 852.674 117.696C851.917 114.164 852.674 125.008 852.674 125.008C852.674 125.008 893.266 136.1 872.087 177.953H898.308C898.308 177.953 882.074 160.614 902.42 144.829C922.766 129.044 926.294 132.572 931.083 118.2C935.876 103.833 928.816 113.415 928.816 113.415Z" fill="#9A795F"/>
<path d="M857.544 121.4C859.081 121.168 860.651 121.12 862.201 121.264C861.748 119.382 864.812 117.952 865.961 119.506C867.366 121.404 865.532 125.168 867.763 125.945C869.064 126.397 870.229 125.1 871.359 124.315C872.908 123.242 875.035 123.066 876.74 123.87C876.796 122.725 876.853 121.58 876.909 120.435C877.974 120.479 879.043 120.523 880.108 120.567C880.132 119.554 880.152 118.545 880.176 117.532C885.462 118.164 889.13 124.968 894.359 123.967C895.052 123.834 895.757 123.558 896.446 123.714C897.082 123.854 897.575 124.335 898.111 124.699C900.598 126.397 903.994 125.696 906.753 124.483C909.508 123.27 912.183 121.58 915.194 121.436C917.496 121.324 920.327 121.936 921.689 120.078C922.077 119.546 922.278 118.861 922.79 118.449C924.28 117.243 926.138 119.27 927.511 120.607C929.93 122.962 933.582 123.434 936.953 123.51C938.703 123.55 940.521 123.502 942.083 122.713C943.645 121.924 944.858 120.191 944.51 118.481C944.137 116.671 942.215 114.785 943.372 113.343C945.375 114.268 947.949 113.764 949.451 112.146C947.869 108.89 950.528 104.43 954.144 104.269C955.101 104.229 956.086 104.434 957.007 104.165C957.928 103.897 958.737 102.856 958.296 102.007C957.732 100.922 955.706 101.078 955.481 99.8766C955.317 98.9956 956.322 98.403 956.795 97.6422C957.668 96.2327 956.43 94.2745 954.837 93.8341C953.243 93.3936 951.553 94.0022 950.052 94.699C949.723 91.4795 947.208 88.6004 944.061 87.8436C946.031 86.9707 946.9 84.2477 945.799 82.3977C944.698 80.5477 941.891 80.0071 940.185 81.3165C940.866 79.4986 940.425 77.3122 939.1 75.8947C937.774 74.4772 935.624 73.8965 933.762 74.4491C933.169 71.6942 932.577 68.9352 931.984 66.1802C931.764 65.1511 931.52 64.0739 930.839 63.2691C929.185 61.315 925.881 61.8716 923.895 60.2498C923.383 59.8293 922.91 59.2447 922.246 59.2087C921.136 59.1486 920.504 60.6382 919.406 60.8024C918.79 60.8945 918.209 60.5421 917.629 60.3139C915.562 59.489 912.964 60.3459 911.79 62.2359C911.346 60.5541 909.4 59.7052 907.662 59.6852C905.924 59.6652 904.218 60.2178 902.48 60.2538C899.701 60.3099 897.066 59.0485 894.303 58.7402C891.54 58.4318 888.149 59.6532 887.708 62.4001C887.5 63.6815 887.952 65.1751 887.12 66.1682C886.603 66.7849 885.754 66.9811 885.029 67.3294C883.544 68.0462 882.479 69.5639 882.31 71.2016C881.345 70.5049 880.348 69.7681 879.808 68.7069C879.267 67.6458 879.355 66.1642 880.324 65.4754C880.821 65.1231 881.457 65.027 881.994 64.7386C883.348 64.0139 883.756 62.3 884.024 60.7864C884.088 60.418 884.152 60.0176 883.984 59.6812C883.8 59.3128 883.396 59.1206 883.019 58.9524C881.153 58.1315 879.291 57.3146 877.425 56.4937C875.619 55.7009 873.084 55.1042 872.027 56.77C871.687 57.3106 871.595 58.0034 871.158 58.4719C870.309 59.3729 868.68 58.9444 867.703 59.7212C866.613 60.5862 866.894 62.4802 865.825 63.3732C865.248 63.8577 864.431 63.9138 863.762 64.2541C862.733 64.7827 862.141 66.0481 862.401 67.1773C862.661 68.3065 863.746 69.1915 864.908 69.2155C865.937 69.2355 866.878 68.6549 867.887 68.4386C868.896 68.2224 870.229 68.6148 870.353 69.6399C870.47 70.601 869.392 71.3137 868.423 71.3498C867.458 71.3818 866.517 71.0054 865.552 70.9734C862.685 70.8853 859.738 73.7884 857.315 72.2508C856.43 71.6902 855.834 70.601 854.801 70.4448C853.003 70.1725 852.226 72.7513 850.616 73.5962C849.01 74.4371 846.384 73.6843 845.739 75.3781C845.587 75.7786 845.615 76.219 845.567 76.6435C845.31 78.954 842.976 80.3915 840.85 81.3286C839.028 82.1334 837.134 82.8582 835.588 84.1116C834.042 85.3609 832.877 87.291 833.121 89.2651C833.326 90.9429 834.511 92.4806 834.287 94.1544C833.093 94.6269 831.844 95.1315 831.019 96.1125C830.194 97.0936 829.958 98.7073 830.867 99.6163C832.34 101.094 834.883 99.5202 836.909 100.005C837.05 100.713 837.186 101.422 837.326 102.131C839.22 102.271 841.118 102.411 843.012 102.551C843.116 103.2 843.216 103.853 843.32 104.502C844.822 102.644 847.901 103.925 850.14 103.08C851.317 102.636 852.178 101.622 853.255 100.97C854.332 100.317 855.966 100.169 856.659 101.218C854.472 103.525 851.725 105.29 848.722 106.324C846.88 106.956 844.89 107.345 843.348 108.538C841.807 109.731 840.938 112.114 842.135 113.647C840.902 113.579 839.656 113.7 838.459 114.012C838.307 115.389 838.475 116.799 838.94 118.104C841.094 117.744 843.404 119.113 844.129 121.172C844.425 122.012 844.478 122.925 844.806 123.75C845.671 125.937 848.298 126.99 850.64 126.778C852.983 126.565 855.105 125.38 857.147 124.219" fill="#8CC63E"/>
<path d="M889.326 81.1281C887.784 79.8948 886.239 78.6614 884.697 77.4281C884.268 77.0837 883.8 76.7273 883.251 76.7033C882.799 76.6833 882.378 76.8995 881.95 77.0397C879.355 77.8966 876.696 76.1307 874.017 75.5981C870.161 74.8333 866.321 76.6633 862.817 78.4412C861.916 78.8977 860.899 79.5183 860.803 80.5234C859.474 79.9468 858.044 79.3582 856.615 79.6024C855.185 79.8467 853.876 81.3123 854.352 82.6818C852.859 83.3785 851.141 81.961 849.515 82.2333C847.869 82.5096 847.004 84.3636 846.788 86.0174C846.572 87.6712 846.7 89.4451 845.875 90.8946L845.919 91.3832C847.821 91.6995 849.843 92.0679 851.265 93.3693C851.849 93.9019 852.298 94.5666 852.851 95.1352C854.717 97.0493 857.8 97.6499 860.247 96.5768C861.876 95.864 863.146 94.5306 864.659 93.5976C866.173 92.6605 868.231 92.172 869.669 93.2211C871.439 94.5145 871.707 97.702 873.877 97.9983C875.555 98.2306 876.708 96.4687 877.842 95.2113C879.147 93.7617 880.945 92.7606 882.867 92.4203C884.389 92.148 885.982 92.2761 887.456 91.8076C888.929 91.3391 890.315 89.9616 890.035 88.44C889.374 89.2929 887.688 88.6122 887.804 87.539C887.964 86.0454 890.347 85.9453 891.012 84.5998C891.628 83.3465 890.415 82.001 889.326 81.1281Z" fill="#7FB239"/>
<path d="M932.941 76.3191C932.144 75.5142 930.935 74.9896 930.635 73.8965C930.511 73.448 930.567 72.9675 930.587 72.503C930.775 67.9781 926.683 63.7255 922.154 63.7415C922.27 64.2661 922.382 64.7866 922.498 65.3112C920.472 64.7746 918.149 65.7236 917.08 67.5256C913.46 66.3763 909.844 65.2271 906.224 64.0779C905.784 63.9377 905.291 63.8016 904.879 64.0058C904.402 64.242 904.234 64.8267 903.97 65.2872C903.117 66.7768 901.163 67.0931 899.513 67.5696C897.863 68.0461 896.025 69.3756 896.422 71.0454L895.913 72.4869C895.18 75.4742 897.659 78.8138 900.73 78.982C902.036 79.054 903.309 78.6376 904.587 78.3853C906.541 78.0009 908.563 77.9849 910.521 78.3413C910.853 78.4013 911.21 78.4854 911.434 78.7417C912.303 79.7187 910.181 81.1443 910.685 82.3536C910.885 82.8301 911.426 83.0503 911.919 83.2065C915.07 84.1916 918.454 84.4278 921.709 83.8832C922.93 83.679 924.228 83.3106 925.001 82.3416C925.725 81.4326 925.902 80.0912 926.847 79.4144C928.456 78.2652 930.883 79.911 932.629 78.982C933.762 78.9339 933.738 77.1239 932.941 76.3191Z" fill="#7FB239"/>
<path d="M901.423 110.372C900.859 109.175 899.857 108.246 898.824 107.421C896.081 105.226 892.469 103.464 889.142 104.59C888.113 104.938 887.176 105.543 886.123 105.803C882.495 106.688 879.067 103.256 875.339 103.436C871.867 103.604 869.116 106.844 865.645 106.996C863.975 107.068 862.365 106.408 860.703 106.251C859.033 106.095 857.047 106.696 856.539 108.286C856.194 109.363 856.627 110.64 856.054 111.617C855.618 112.366 854.725 112.706 854.084 113.295C852.418 114.821 852.831 117.5 853.375 119.694L853.495 119.181C854.228 118.673 854.717 120.034 855.241 120.755C855.786 121.508 856.911 121.632 857.776 121.288C858.641 120.943 859.302 120.238 859.93 119.554C861.264 118.1 862.629 116.583 864.431 115.782C866.233 114.977 868.608 115.093 869.889 116.591C870.866 117.732 871.363 119.67 872.864 119.738C874.614 119.818 875.071 117.363 876.212 116.034C877.485 114.548 879.732 114.516 881.69 114.6C882.895 114.652 884.136 114.713 885.238 115.201C886.267 115.658 887.104 116.454 888.093 116.991C889.082 117.528 890.387 117.76 891.28 117.075C890.535 116.27 890.127 115.165 890.167 114.068C891.929 114.42 893.687 114.769 895.449 115.121C897.471 115.525 899.958 115.77 901.219 114.14C902.028 113.095 901.988 111.569 901.423 110.372Z" fill="#7FB239"/>
<path d="M947.517 97.0415C945.659 98.0306 943.308 97.494 941.55 96.3367C939.792 95.1835 938.467 93.4977 937.017 91.972C936.445 91.3674 935.816 90.7667 935.019 90.5184C933.846 90.1541 932.601 90.6386 931.383 90.7827C927.411 91.2552 923.134 88.1679 919.635 90.11C917.881 91.0831 916.439 93.2574 914.485 92.8089C913.636 92.6127 912.988 91.936 912.203 91.5596C910.909 90.9389 909.372 91.1832 908.006 91.6196C905.327 92.4766 902.877 94.0342 900.971 96.1005L901.415 96.9053C900.65 96.9534 899.933 97.4499 899.621 98.1507C901.667 98.3349 903.285 100.525 902.865 102.535C902.732 103.172 902.428 103.781 902.448 104.429C902.496 106.095 904.434 106.9 905.972 107.533C908.066 108.394 909.996 109.659 911.626 111.233C911.99 111.585 912.355 111.978 912.483 112.474C912.787 113.667 911.602 114.781 911.65 116.01C911.702 117.367 913.288 118.22 914.637 118.064C915.987 117.912 917.144 117.083 918.309 116.382C920.091 115.309 922.025 114.48 924.031 113.928C924.38 113.832 924.752 113.744 925.097 113.852C925.433 113.952 925.693 114.224 926.014 114.364C926.975 114.793 927.996 113.996 928.821 113.347C929.646 112.694 930.955 112.182 931.636 112.987C930.667 115.962 933.658 119.438 936.745 118.913C936.149 117.7 937.374 116.394 938.535 115.702C939.696 115.009 941.11 114.148 941.062 112.795C941.01 111.313 939.292 110.608 938.111 109.711C936.425 108.438 935.572 106.151 936.012 104.085C936.096 103.693 936.237 103.288 936.541 103.024C937.017 102.62 937.718 102.684 938.339 102.756C940.954 103.056 943.605 103.032 946.215 102.688C946.848 102.604 947.505 102.487 948.005 102.095C949.467 100.946 948.542 98.6072 947.517 97.0415Z" fill="#7FB239"/>
</g>
<defs>
<filter id="filter0_d" x="18.5542" y="41.4556" width="995.975" height="617.337" filterUnits="userSpaceOnUse" color-interpolation-filters="sRGB">
<feFlood flood-opacity="0" result="BackgroundImageFix"/>
<feColorMatrix in="SourceAlpha" type="matrix" values="0 0 0 0 0 0 0 0 0 0 0 0 0 0 0 0 0 0 127 0"/>
<feOffset dy="11"/>
<feGaussianBlur stdDeviation="4.5"/>
<feColorMatrix type="matrix" values="0 0 0 0 0 0 0 0 0 0 0 0 0 0 0 0 0 0 0.13 0"/>
<feBlend mode="normal" in2="BackgroundImageFix" result="effect1_dropShadow"/>
<feBlend mode="normal" in="SourceGraphic" in2="effect1_dropShadow" result="shape"/>
</filter>
<filter id="filter1_d" x="876.7" y="553.997" width="107.96" height="80.7995" filterUnits="userSpaceOnUse" color-interpolation-filters="sRGB">
<feFlood flood-opacity="0" result="BackgroundImageFix"/>
<feColorMatrix in="SourceAlpha" type="matrix" values="0 0 0 0 0 0 0 0 0 0 0 0 0 0 0 0 0 0 127 0"/>
<feOffset dx="-8" dy="4"/>
<feGaussianBlur stdDeviation="2"/>
<feColorMatrix type="matrix" values="0 0 0 0 0 0 0 0 0 0 0 0 0 0 0 0 0 0 0.25 0"/>
<feBlend mode="normal" in2="BackgroundImageFix" result="effect1_dropShadow"/>
<feBlend mode="normal" in="SourceGraphic" in2="effect1_dropShadow" result="shape"/>
</filter>
<filter id="filter2_d" x="47.3398" y="46.7039" width="110.96" height="86.7995" filterUnits="userSpaceOnUse" color-interpolation-filters="sRGB">
<feFlood flood-opacity="0" result="BackgroundImageFix"/>
<feColorMatrix in="SourceAlpha" type="matrix" values="0 0 0 0 0 0 0 0 0 0 0 0 0 0 0 0 0 0 127 0"/>
<feOffset dx="8"/>
<feGaussianBlur stdDeviation="3.5"/>
<feColorMatrix type="matrix" values="0 0 0 0 0 0 0 0 0 0 0 0 0 0 0 0 0 0 0.25 0"/>
<feBlend mode="normal" in2="BackgroundImageFix" result="effect1_dropShadow"/>
<feBlend mode="normal" in="SourceGraphic" in2="effect1_dropShadow" result="shape"/>
</filter>
<filter id="filter3_d" x="0" y="549.286" width="126.714" height="126.714" filterUnits="userSpaceOnUse" color-interpolation-filters="sRGB">
<feFlood flood-opacity="0" result="BackgroundImageFix"/>
<feColorMatrix in="SourceAlpha" type="matrix" values="0 0 0 0 0 0 0 0 0 0 0 0 0 0 0 0 0 0 127 0"/>
<feOffset dy="4"/>
<feGaussianBlur stdDeviation="2"/>
<feColorMatrix type="matrix" values="0 0 0 0 0 0 0 0 0 0 0 0 0 0 0 0 0 0 0.25 0"/>
<feBlend mode="normal" in2="BackgroundImageFix" result="effect1_dropShadow"/>
<feBlend mode="normal" in="SourceGraphic" in2="effect1_dropShadow" result="shape"/>
</filter>
<filter id="filter4_d" x="926.155" y="-0.000244141" width="131.326" height="176.472" filterUnits="userSpaceOnUse" color-interpolation-filters="sRGB">
<feFlood flood-opacity="0" result="BackgroundImageFix"/>
<feColorMatrix in="SourceAlpha" type="matrix" values="0 0 0 0 0 0 0 0 0 0 0 0 0 0 0 0 0 0 127 0"/>
<feOffset dy="4"/>
<feGaussianBlur stdDeviation="2"/>
<feColorMatrix type="matrix" values="0 0 0 0 0 0 0 0 0 0 0 0 0 0 0 0 0 0 0.25 0"/>
<feBlend mode="normal" in2="BackgroundImageFix" result="effect1_dropShadow"/>
<feBlend mode="normal" in="SourceGraphic" in2="effect1_dropShadow" result="shape"/>
</filter>
<clipPath id="clip0">
<rect x="452.474" y="469.202" width="97.9859" height="97.9859" fill="white"/>
</clipPath>
<clipPath id="clip1">
<rect x="658.81" y="109.292" width="97.9859" height="97.9859" fill="white"/>
</clipPath>
<clipPath id="clip2">
<rect x="174.533" y="302.437" width="97.9859" height="97.9859" fill="white"/>
</clipPath>
<clipPath id="clip3">
<rect x="92.564" y="367.447" width="74.4316" height="74.4316" transform="rotate(-90 92.564 367.447)" fill="white"/>
</clipPath>
<clipPath id="clip4">
<rect x="230.121" y="503.12" width="128.135" height="128.135" fill="white"/>
</clipPath>
<clipPath id="clip5">
<rect x="95.3906" y="134.73" width="128.135" height="128.135" fill="white"/>
</clipPath>
<clipPath id="clip6">
<rect x="458.127" y="99.8701" width="62.1833" height="62.1833" fill="white"/>
</clipPath>
<clipPath id="clip7">
<rect x="830.285" y="52.7617" width="128.135" height="128.135" fill="white"/>
</clipPath>
</defs>
</svg>
