<svg width="244" height="244" viewBox="0 0 244 244" fill="none" xmlns="http://www.w3.org/2000/svg">
<g clip-path="url(#clip0)">
<path d="M154.434 85.0485C158.309 85.0485 161.451 81.9071 161.451 78.0321C161.451 74.157 158.309 71.0156 154.434 71.0156C150.559 71.0156 147.418 74.157 147.418 78.0321C147.418 81.9071 150.559 85.0485 154.434 85.0485Z" fill="#6EDCF9"/>
<path d="M30.9088 163.27C34.1748 163.27 36.8224 160.622 36.8224 157.356C36.8224 154.09 34.1748 151.442 30.9088 151.442C27.6428 151.442 24.9951 154.09 24.9951 157.356C24.9951 160.622 27.6428 163.27 30.9088 163.27Z" fill="#8DD83D"/>
<path d="M135.044 17.1L119.965 14.9093L113.221 1.24526C112.845 0.482758 112.068 0 111.218 0C110.368 0 109.592 0.482281 109.215 1.24526L102.472 14.9093L87.392 17.1C85.5648 17.3655 84.8309 19.6196 86.1543 20.9097L97.0657 31.5461L94.4894 46.5649C94.1777 48.3849 96.095 49.7808 97.73 48.9191L111.218 41.8288C125.91 49.5525 124.987 49.1765 125.744 49.1765C126.208 49.1765 126.668 49.0326 127.058 48.7495C127.745 48.2496 128.09 47.4032 127.946 46.5654L125.37 31.5465L136.281 20.9101C137.604 19.622 136.874 17.3664 135.044 17.1Z" fill="#FFA92C"/>
<path d="M110.08 35.4863L99.1688 24.8499C97.8468 23.5613 98.5774 21.3062 100.406 21.0402L115.486 18.8495L118.697 12.343L113.22 1.24526C112.844 0.482758 112.067 0 111.217 0C110.368 0 109.591 0.482281 109.214 1.24526L102.471 14.9093L87.391 17.1C85.5639 17.3655 84.83 19.6196 86.1534 20.9097L97.0647 31.5461L94.4885 46.5649C94.1768 48.3849 96.094 49.7808 97.7291 48.9191L108.771 43.1146L110.08 35.4863Z" fill="#FF8828"/>
<path d="M220.546 89.0955L211.47 80.0909L213.743 67.5101C214.018 65.9851 212.421 64.8013 211.041 65.5104L199.673 71.3588L188.411 65.3098C187.046 64.5778 185.426 65.7301 185.674 67.2613L187.724 79.8802L178.49 88.7224C177.371 89.7946 177.968 91.6923 179.501 91.9277L192.136 93.8783L197.693 105.392C197.826 105.671 198.024 105.906 198.264 106.084C199.198 106.775 200.53 106.457 201.054 105.422L206.813 94.0084L219.48 92.2813C221.015 92.074 221.646 90.1878 220.546 89.0955Z" fill="#FFA92C"/>
<path d="M194.353 88.8444L192.304 76.2255C192.056 74.6962 193.673 73.541 195.04 74.274L206.303 80.323L211.952 77.4164L213.742 67.5111C214.017 65.9861 212.42 64.8023 211.04 65.5114L199.672 71.3598L188.41 65.3108C187.045 64.5788 185.425 65.7311 185.673 67.2623L187.723 79.8812L178.489 88.7234C177.37 89.7956 177.967 91.6933 179.5 91.9287L189.518 93.4756L194.353 88.8444Z" fill="#FF8828"/>
<path d="M91.014 224.77C91.014 224.77 83.5986 163.058 62.2663 128.399C59.3869 124.033 54.84 121.814 48.944 124.939L48.9387 124.942C42.6028 128.304 46.0779 135.042 46.0779 135.042L46.0774 135.042C55.8598 147.194 77.5997 177.876 91.014 224.77Z" fill="#E8C018"/>
<path d="M209.286 180.27L209.287 180.27C210.034 179.815 210.755 179.383 211.451 178.972C214.107 177.063 217.833 173.099 214.154 167.42C209.84 160.761 202.364 165.352 201.184 166.137C162.459 193.973 141.014 244 141.014 244C165.375 210.268 193.087 190.137 209.286 180.27Z" fill="#F2D422"/>
<path d="M35.8221 183.62C34.4916 182.66 27.6276 178.131 24.0158 183.955C21.7864 187.55 23.0121 190.744 26.684 192.951C26.6845 192.952 26.6879 192.953 26.6879 192.953C39.4736 200.658 61.9049 216.745 81.5893 244C81.5893 244 65.3028 206.007 35.8221 183.62Z" fill="#E8C018"/>
<path d="M71.153 93.4756C71.4471 92.5982 71.2226 92.6678 65.4762 86.9667C66.9307 78.9157 67.1328 78.9257 66.395 78.3791C65.6521 77.8291 65.6521 78.0621 58.4503 81.7669C51.2461 77.8982 51.3147 77.7062 50.5665 78.2394C49.814 78.7784 50.0361 78.8504 51.3333 86.8419L45.8347 92.1079C45.168 92.7455 45.523 93.8759 46.4366 94.017L53.9611 95.1788C57.5148 102.543 57.3437 102.658 58.2649 102.667C59.1904 102.674 59.0531 102.486 62.7012 95.256L70.2447 94.2281C70.666 94.17 71.0182 93.8788 71.153 93.4756Z" fill="#EA473B"/>
<path d="M61.4519 93.0908C53.3703 91.8431 53.3088 92.038 53.0329 91.1616C52.7555 90.2791 52.9752 90.3558 58.8241 84.7543L58.328 81.7005C51.2691 77.9099 51.3149 77.7054 50.5672 78.2387C49.8147 78.7777 50.0368 78.8497 51.334 86.8411C45.4284 92.497 45.2673 92.3721 45.5428 93.2485C45.8206 94.1306 45.9583 93.9419 53.9617 95.1776C57.4068 102.317 57.251 102.18 57.6108 102.447C58.1683 102.858 58.9613 102.668 59.2716 102.053L62.5966 95.4636L61.4519 93.0908Z" fill="#D63322"/>
<path d="M120.917 67.8154L120.911 67.8125C112.293 63.2819 110.611 63.0369 101.523 67.814L101.521 67.8149C93.7031 71.9248 93.8384 77.7217 94.029 79.2658C98.5416 107.181 107.048 163.917 111.218 218.534C115.374 164.1 123.838 107.561 128.362 79.5479C128.873 76.3568 129.44 72.296 120.917 67.8154Z" fill="#F2D422"/>
<path d="M103.656 79.2656C103.465 77.7216 103.33 71.9247 111.148 67.8148L111.15 67.8138C113.077 66.8011 114.668 66.0162 116.066 65.4482C111.191 63.419 108.605 64.0909 101.523 67.8138L101.521 67.8148C93.7031 71.9247 93.8384 77.7216 94.029 79.2656C98.5416 107.181 107.048 163.916 111.218 218.534C112.495 201.803 114.18 184.875 116.031 168.636C111.838 131.863 106.786 98.6293 103.656 79.2656Z" fill="#E8C018"/>
<path d="M184.075 120.765C186.076 118.091 185.555 115.908 185.199 115.026L182.938 110.34C181.868 108.126 180.034 107.509 179.223 107.34L178.816 107.277H178.816C178.816 107.277 178.816 107.277 174.585 106.624C170.586 106.007 168.399 109.444 168.169 109.825C142.887 154.158 129.572 226.514 129.572 226.514C146.903 174.627 170.106 139.118 184.071 120.771C184.072 120.77 184.073 120.767 184.075 120.765Z" fill="#F2D422"/>
</g>
<defs>
<clipPath id="clip0">
<rect width="244" height="244" fill="white"/>
</clipPath>
</defs>
</svg>
