<svg width="111" height="112" viewBox="0 0 111 112" fill="none" xmlns="http://www.w3.org/2000/svg">
<g clip-path="url(#clip0)">
<path d="M20.1257 86.062C19.6623 85.0477 19.0806 84.0894 18.4269 83.1895C16.0153 79.8686 12.2311 76.7112 7.8963 77.1704C4.20901 77.5613 0.739014 80.5208 0.739014 84.4509C0.739014 85.8873 1.15666 87.292 1.93978 88.4905C5.28054 93.6023 10.9359 96.6776 16.9959 96.6776H20.8364L20.1257 86.062Z" fill="#EFB485"/>
<path d="M16.9959 89.9999C10.9359 89.9999 5.28032 86.9245 1.93978 81.8127C1.81319 81.6191 1.70003 81.4185 1.59281 81.2148C1.05407 82.1773 0.739014 83.2696 0.739014 84.4509C0.739014 85.8873 1.15666 87.292 1.93978 88.4902C5.28054 93.602 10.9359 96.6774 16.9959 96.6774H20.8364L20.3893 89.9996H16.9959V89.9999Z" fill="#9D602F"/>
<path d="M66.5433 54.628C64.8443 50.1359 62.8846 45.4105 60.7068 40.9377H80.7403C82.7449 45.0539 84.5252 48.9323 86.0811 52.5861L83.7286 59.2145H72.823L66.5433 54.628Z" fill="#DEDEDE"/>
<path d="M73.2411 57.7408C72.8122 56.4889 68.3286 43.4395 67.3753 43.1635C67.3345 43.1635 67.3526 43.1571 67.3753 43.1635L61.5134 42.626C63.3412 46.5255 65.0248 50.6128 66.5435 54.6281L73.2411 57.7408Z" fill="#BCBAC1"/>
<path d="M87.1264 100.835C82.5743 105.02 76.5861 107.245 70.4332 107.245H36.6088C27.1541 107.245 19.4905 99.4972 19.4905 89.9383L71.1514 67.9706C69.9737 64.25 68.418 59.5827 66.5438 54.6283C68.7793 55.1923 71.1172 55.4903 73.5214 55.4903C78.018 55.4903 82.2793 54.4468 86.0813 52.5864C96.6194 77.3305 96.8995 91.8504 87.1264 100.835Z" fill="#EFB485"/>
<path d="M75.6201 66.8531C75.0092 63.7642 74.2611 60.7176 73.241 57.7409C73.1468 57.466 72.8569 56.6215 72.4518 55.4685C70.4232 55.3934 68.4459 55.1081 66.5435 54.6282C68.4177 59.5826 69.9736 64.2499 71.151 67.9705L67.8649 79.8016C73.3787 78.1694 76.7467 72.5485 75.6201 66.8531Z" fill="#9D602F"/>
<path d="M73.5203 47.9283C85.36 47.9283 94.958 38.2245 94.958 26.2542C94.958 14.2839 85.36 4.58008 73.5203 4.58008C61.6805 4.58008 52.0825 14.2839 52.0825 26.2542C52.0825 38.2245 61.6805 47.9283 73.5203 47.9283Z" fill="#3DCDAD"/>
<path d="M58.6874 26.2542C58.6874 15.4194 66.551 6.44205 76.8227 4.83606C75.7461 4.66778 74.6433 4.58008 73.5203 4.58008C61.6805 4.58008 52.0825 14.2839 52.0825 26.2542C52.0825 38.2245 61.6805 47.9283 73.5203 47.9283C74.6433 47.9283 75.7461 47.8404 76.8227 47.6723C66.551 46.0664 58.6874 37.089 58.6874 26.2542Z" fill="#1BAD8E"/>
<path d="M57.435 93.8164H47.4204L37.0168 67.335C39.8272 65.4076 42.9432 63.7439 46.3711 62.5188L58.9971 76.0363L57.435 93.8164Z" fill="#FC421D"/>
<path d="M39.552 73.7881C43.4038 71.1974 47.4654 69.3421 51.7053 68.2296L46.3714 62.519C46.3665 62.5208 46.3617 62.5224 46.3568 62.5242C43.0407 63.7108 39.9164 65.3466 37.0168 67.335L39.552 73.7881Z" fill="#D54003"/>
<path d="M47.4205 93.8164H21.1294C18.7807 93.8164 17.2783 91.2904 18.3789 89.1925C21.3452 83.538 27.4169 73.9076 37.0169 67.335C40.6777 72.0819 45.9564 80.9322 47.4205 93.8164Z" fill="#3DCDAD"/>
<path d="M56.1206 60.4293C57.1508 60.3471 58.2023 60.304 59.2751 60.304C68.4284 60.304 75.8508 67.8059 75.8508 77.0602C75.8508 83.7065 72.0232 89.4496 66.4731 92.1569L56.1206 60.4293Z" fill="#039BE5"/>
<path d="M107.471 31.0303C104.108 30.0752 98.2978 27.4929 94.2285 20.6335C94.2285 20.6335 94.6783 24.6629 89.541 28.9371C88.3235 29.9501 87.6128 31.4575 87.6128 33.0517C87.6128 35.9896 89.9685 38.3711 92.8743 38.3711H106.459C108.503 38.3711 110.16 36.6959 110.16 34.6294C110.16 32.9562 109.064 31.4828 107.471 31.0303Z" fill="#F5EA69"/>
<path d="M106.459 33.9191H92.8745C90.7563 33.9191 88.9316 32.653 88.0974 30.8291C87.783 31.518 87.6128 32.2742 87.6128 33.0514C87.6128 35.9892 89.9685 38.3709 92.8743 38.3709H106.459C108.503 38.3709 110.16 36.6957 110.16 34.629C110.16 33.8043 109.893 33.0287 109.432 32.3993C108.758 33.3199 107.679 33.9191 106.459 33.9191Z" fill="#EAB657"/>
<path d="M77.1109 36.6076C81.4426 36.6076 84.9542 33.7803 84.9542 30.2927C84.9542 26.8051 81.4426 23.9778 77.1109 23.9778C72.7792 23.9778 69.2676 26.8051 69.2676 30.2927C69.2676 33.7803 72.7792 36.6076 77.1109 36.6076Z" fill="#EE9FA9"/>
<path d="M82.7503 25.883C81.8382 25.883 81.0991 25.1356 81.0991 24.2136V20.7561C81.0991 19.8341 81.8382 19.0867 82.7503 19.0867C83.6625 19.0867 84.4016 19.8341 84.4016 20.7561V24.2138C84.4016 25.1358 83.6625 25.883 82.7503 25.883Z" fill="#434050"/>
<path d="M66.4729 92.1571C64.2972 93.2202 61.8545 93.8165 59.2751 93.8165H57.435C56.8601 77.4189 49.8503 66.81 46.3711 62.5189C49.3781 61.4451 52.6244 60.7083 56.1206 60.4294C59.8755 65.3645 66.2699 76.0967 66.4729 92.1571Z" fill="#B7D939"/>
<path d="M75.7491 75.2192C75.3295 71.3388 73.5653 67.7362 70.7688 64.9934C66.5232 60.8294 61.9215 59.9108 56.2068 60.4234C56.1784 60.4261 56.1497 60.4283 56.1213 60.4308L58.3007 67.1103C59.3505 67.0257 60.4092 66.9818 61.4768 66.9818C67.5529 66.9821 72.8632 70.2895 75.7491 75.2192Z" fill="#1876A9"/>
<path d="M50.4745 68.5744C53.6446 67.627 56.9183 67.1019 60.281 67.0013C58.8174 64.2201 57.3324 62.0222 56.1215 60.4307C52.9754 60.6735 49.6289 61.3564 46.3713 62.5192C47.4858 63.894 48.9629 65.9204 50.4745 68.5744Z" fill="#9EB644"/>
<path d="M21.1295 93.8164H21.7037C24.9614 88.0831 30.6996 79.8452 39.2186 74.0127C39.7304 73.6617 40.2465 73.3253 40.7656 73.0006C39.4687 70.711 38.1635 68.8219 37.0169 67.335C27.4169 73.9078 21.3453 83.538 18.379 89.1925C17.2778 91.2924 18.7823 93.8164 21.1295 93.8164Z" fill="#1BAD8E"/>
</g>
<defs>
<clipPath id="clip0">
<rect x="0.739014" y="0.598877" width="109.421" height="110.628" fill="white"/>
</clipPath>
</defs>
</svg>
