<svg width="60" height="60" viewBox="0 0 60 60" fill="none" xmlns="http://www.w3.org/2000/svg">
<g clip-path="url(#clip0)">
<path d="M29.8025 59.438C46.0495 59.438 59.2203 46.2673 59.2203 30.0203C59.2203 13.7733 46.0495 0.602539 29.8025 0.602539C13.5555 0.602539 0.384766 13.7733 0.384766 30.0203C0.384766 46.2673 13.5555 59.438 29.8025 59.438Z" fill="#FFCA28"/>
<path d="M29.8024 52.0835C19.9659 52.0835 11.2398 45.4829 8.5812 36.0362C8.3054 35.0543 8.87537 34.0431 9.85351 33.7673C10.828 33.4952 11.8466 34.0615 12.1224 35.0396C14.3324 42.9089 21.6059 48.4063 29.8024 48.4063C37.999 48.4063 45.2688 42.9089 47.4862 35.036C47.762 34.0578 48.7622 33.4842 49.755 33.7636C50.7332 34.0394 51.2995 35.058 51.0273 36.0325C48.365 45.4829 39.639 52.0835 29.8024 52.0835Z" fill="#6D4C41"/>
<path d="M46.3498 24.5046C45.3348 24.5046 44.5112 23.6809 44.5112 22.666C44.5112 20.6398 42.8638 18.9887 40.8339 18.9887C38.8041 18.9887 37.1567 20.6398 37.1567 22.666C37.1567 23.6809 36.333 24.5046 35.3181 24.5046C34.3032 24.5046 33.4795 23.6809 33.4795 22.666C33.4795 18.61 36.778 15.3115 40.8339 15.3115C44.8899 15.3115 48.1884 18.61 48.1884 22.666C48.1884 23.6809 47.3647 24.5046 46.3498 24.5046Z" fill="#6D4C41"/>
<path d="M24.2863 24.5046C23.2714 24.5046 22.4477 23.6809 22.4477 22.666C22.4477 20.6398 20.7966 18.9887 18.7705 18.9887C16.7443 18.9887 15.0932 20.6398 15.0932 22.666C15.0932 23.6809 14.2695 24.5046 13.2546 24.5046C12.2397 24.5046 11.416 23.6809 11.416 22.666C11.416 18.61 14.7145 15.3115 18.7705 15.3115C22.8264 15.3115 26.1249 18.61 26.1249 22.666C26.1249 23.6809 25.3012 24.5046 24.2863 24.5046Z" fill="#6D4C41"/>
</g>
<defs>
<clipPath id="clip0">
<rect x="0.384766" y="0.602539" width="58.8355" height="58.8355" fill="white"/>
</clipPath>
</defs>
</svg>
