<svg width="75" height="75" viewBox="0 0 75 75" fill="none" xmlns="http://www.w3.org/2000/svg">
<g clip-path="url(#clip0)">
<path d="M31.6189 4.21584L31.6445 4.09877L31.6445 54.2853L15.8329 38.5085C15.061 37.736 14.0152 37.3122 12.9177 37.3122C11.8201 37.3122 10.7817 37.736 10.0079 38.5085L7.55181 40.9634C6.77985 41.7354 6.35303 42.764 6.35303 43.861C6.35303 44.9585 6.77681 45.9878 7.54876 46.7597L34.5908 73.8043C35.3658 74.5793 36.3982 75.003 37.4963 75C38.6006 75.003 39.6335 74.5793 40.4073 73.8043L67.4518 46.7597C68.2232 45.9878 68.6475 44.9591 68.6475 43.861C68.6475 42.764 68.2225 41.7353 67.4518 40.9634L64.9957 38.5085C64.225 37.736 63.1957 37.3122 62.0982 37.3122C61.0012 37.3122 60.0262 37.736 59.2549 38.5085L43.3549 54.4634L43.3549 4.15974C43.3549 1.89937 41.4067 -1.6791e-05 39.1475 -1.66923e-05L35.6738 -1.65404e-05C33.4146 -1.64417e-05 31.6189 1.95547 31.6189 4.21584Z" fill="black"/>
</g>
<defs>
<clipPath id="clip0">
<rect y="75" width="75" height="75" transform="rotate(-90 0 75)" fill="white"/>
</clipPath>
</defs>
</svg>
