<svg width="75" height="75" viewBox="0 0 75 75" fill="none" xmlns="http://www.w3.org/2000/svg">
<g clip-path="url(#clip0)">
<path d="M43.3811 70.7842L43.3555 70.9012L43.3555 20.7146L59.1671 36.4915C59.939 37.264 60.9848 37.6878 62.0823 37.6878C63.1799 37.6878 64.2183 37.264 64.9921 36.4915L67.4482 34.0366C68.2201 33.2646 68.647 32.236 68.647 31.139C68.647 30.0415 68.2232 29.0122 67.4512 28.2403L40.4092 1.19575C39.6342 0.420747 38.6018 -0.00303376 37.5037 1.49749e-05C36.3994 -0.00303385 35.3665 0.420747 34.5927 1.19575L7.54819 28.2403C6.77684 29.0122 6.35245 30.0409 6.35245 31.139C6.35245 32.236 6.77745 33.2646 7.54819 34.0366L10.0043 36.4915C10.775 37.264 11.8043 37.6878 12.9018 37.6878C13.9988 37.6878 14.9738 37.264 15.7451 36.4915L31.6451 20.5366L31.6451 70.8403C31.6451 73.1006 33.5933 75 35.8525 75L39.3262 75C41.5854 75 43.3811 73.0445 43.3811 70.7842Z" fill="black"/>
</g>
<defs>
<clipPath id="clip0">
<rect x="75" width="75" height="75" transform="rotate(90 75 0)" fill="white"/>
</clipPath>
</defs>
</svg>
