<svg width="75" height="75" viewBox="0 0 75 75" fill="none" xmlns="http://www.w3.org/2000/svg">
<g clip-path="url(#clip0)">
<path d="M70.7842 31.6189L70.9012 31.6445H20.7146L36.4915 15.8329C37.264 15.061 37.6878 14.0152 37.6878 12.9177C37.6878 11.8201 37.264 10.7817 36.4915 10.0079L34.0366 7.55181C33.2646 6.77986 32.236 6.35303 31.139 6.35303C30.0415 6.35303 29.0122 6.77681 28.2403 7.54876L1.19575 34.5908C0.420748 35.3658 -0.00303244 36.3982 1.63362e-05 37.4963C-0.00303244 38.6006 0.420748 39.6335 1.19575 40.4073L28.2403 67.4518C29.0122 68.2232 30.0409 68.6475 31.139 68.6475C32.236 68.6475 33.2646 68.2225 34.0366 67.4518L36.4915 64.9957C37.264 64.225 37.6878 63.1957 37.6878 62.0982C37.6878 61.0012 37.264 60.0262 36.4915 59.2549L20.5366 43.3549H70.8403C73.1006 43.3549 75 41.4067 75 39.1475V35.6738C75 33.4146 73.0445 31.6189 70.7842 31.6189Z" fill="black"/>
</g>
<defs>
<clipPath id="clip0">
<rect width="75" height="75" fill="white"/>
</clipPath>
</defs>
</svg>
