<svg width="150" height="194" viewBox="0 0 150 194" fill="none" xmlns="http://www.w3.org/2000/svg">
<path d="M25.0269 162.048C20.7453 162.048 11.8172 159.488 9.41952 152.242C6.4224 143.184 0.000108379 59.8609 0 57.1395C-0.000195589 52.2277 3.85324 36.3831 23.5488 36.0057C43.2443 35.6283 47.1723 54.1365 47.5259 57.1395C48.1475 62.4173 41.7665 145.454 38.9627 152.242C36.159 159.029 30.5929 162.426 25.0269 162.048Z" fill="#FCB52F"/>
<path d="M47.9542 57.1395C47.6005 54.1365 43.6726 35.6283 23.9771 36.0057L25.4551 162.048C31.0212 162.426 36.5873 159.029 39.391 152.242C42.1947 145.454 48.5758 62.4173 47.9542 57.1395Z" fill="#F99830"/>
<path d="M39.75 181.323C39.75 188.066 33.5267 193.549 25.8737 193.549H25.8388C18.2059 193.534 12 188.056 12 181.323C12 174.591 18.2059 169.114 25.8388 169.098H25.8737C33.5267 169.098 39.75 174.582 39.75 181.323Z" fill="#FCB52F"/>
<path d="M39.7499 181.323C39.7499 188.066 33.5265 193.549 25.8735 193.549H25.8386V169.098H25.8735C33.5265 169.098 39.7499 174.582 39.7499 181.323Z" fill="#F99830"/>
<path d="M103.703 119.438L94.9141 137.719L103.703 156C113.411 156 121.281 147.815 121.281 137.719C121.281 127.622 113.411 119.438 103.703 119.438Z" fill="#0A77E8"/>
<path d="M86.125 137.719C86.125 147.815 93.995 156 103.703 156V119.438C93.995 119.438 86.125 127.622 86.125 137.719Z" fill="#0F9AF0"/>
<path d="M103.703 0L86.125 18.2812L103.703 36.5625C109.519 36.5625 114.25 41.4829 114.25 47.5312C114.25 50.7542 112.89 53.8048 110.518 55.9013L103.703 61.9265L91.9844 86.1117L103.703 110.297H121.281V94.3745L133.286 83.7601C143.53 74.7066 149.406 61.5021 149.406 47.5312C149.406 21.3223 128.904 0 103.703 0V0Z" fill="#0A77E8"/>
<path d="M86.125 77.4692V110.297H103.703V61.9265L86.125 77.4692Z" fill="#0F9AF0"/>
<path d="M58 47.5312V52.1016H93.1562V47.5312C93.1562 41.4829 97.8874 36.5625 103.703 36.5625V0C78.5022 0 58 21.3223 58 47.5312Z" fill="#0F9AF0"/>
</svg>
