<svg width="222" height="221" viewBox="0 0 222 221" fill="none" xmlns="http://www.w3.org/2000/svg">
<g clip-path="url(#clip0)">
<path d="M102.339 142.222L89.6938 158.449L68.5155 142.117L81.1611 125.889L102.339 142.222Z" fill="#344A5E"/>
<path d="M141.829 143.433C106.797 147.868 74.8204 123.209 70.4071 88.3538C65.9937 53.4988 90.815 21.6473 125.847 17.2116C160.879 12.7758 192.856 37.4355 197.269 72.2905C201.682 107.146 176.861 138.997 141.829 143.433Z" fill="#8AD7F8"/>
<path d="M89.4861 137.236C120.82 161.399 166.654 155.596 190.976 124.385C215.298 93.1746 209.523 47.5719 178.19 23.4083C146.856 -0.755287 101.022 5.04825 76.7003 36.2589C52.3784 67.4696 57.7433 113.124 89.4861 137.236ZM167.817 36.7187C192.239 55.552 196.621 90.1612 177.664 114.487C158.708 138.813 123.923 143.218 99.5011 124.384C75.0795 105.551 70.6973 70.9417 89.6541 46.6157C108.611 22.2898 143.805 17.8335 167.817 36.7187Z" fill="#415A6B"/>
<path d="M65.596 139.02C45.8143 156.831 30.94 170.712 26.6994 176.627C18.1152 187.642 20.1259 203.522 31.1848 212.05C42.2437 220.578 58.2037 218.558 66.788 207.542C71.0801 202.034 81.2949 184.193 93.7042 160.696L65.596 139.02Z" fill="#F3705A"/>
<path d="M86.9629 173.133C88.9543 169.158 91.355 165.131 93.3464 161.155L65.2382 139.479C61.5067 142.847 58.1329 145.757 55.1685 148.614L86.9629 173.133Z" fill="#F05540"/>
<path d="M89.7694 165.745L61.6612 144.068C58.8965 141.936 58.3809 137.864 60.5269 135.111C62.673 132.357 66.7655 131.839 69.5302 133.971L97.6384 155.647C100.403 157.779 100.919 161.851 98.7727 164.605C96.6781 167.766 92.5857 168.284 89.7694 165.745Z" fill="#F3705A"/>
<path d="M130.796 56.2995C120.174 57.6445 111.055 54.7244 110.428 49.7771C109.802 44.8299 117.905 39.729 128.528 38.384C139.15 37.0389 148.269 39.9591 148.896 44.9063C149.522 49.8536 141.419 54.9545 130.796 56.2995Z" fill="white"/>
</g>
<defs>
<clipPath id="clip0">
<rect width="198" height="197" transform="matrix(-0.992079 0.125617 0.125617 0.992079 196.432 0)" fill="white"/>
</clipPath>
</defs>
</svg>
