<svg width="82" height="69" viewBox="0 0 82 69" fill="none" xmlns="http://www.w3.org/2000/svg">
<path d="M18.8558 3.54518C18.1424 4.71202 10.6454 42.6758 7.07564 61.6032C5.42677 70.28 15.0154 65.6438 17.3088 63.5171C19.2721 54.5851 20.2957 39.8873 21.5808 30.7001L22.8014 24.3809C23.2083 22.9064 24.3882 19.5784 25.8529 23.1171C27.3176 26.6558 31.4637 43.6939 36.8382 52.1853C38.9814 55.5713 45.7854 53.4218 46.6029 52.8172C50.875 49.6576 61.0703 24.5073 61.6927 25.0128C63.4061 25.0128 63.0809 40.1058 63.0809 47.7618C63.2593 53.2912 64.2369 60.7404 65.522 64.8236C69.3514 69.8363 74.6764 68.0258 74.6764 65.4555C74.6764 63.3993 71.0147 52.1852 71.0147 43.3384C70.4792 41.4244 69.3487 23.8625 68.8133 20.0345L68.7955 19.9072C68.251 16.0143 67.0414 7.36618 66.5118 6.73515C65.9763 6.09715 63.299 4.82115 61.6927 6.73515L45.3823 41.4427C41.3993 50.1984 36.2035 34.9863 35.0073 30.7001L25.8529 3.52767C25.5599 2.7754 23.7059 0.997425 22.1911 1C20.9378 1.00214 19.413 2.63387 18.8558 3.54518Z" fill="#FFA012" stroke="#10696D"/>
<path d="M0.895278 52.6711C-0.799764 53.3141 4.63035 57.8141 7.55729 59.9838C9.56633 57.0797 9.22917 51.9195 9.22917 51.9195C9.22917 51.9195 3.01408 51.8674 0.895278 52.6711Z" fill="#00A1AD" stroke="#10696D"/>
<path d="M3.54832 39.1344C1.88779 39.8787 7.53346 44.0445 10.5639 46.0344C12.4255 43.0135 11.8324 37.8814 11.8324 37.8814C11.8324 37.8814 5.62399 38.2041 3.54832 39.1344Z" fill="#00A1AD" stroke="#10696D"/>
<path d="M6.16612 26.0218C4.44432 26.5718 9.66606 31.3617 12.4922 33.6879C14.629 30.8966 14.5235 25.7244 14.5235 25.7244C14.5235 25.7244 8.31837 25.3343 6.16612 26.0218Z" fill="#00A1AD" stroke="#10696D"/>
<path d="M9.88707 7.04389C8.16527 7.59389 13.387 12.3838 16.2131 14.71C18.3499 11.9187 18.2445 6.74654 18.2445 6.74654C18.2445 6.74654 12.0393 6.35639 9.88707 7.04389Z" fill="#00A1AD" stroke="#10696D"/>
<path d="M10.4112 22.4189C9.26984 23.4791 12.8724 25.4274 14.8163 26.269C16.1867 23.2672 16.0031 19.1696 16.0031 19.1696C16.0031 19.1696 11.8379 21.0937 10.4112 22.4189Z" fill="#00A1AD" stroke="#10696D"/>
<path d="M4.49774 45.9027C3.43334 46.0604 7.05682 49.5447 9.00161 51.2671C10.1934 49.7776 9.80948 46.593 9.80948 46.593C9.80948 46.593 5.82824 45.7056 4.49774 45.9027Z" fill="#00A1AD" stroke="#10696D"/>
<path d="M6.79811 34.3295C5.78505 34.7222 9.97602 37.3222 12.1981 38.5731C13.0901 36.8478 12.1263 33.8158 12.1263 33.8158C12.1263 33.8158 8.06444 33.8385 6.79811 34.3295Z" fill="#00A1AD" stroke="#10696D"/>
<path d="M10.6091 14.7973C9.59608 15.19 13.7871 17.7901 16.0092 19.041C16.9011 17.3157 15.9374 14.2836 15.9374 14.2836C15.9374 14.2836 11.8755 14.3064 10.6091 14.7973Z" fill="#00A1AD" stroke="#10696D"/>
<path d="M76.3515 51.5447C77.3521 51.115 73.0848 48.6702 70.8261 47.5015C69.9868 49.2586 71.0417 52.2536 71.0417 52.2536C71.0417 52.2536 75.1007 52.0818 76.3515 51.5447Z" fill="#00A1AD" stroke="#10696D"/>
<path d="M72.9921 13.9505C73.7728 13.1825 69.5704 12.2712 67.3716 11.9116C67.0018 13.9229 68.5286 16.488 68.5286 16.488C68.5286 16.488 72.0162 14.9105 72.9921 13.9505Z" fill="#00A1AD" stroke="#10696D"/>
<path d="M74.6678 26.8292C75.5506 25.8916 71.2854 24.7182 69.0424 24.2486C68.4653 26.7239 69.7994 29.9046 69.7994 29.9046C69.7994 29.9046 73.5643 28.0012 74.6678 26.8292Z" fill="#00A1AD" stroke="#10696D"/>
<path d="M75.5801 32.5778C76.5178 31.0963 72.1673 30.1614 69.8748 29.8791C69.2031 33.49 70.475 37.7747 70.475 37.7747C70.475 37.7747 74.408 34.4296 75.5801 32.5778Z" fill="#00A1AD" stroke="#10696D"/>
<path d="M80.6227 56.5164C81.9064 55.138 75.2518 53.6216 71.7641 53.0356C71.0728 56.6064 73.3774 61.1143 73.3774 61.1143C73.3774 61.1143 79.0181 58.2394 80.6227 56.5164Z" fill="#00A1AD" stroke="#10696D"/>
<path d="M78.2547 44.3107C79.8235 43.3551 73.7696 39.9551 70.5466 38.3745C69.0228 41.617 70.1637 46.6356 70.1637 46.6356C70.1637 46.6356 76.2936 45.5052 78.2547 44.3107Z" fill="#00A1AD" stroke="#10696D"/>
<path d="M77.1146 20.2202C78.4826 18.9439 71.9404 16.9193 68.4984 16.0666C67.5823 19.5755 69.5956 24.2497 69.5956 24.2497C69.5956 24.2497 75.4047 21.8156 77.1146 20.2202Z" fill="#00A1AD" stroke="#10696D"/>
</svg>
