<svg width="75" height="75" viewBox="0 0 75 75" fill="none" xmlns="http://www.w3.org/2000/svg">
<g clip-path="url(#clip0)">
<path d="M4.21585 43.3811L4.09877 43.3555L54.2854 43.3555L38.5085 59.1671C37.736 59.939 37.3122 60.9848 37.3122 62.0823C37.3122 63.1799 37.736 64.2183 38.5085 64.9921L40.9634 67.4482C41.7354 68.2201 42.764 68.647 43.861 68.647C44.9585 68.647 45.9878 68.2232 46.7597 67.4512L73.8043 40.4092C74.5793 39.6342 75.003 38.6018 75 37.5037C75.003 36.3994 74.5793 35.3665 73.8043 34.5927L46.7597 7.54818C45.9878 6.77684 44.9591 6.35245 43.861 6.35245C42.764 6.35245 41.7354 6.77745 40.9634 7.54818L38.5085 10.0043C37.736 10.775 37.3122 11.8043 37.3122 12.9018C37.3122 13.9988 37.736 14.9738 38.5085 15.7451L54.4634 31.6451L4.15975 31.6451C1.89938 31.6451 -1.21943e-05 33.5933 -1.23918e-05 35.8524L-1.26955e-05 39.3262C-1.2893e-05 41.5854 1.95548 43.3811 4.21585 43.3811Z" fill="black"/>
</g>
<defs>
<clipPath id="clip0">
<rect x="75" y="75" width="75" height="75" transform="rotate(-180 75 75)" fill="white"/>
</clipPath>
</defs>
</svg>
