<svg width="200" height="177" viewBox="0 0 200 177" fill="none" xmlns="http://www.w3.org/2000/svg">
<path d="M14.7152 103.02C-9.28479 68.6197 1.38187 48.0197 9.71521 42.0197C11.8819 40.1863 16.1153 40.2197 15.7153 55.0197C15.3153 69.8197 30.2153 80.1863 37.7153 83.5197C65.7153 71.9197 90.7153 78.6863 99.7153 83.5197C103.144 81.353 110 73.5197 110 59.5197C110 42.0197 120 1.01964 160 0.0196378C200 -0.980362 201 36.5197 199.5 42.0197C198 47.5196 182.5 72.5198 145 55.0197L142.215 59.5197C143.644 78.3464 145.2 118.7 140 129.5C133.5 143 127.431 167.539 122.715 173.52C99.9153 183.12 95.5487 169.52 96.2153 161.52C83.4153 164.72 65.5487 162.853 58.2153 161.52L55.2153 173.52C32.4153 178.72 27.382 169.02 27.7153 163.52C27.7153 151.039 23 146 15.7153 135.5C9.8876 127.1 12.6204 110.346 14.7152 103.02Z" fill="#9FC7E2"/>
<circle r="11" transform="matrix(-1 0 0 1 167 28)" fill="white"/>
<circle r="5.7037" transform="matrix(-1 0 0 1 169.852 28.4073)" fill="black"/>
<path d="M170.259 23.926C169.309 23.7902 167.163 23.926 166.185 25.5557C165.207 27.1853 168.494 25.1483 170.259 23.926Z" fill="white"/>
<path d="M147 6.19433C147 5.02402 149.235 4.24381 150.352 4C151.614 4.78021 150.746 6.11306 150.155 6.68196C149.103 7.00705 147 7.36465 147 6.19433Z" fill="#654E48"/>
<path d="M130 14.1943C130 13.024 132.235 12.2438 133.352 12C134.614 12.7802 133.746 14.1131 133.155 14.682C132.103 15.0071 130 15.3646 130 14.1943Z" fill="#654E48"/>
<path d="M140 7.19433C140 6.02402 142.793 5.24381 144.19 5C145.767 5.78021 144.683 7.11306 143.943 7.68196C142.629 8.00705 140 8.36465 140 7.19433Z" fill="#654E48"/>
<path d="M136 12.9258C136 11.3654 139.911 10.3251 141.866 10C144.074 11.0403 142.556 12.8174 141.521 13.576C139.68 14.0094 136 14.4862 136 12.9258Z" fill="#654E48"/>
<path d="M133.635 10.4875C133.296 9.78451 135.587 8.10394 136.775 7.35152C138.422 7.13576 137.83 8.40685 137.329 9.06937C136.238 9.83495 133.973 11.1904 133.635 10.4875Z" fill="#654E48"/>
<path d="M185.5 57C178.333 55.8333 163.1 51.7 159.5 44.5" stroke="black"/>
<path d="M48 84.5C48 82.1 53.6667 80.5 56.5 80C59.7 81.6 57.5 84.3333 56 85.5C53.3333 86.1667 48 86.9 48 84.5Z" fill="#654E48"/>
<path d="M59 86.6572C59 84.7067 63.4692 83.4064 65.7038 83C68.2275 84.3003 66.4924 86.5218 65.3094 87.4699C63.2063 88.0118 59 88.6077 59 86.6572Z" fill="#654E48"/>
<path d="M60 80.9258C60 79.3654 62.7932 78.3251 64.1898 78C65.7672 79.0403 64.6828 80.8174 63.9434 81.576C62.6289 82.0094 60 82.4862 60 80.9258Z" fill="#654E48"/>
<path d="M43 89.1943C43 88.024 45.2346 87.2438 46.3519 87C47.6138 87.7802 46.7462 89.1131 46.1547 89.682C45.1031 90.0071 43 90.3646 43 89.1943Z" fill="#654E48"/>
<path d="M66 81.4629C66 80.6827 68.7932 80.1625 70.1898 80C71.7672 80.5201 70.6828 81.4087 69.9434 81.788C68.6289 82.0047 66 82.2431 66 81.4629Z" fill="#654E48"/>
<path d="M50 89.1943C50 88.024 52.7932 87.2438 54.1898 87C55.7672 87.7802 54.6828 89.1131 53.9434 89.682C52.6289 90.0071 50 90.3646 50 89.1943Z" fill="#654E48"/>
</svg>
