<svg width="169" height="218" viewBox="0 0 169 218" fill="none" xmlns="http://www.w3.org/2000/svg">
<path d="M70.2756 201.5C70.6472 193.344 75.0932 193.542 76.5347 194.03L55.3942 182.434C54.1584 183.271 51.0108 187.027 48.3063 195.357C45.6018 203.687 54.8046 207.825 62.2759 209.5C63.5897 210.221 69.904 209.656 70.2756 201.5Z" fill="#109B7E"/>
<path d="M13.7408 143.213C4.07411 148.713 -10.0592 164.713 10.7408 184.713C21.1408 194.313 42.7408 191.38 52.2408 188.713C59.2408 187.713 72.8408 187.813 71.2408 196.213C69.2408 206.713 75.7406 219.213 84.7406 217.713C93.7406 216.213 100.741 217.713 105.241 211.213C108.841 206.013 103.407 202.046 100.241 200.713C98.4072 198.046 96.8405 191.913 105.241 188.713C106.355 188.288 107.531 187.757 108.741 187.115C118.934 181.707 131.528 168.454 129.741 145.213C133.074 144.046 139.341 140.513 137.741 135.713C135.741 129.713 125.741 122.713 124.241 121.713C122.741 120.713 119.241 107.213 101.241 79.7129C113.907 87.8795 142.941 100.113 157.741 83.7129C172.541 67.3129 168.574 47.5462 164.741 39.7129C158.074 31.7129 138.141 15.8129 111.741 16.2129C111.407 11.7129 109.341 2.2128 103.741 0.212799C98.1407 -1.7872 94.4074 10.8029 93.2407 17.3479C92.1871 17.4978 91.1885 17.6648 90.2407 17.8503C87.4074 13.4712 80.1407 4.91289 73.7407 5.71289C67.3407 6.51289 72.6385 19.0462 76.0874 25.2129C75.4332 25.9822 74.8197 26.814 74.2333 27.7129C68.4024 26.3796 56.5407 24.9129 55.7407 29.7129C54.9407 34.5129 63.4074 39.7128 67.7407 41.7128C67.7089 43.3843 67.6621 45.2319 67.5991 47.2129C63.313 46.8796 54.0407 47.7129 51.2407 53.7129C48.4407 59.7129 60.5762 60.8796 66.9939 60.7129C66.8892 62.5253 66.7731 64.3652 66.645 66.2129C62.5102 65.8796 53.8407 66.2129 52.2407 70.2129C50.6407 74.2129 60.3935 78.2129 65.4699 79.7129C65.3414 80.8997 65.2069 82.0683 65.066 83.2129C61.1242 82.7129 52.6407 82.6129 50.2407 86.2129C47.8407 89.8129 57.8162 93.7129 63.1039 95.2129C62.724 96.9101 62.3166 98.4251 61.8805 99.7129C58.8339 98.8796 51.6407 98.0129 47.2407 101.213C42.8407 104.413 52.5607 109.546 57.9707 111.713C57.7327 112.594 57.4891 113.493 57.2407 114.406C53.9074 113.675 46.5407 113.113 43.7407 116.713C40.9407 120.313 49.4001 124.546 53.9798 126.213C53.699 127.213 53.4167 128.214 53.1338 129.213C50.0028 128.213 43.0407 127.113 40.2407 130.713C37.4407 134.313 45.548 138.546 49.9516 140.213C49.5784 141.471 49.2101 142.701 48.8487 143.893C45.3127 143.499 37.7407 143.513 35.7407 146.713C33.7407 149.913 41.3319 153.38 45.3774 154.713C44.205 158.066 43.2767 160.266 42.7407 160.713C41.2407 159.046 37.1407 156.113 32.7407 157.713C28.3407 159.313 32.9074 165.244 35.7407 168.01C34.0493 169.273 32.1973 170.347 30.2407 171.06C29.2407 167.777 26.5407 161.413 23.7407 162.213C20.9407 163.013 19.5741 168.09 19.2407 170.528C17.7371 169.765 16.2307 168.677 14.7407 167.206C16.4074 165.042 19.4407 160.513 18.2407 159.713C17.0407 158.913 11.7207 158.713 9.21065 158.713C8.91411 157.545 8.7406 156.197 8.79367 154.713C8.88704 152.103 9.68153 149.075 11.7407 145.882C12.3076 145.003 12.9704 144.112 13.7408 143.213Z" fill="#1BAD8E"/>
<path d="M157.276 84.0001C141.776 84.5001 109.776 80.2 105.776 59" stroke="black"/>
<path d="M124.605 122C123.105 121 119.605 107.5 101.605 80C100.405 108.4 116.438 119.833 124.605 122Z" fill="#AFD9C3"/>
<path d="M130.105 145.5C131.893 168.741 119.298 181.994 109.105 187.402C105.772 184.102 101.105 169.2 109.105 136C113.438 138.5 123.705 143.9 130.105 145.5Z" fill="#AFD9C3"/>
<path d="M112.276 16.2129C111.943 11.7129 109.876 2.2128 104.276 0.212799C98.6759 -1.7872 94.9425 10.8029 93.7759 17.3479C92.7222 17.4978 91.7237 17.6648 90.7759 17.8503C87.9425 13.4712 80.6759 4.91289 74.2759 5.71289C67.8759 6.51289 73.1737 19.0462 76.6226 25.2129C75.9683 25.9822 75.3548 26.814 74.7684 27.7129C68.9376 26.3796 57.0759 24.9129 56.2759 29.7129C55.4759 34.5129 63.9425 39.7128 68.2759 41.7128C68.244 43.3843 68.1973 45.2319 68.1343 47.2129C63.8481 46.8796 54.5759 47.7129 51.7759 53.7129C48.9759 59.7129 61.1114 60.8796 67.5291 60.7129C67.4244 62.5253 67.3083 64.3652 67.1802 66.2129C63.0454 65.8796 54.3759 66.2129 52.7759 70.2129C51.1759 74.2129 60.9286 78.2129 66.005 79.7129C65.8766 80.8997 65.742 82.0683 65.6011 83.2129C61.6594 82.7129 53.1759 82.6129 50.7759 86.2129C48.3759 89.8129 58.3513 93.7129 63.6391 95.2129C63.2591 96.9101 62.8518 98.4251 62.4157 99.7129C59.3691 98.8796 52.1759 98.0129 47.7759 101.213C43.3759 104.413 53.0959 109.546 58.5059 111.713C58.2678 112.594 58.0242 113.493 57.7759 114.406C54.4425 113.675 47.0759 113.113 44.2759 116.713C41.4759 120.313 49.9352 124.546 54.5149 126.213C54.2341 127.213 53.9519 128.214 53.669 129.213C50.538 128.213 43.5759 127.113 40.7759 130.713C37.9759 134.313 46.0831 138.546 50.4868 140.213C50.1136 141.471 49.7452 142.701 49.3838 143.893C45.8478 143.499 38.2759 143.513 36.2759 146.713C34.2759 149.913 41.867 153.38 45.9126 154.713C44.7401 158.066 43.8118 160.266 43.2759 160.713C41.7759 159.046 37.6759 156.113 33.2759 157.713C28.8759 159.313 33.4425 165.244 36.2759 168.01C34.5845 169.273 32.7324 170.347 30.7759 171.06C29.7759 167.777 27.0759 161.413 24.2759 162.213C21.4759 163.013 20.1092 168.09 19.7759 170.528C18.2723 169.765 16.7659 168.677 15.2759 167.206C16.9425 165.042 19.9759 160.513 18.7759 159.713C17.5759 158.913 12.2558 158.713 9.7458 158.713C10.1262 160.211 10.7091 161.41 11.2759 162.213C12.5862 164.222 13.9243 165.872 15.2759 167.206C16.7659 168.677 18.2723 169.765 19.7759 170.528C23.5623 172.45 27.3311 172.315 30.7759 171.06C32.7324 170.347 34.5845 169.273 36.2759 168.01C39.1757 165.845 41.6033 163.123 43.2759 160.713C43.8118 160.266 44.7401 158.066 45.9126 154.713C46.9206 151.83 48.109 148.096 49.3838 143.893C49.7452 142.701 50.1136 141.471 50.4868 140.213C51.5257 136.709 52.6019 132.979 53.669 129.213C53.9519 128.214 54.2341 127.213 54.5149 126.213C55.645 122.187 56.7507 118.175 57.7759 114.406C58.0242 113.493 58.2678 112.594 58.5059 111.713C59.3424 108.617 60.1106 105.736 60.7759 103.213C61.3629 102.4 61.9088 101.21 62.4157 99.7129C62.8518 98.4251 63.2591 96.9101 63.6391 95.2129C64.3983 91.8217 65.0484 87.7026 65.6011 83.2129C65.742 82.0683 65.8766 80.8997 66.005 79.7129C66.4761 75.3599 66.8646 70.7625 67.1802 66.2129C67.3083 64.3652 67.4244 62.5253 67.5291 60.7129C67.8073 55.8967 68.005 51.2743 68.1343 47.2129C68.1973 45.2319 68.244 43.3843 68.2759 41.7128C70.5761 35.8185 72.463 31.2469 74.7684 27.7129C75.3548 26.814 75.9683 25.9822 76.6226 25.2129C79.8266 21.4453 84.0084 19.1748 90.7759 17.8503C91.7237 17.6648 92.7222 17.4978 93.7759 17.3479C98.629 16.6574 104.652 16.3284 112.276 16.2129Z" fill="#FFA012"/>
<circle r="13.5" transform="matrix(-1 0 0 1 105.776 37.5)" fill="white"/>
<circle r="7" transform="matrix(-1 0 0 1 109.276 38)" fill="black"/>
<path d="M109.776 32.5C108.609 32.3334 105.976 32.5 104.776 34.5C103.576 36.5 107.609 34 109.776 32.5Z" fill="white"/>
</svg>
