<svg width="1280" height="423" viewBox="0 0 1280 423" fill="none" xmlns="http://www.w3.org/2000/svg">
<rect x="1" y="5" width="1278" height="113" fill="#9B3030" stroke="white" stroke-width="2"/>
<rect x="1" y="251" width="1278" height="143" fill="#9B3030" stroke="white" stroke-width="2"/>
<rect x="1" y="112" width="1278" height="139" fill="#9B3030" stroke="white" stroke-width="2"/>
<path d="M1060.49 392.116L965.49 6.53155L1007.5 6.53155L1101.5 392.116L1060.49 392.116Z" fill="#FF0000"/>
<path d="M916.249 76.9193L924.976 75.5402C927.816 85.3884 935.576 90.4321 944.359 89.0441L944.528 89.0174C953.311 87.6294 958.119 80.6569 956.167 70.6109L967.371 68.8403L965.876 62.6337L954.672 64.4044C951.806 54.4454 943.96 49.5302 935.289 50.9005L935.12 50.9272C926.337 52.3152 921.516 59.2323 923.481 69.3337L914.755 70.7128L916.249 76.9193ZM942.878 82.893C937.022 83.8184 932.197 81.0143 930.354 74.5752L950.679 71.3632C951.946 77.8358 948.846 81.9498 942.934 82.8841L942.878 82.893ZM936.771 57.0516C942.626 56.1262 947.395 58.9392 949.238 65.3783L928.913 68.5903C927.759 62.0998 930.69 58.0125 936.715 57.0605L936.771 57.0516ZM938.108 129.58L939.483 135.287L962.807 144.774L942.539 147.978L944.02 154.129L974.986 149.235L973.558 143.306L950.638 134.042L970.568 130.892L969.074 124.686L938.108 129.58ZM953.538 193.647L955.033 199.854L967.757 197.843L970.666 209.923L957.942 211.934L959.451 218.196L990.416 213.302L988.908 207.041L976.466 209.007L973.556 196.926L985.999 194.96L984.504 188.753L953.538 193.647ZM968.968 257.715L970.343 263.422L993.668 272.909L973.399 276.113L974.881 282.264L1005.85 277.37L1004.42 271.441L981.498 262.177L1001.43 259.027L999.934 252.821L968.968 257.715ZM984.398 321.782L993.994 361.626L1024.96 356.732L1023.45 350.47L998.285 354.447L995.749 343.919L1020.92 339.941L1019.41 333.679L994.241 337.657L991.692 327.072L1016.86 323.095L1015.36 316.888L984.398 321.782Z" fill="white"/>
<g clip-path="url(#clip0)">
<path d="M1072.48 325.108L1072.48 325.11L1073.93 392.685L1083.75 392.547L1082.1 315.505" fill="#EDD154"/>
<path d="M1190.56 332.882C1170.92 333.158 1170.71 323.726 1151.07 324.002C1131.42 324.279 1131.62 333.71 1111.98 333.986C1092.33 334.262 1092.13 324.831 1072.48 325.107L1071.45 277.019C1091.1 276.743 1091.3 286.174 1110.95 285.898C1130.59 285.622 1130.39 276.191 1150.04 275.914C1169.68 275.638 1169.89 285.07 1189.53 284.794L1190.56 332.882Z" fill="#49618C"/>
<path d="M1091.89 313.518L1091.88 313.52C1086.92 311.228 1081.96 308.94 1072.14 309.078L1071.79 293.051L1071.8 293.049C1081.62 292.911 1086.58 295.199 1091.54 297.489L1091.54 297.491L1091.89 313.518Z" fill="#E6E6E6"/>
<path d="M1111.64 317.958L1111.98 333.987C1102.15 334.125 1097.19 331.835 1092.23 329.547L1091.89 313.522C1096.85 315.81 1101.81 318.096 1111.63 317.958L1111.64 317.958Z" fill="#E6E6E6"/>
<path d="M1111.29 301.927L1111.29 301.927C1101.47 302.066 1096.51 299.779 1091.54 297.491L1091.54 297.489L1091.54 297.487L1091.2 281.46C1096.16 283.75 1101.12 286.036 1110.95 285.898L1110.95 285.9L1111.29 301.927Z" fill="#E6E6E6"/>
<path d="M1130.83 296.937L1131.18 312.966C1126.32 315.392 1121.46 317.818 1111.64 317.958L1111.29 301.927C1121.11 301.787 1125.97 299.365 1130.83 296.937Z" fill="#E6E6E6"/>
<path d="M1150.72 307.975L1151.07 324.002C1141.24 324.14 1136.38 326.569 1131.52 328.997L1131.18 312.966C1136.04 310.54 1140.9 308.113 1150.72 307.975Z" fill="#E6E6E6"/>
<path d="M1150.04 275.915L1150.38 291.944C1140.56 292.082 1135.7 294.507 1130.84 296.935L1130.49 280.908C1135.36 278.479 1140.21 276.051 1150.04 275.915Z" fill="#E6E6E6"/>
<path d="M1170.13 296.385L1170.47 312.412C1165.51 310.123 1160.55 307.836 1150.73 307.974L1150.72 307.976L1150.38 291.945C1160.21 291.804 1165.17 294.094 1170.13 296.385Z" fill="#E6E6E6"/>
<path d="M1190.22 316.854L1190.56 332.881C1180.74 333.017 1175.78 330.73 1170.82 328.443L1170.47 312.416L1170.47 312.411C1175.44 314.704 1180.4 316.992 1190.22 316.854Z" fill="#E6E6E6"/>
<path d="M1189.53 284.796L1189.88 300.823C1180.05 300.961 1175.1 298.675 1170.13 296.385L1169.79 280.356C1174.75 282.644 1179.71 284.934 1189.54 284.794L1189.53 284.796Z" fill="#E6E6E6"/>
</g>
<defs>
<clipPath id="clip0">
<rect width="160.841" height="159.686" transform="matrix(0.787576 0.616217 -0.766211 0.642589 1108.35 221.275)" fill="white"/>
</clipPath>
</defs>
</svg>
