<svg width="120" height="121" viewBox="0 0 120 121" fill="none" xmlns="http://www.w3.org/2000/svg">
<g clip-path="url(#clip0)">
<path d="M110.002 43.222C114.58 37.9529 115.888 31.6506 106.977 22.5588C104.381 9.29299 83.9433 0.883057 65.4471 0.883057C46.9508 0.883057 32.1333 6.50345 26.7582 16.0085H25.8589C22.2005 15.6366 18.0108 17.4136 12.8809 22.5588C3.2342 32.3118 5.46193 38.8827 10.8371 44.3998C13.9508 47.3701 17.7528 49.5017 21.894 50.5988C18.9645 56.2393 17.3826 62.4952 17.275 68.8651C17.2053 74.0407 18.5947 79.1294 21.2808 83.5359H21.056C14.2835 83.5359 8.7933 89.0867 8.7933 95.9339C8.7933 102.781 14.2835 108.332 21.056 108.332H25.1436L59.888 120.73L94.6323 108.332H98.7199C105.492 108.332 110.983 102.781 110.983 95.9339C110.983 89.0867 105.492 83.5359 98.7199 83.5359H98.4951C100.839 79.6946 102.182 75.3155 102.399 70.8074C106.67 79.8166 113.558 85.6849 113.558 77.6056C113.558 71.014 111.739 56.0539 110.002 43.222Z" fill="#A56A43"/>
<path d="M90.5446 37.4363C87.5542 34.2035 87.5542 29.1804 90.5446 25.9476C91.5579 24.6282 93.0103 23.7251 94.6321 23.406C95.4088 23.406 97.6365 23.8399 101.663 27.9313C108.223 34.5435 106.384 36.3825 103.707 39.172C102.063 40.7334 99.8644 41.5552 97.6117 41.4501C95.359 41.345 93.2445 40.3219 91.7504 38.6141L90.5446 37.4363Z" fill="#FF5364"/>
<path d="M95.8996 45.4742C94.7708 45.6283 93.7323 44.828 93.5799 43.6868C93.4275 42.5456 94.219 41.4956 95.3478 41.3416C97.9114 40.6871 100.272 39.3943 102.215 37.5809C103.441 36.3411 104.116 35.6179 104.116 34.874C104.116 34.1301 103.421 32.477 100.253 29.2536C96.4105 25.4516 94.6324 25.4102 94.6324 25.4102C94.6324 25.4102 93.8558 25.4102 91.9959 27.3319C90.3582 29.0933 89.1478 31.2155 88.4602 33.5309C88.1268 34.6203 86.9834 35.2307 85.9055 34.8946C85.3832 34.733 84.9467 34.3668 84.6933 33.8776C84.4399 33.3885 84.3906 32.8172 84.5566 32.2911C85.4334 29.3173 86.9873 26.5927 89.0938 24.3357C90.4739 22.6239 92.4619 21.5262 94.6324 21.2776C96.1857 21.2776 98.9244 22.1661 103.114 26.4021C106.65 29.9768 108.162 32.601 108.183 34.8946C107.991 37.1485 106.862 39.214 105.076 40.577C102.625 42.881 99.6481 44.5352 96.4105 45.3916C96.2455 45.4457 96.0731 45.4736 95.8996 45.4742Z" fill="#805333"/>
<path d="M28.1682 38.6346C26.6741 40.3424 24.5596 41.3655 22.3069 41.4706C20.0542 41.5757 17.8554 40.7539 16.2121 39.1926C13.453 36.403 11.6135 34.564 18.2558 27.9518C22.3434 23.8191 24.5098 23.4265 25.2865 23.4265C26.9083 23.7456 28.3607 24.6487 29.374 25.9681C32.3644 29.201 32.3644 34.224 29.374 37.4568L28.1682 38.6346Z" fill="#FF5364"/>
<path d="M23.8968 45.4743C23.7141 45.5044 23.5277 45.5044 23.345 45.4743C20.1074 44.6179 17.1301 42.9638 14.6793 40.6598C12.8996 39.2916 11.7719 37.2289 11.5728 34.9774C11.5728 32.5805 13.1056 30.0596 16.6413 26.4848C20.8311 22.3522 23.5698 21.3604 25.1231 21.3604C27.3061 21.6299 29.296 22.7584 30.6617 24.5012C32.7682 26.7581 34.3221 29.4827 35.1989 32.4565C35.3649 32.9826 35.3156 33.5539 35.0622 34.043C34.8088 34.5322 34.3723 34.8984 33.85 35.0601C33.3187 35.2249 32.7438 35.1638 32.258 34.8909C31.7721 34.618 31.4172 34.1568 31.2749 33.6136C30.5873 31.2983 29.3768 29.1761 27.7391 27.4147C25.8793 25.5343 25.1231 25.493 25.1026 25.493C25.0822 25.493 23.345 25.493 19.5026 29.3983C16.3552 32.5392 15.6603 34.1509 15.6603 34.9361C15.6603 35.7213 16.3348 36.4032 17.561 37.643C19.5068 39.4521 21.8664 40.7443 24.4282 41.4037C24.9515 41.5485 25.3963 41.8978 25.6647 42.3746C25.933 42.8513 26.0029 43.4164 25.8588 43.9452C25.6197 44.8433 24.8166 45.4691 23.8968 45.4743Z" fill="#805333"/>
<path d="M86.8045 19.294C86.314 19.6866 85.8235 20.1205 85.333 20.5751C82.1398 23.687 79.9283 27.6842 78.9768 32.0639C73.0597 29.0654 66.5047 27.5824 59.8879 27.7453C53.2711 27.5824 46.716 29.0654 40.7989 32.0639C39.8474 27.6842 37.6359 23.687 34.4427 20.5751C33.9522 20.1205 33.4617 19.6866 32.9712 19.294C36.5887 16.7938 44.4164 13.281 59.8879 13.281C75.3593 13.281 83.187 16.7938 86.8045 19.294Z" fill="#F3D55B"/>
<path d="M106.895 22.6208C98.0862 13.7149 92.057 15.0167 86.784 19.356C83.187 16.7937 75.3593 13.281 59.8878 13.281C44.4163 13.281 36.5886 16.7937 32.9711 19.294C31.2265 17.7259 29.1169 16.631 26.8398 16.1119C26.55 16.0503 26.2563 16.0089 25.9609 15.9879H26.8602C32.1332 6.50345 46.9302 0.883057 65.4469 0.883057C83.9636 0.883057 104.381 9.29299 106.895 22.6208Z" fill="#3B97D3"/>
<path d="M113.558 77.6056C113.558 85.6849 106.67 79.8166 102.399 70.8074C102.399 70.1875 102.399 69.5469 102.399 68.8857C102.291 62.5158 100.709 56.26 97.7798 50.6194C101.921 49.5224 105.723 47.3908 108.837 44.4205C109.232 44.0348 109.6 43.6422 109.94 43.2427C111.739 56.0539 113.558 71.014 113.558 77.6056Z" fill="#3B97D3"/>
<path d="M40.4721 60.8063C44.4227 60.8063 47.6254 57.5684 47.6254 53.5742C47.6254 49.58 44.4227 46.342 40.4721 46.342C36.5215 46.342 33.3188 49.58 33.3188 53.5742C33.3188 57.5684 36.5215 60.8063 40.4721 60.8063Z" fill="#603E26"/>
<path d="M45.5812 53.5743C45.5853 53.9783 45.5372 54.3812 45.4382 54.7727C44.9949 56.6677 43.5314 58.1472 41.6572 58.5954C41.2699 58.6955 40.8714 58.7441 40.4718 58.7401C37.6499 58.7401 35.3623 56.4272 35.3623 53.5743C35.3623 50.7213 37.6499 48.4084 40.4718 48.4084C43.2937 48.4084 45.5812 50.7213 45.5812 53.5743Z" fill="white"/>
<path d="M45.4384 54.7728C44.9951 56.6678 43.5317 58.1473 41.6574 58.5956C40.2576 58.1791 39.3467 56.8173 39.4856 55.3487C39.6246 53.8801 40.7744 52.7176 42.227 52.5771C43.6796 52.4366 45.0265 53.3576 45.4384 54.7728Z" fill="#2C2F38"/>
<path d="M79.3041 60.8063C83.2548 60.8063 86.4574 57.5684 86.4574 53.5742C86.4574 49.58 83.2548 46.342 79.3041 46.342C75.3535 46.342 72.1509 49.58 72.1509 53.5742C72.1509 57.5684 75.3535 60.8063 79.3041 60.8063Z" fill="#603E26"/>
<path d="M59.8879 60.8064C52.6733 60.8064 46.5624 67.2533 44.396 73.9069L59.8879 79.4033L75.3798 73.8656C73.2134 67.212 67.1025 60.8064 59.8879 60.8064ZM59.8879 69.0717C57.6304 69.0717 55.8003 67.2214 55.8003 64.939C55.8003 62.6566 57.6304 60.8064 59.8879 60.8064C62.1454 60.8064 63.9755 62.6566 63.9755 64.939C63.9755 67.2214 62.1454 69.0717 59.8879 69.0717Z" fill="#CBB292"/>
<path d="M59.8879 69.0717C62.1454 69.0717 63.9754 67.2214 63.9754 64.939C63.9754 62.6566 62.1454 60.8064 59.8879 60.8064C57.6304 60.8064 55.8003 62.6566 55.8003 64.939C55.8003 67.2214 57.6304 69.0717 59.8879 69.0717Z" fill="#5F5346"/>
<path d="M59.8879 79.4033V120.73L25.1436 108.332C27.4011 108.332 29.2311 106.482 29.2311 104.199V87.6686C29.2311 85.3862 27.4011 83.5359 25.1436 83.5359V67.0054L44.396 73.8656L59.8879 79.4033Z" fill="#E64C3C"/>
<path d="M90.5445 87.6686V104.199C90.5445 106.482 92.3746 108.332 94.6321 108.332L59.8877 120.73V79.4033L75.3796 73.8656L94.6321 67.0054V83.5359C92.3746 83.5359 90.5445 85.3862 90.5445 87.6686Z" fill="#C03A2B"/>
<path d="M29.2313 87.6685V104.199C29.2313 106.482 27.4012 108.332 25.1437 108.332H21.0562C14.2837 108.332 8.79346 102.781 8.79346 95.9338C8.79346 89.0866 14.2837 83.5359 21.0562 83.5359H25.1437C26.2278 83.5359 27.2675 83.9713 28.0341 84.7463C28.8007 85.5213 29.2313 86.5725 29.2313 87.6685Z" fill="#805333"/>
<path d="M110.983 95.9338C110.983 102.781 105.493 108.332 98.7201 108.332H94.6325C92.375 108.332 90.5449 106.482 90.5449 104.199V87.6685C90.5449 85.3861 92.375 83.5359 94.6325 83.5359H98.7201C105.493 83.5359 110.983 89.0866 110.983 95.9338Z" fill="#805333"/>
<path d="M84.4135 53.5743C84.4135 56.4272 82.1259 58.7401 79.304 58.7401C78.9044 58.7441 78.5059 58.6955 78.1186 58.5954C76.2444 58.1472 74.781 56.6677 74.3376 54.7727C74.2386 54.3812 74.1905 53.9783 74.1946 53.5743C74.1946 50.7213 76.4822 48.4084 79.304 48.4084C82.1259 48.4084 84.4135 50.7213 84.4135 53.5743Z" fill="white"/>
<path d="M80.3257 55.6406C80.3304 57.0151 79.4274 58.2239 78.1184 58.5954C76.2441 58.1472 74.7807 56.6676 74.3374 54.7727C74.7324 53.2621 76.1838 52.2902 77.7136 52.5119C79.2434 52.7336 80.3663 54.0786 80.3257 55.6406Z" fill="#2C2F38"/>
</g>
<defs>
<clipPath id="clip0">
<rect x="0.618164" y="0.883057" width="118.54" height="119.847" fill="white"/>
</clipPath>
</defs>
</svg>
