<svg width="117" height="111" viewBox="0 0 117 111" fill="none" xmlns="http://www.w3.org/2000/svg">
<path d="M33.6614 0.859794C40.0911 0.274725 45.7009 5.67519 46.1921 12.9233C46.6855 20.1693 41.8717 26.5159 35.442 27.1009C29.0141 27.686 23.4025 22.2855 22.9113 15.0396C22.4197 7.79182 27.2314 1.44486 33.6614 0.859794Z" fill="#EAAE95"/>
<path d="M34.5892 7.00738C38.0529 6.69127 41.0757 9.60187 41.3417 13.508C41.6078 17.4122 39.0131 20.8339 35.5494 21.1481C32.0838 21.4642 29.0607 18.5536 28.7946 14.6475C28.5286 10.7433 31.1232 7.32165 34.5892 7.00738Z" fill="#E3C04D"/>
<path d="M83.4717 0.859794C77.0438 0.274725 71.4322 5.67519 70.941 12.9233C70.4498 20.1693 75.2615 26.5159 81.6912 27.1009C88.1209 27.686 93.7306 22.2855 94.2219 15.0396C94.7153 7.79182 89.9014 1.44486 83.4717 0.859794Z" fill="#EAAE95"/>
<path d="M82.5438 7.00738C79.08 6.69127 76.0572 9.60187 75.7912 13.508C75.5252 17.4122 78.1198 20.8339 81.5857 21.1481C85.0495 21.4642 88.0745 18.5536 88.3383 14.6475C88.604 10.7433 86.0094 7.32165 82.5438 7.00738Z" fill="#E3C04D"/>
<path d="M58.5034 46.6318L58.5664 46.6381L58.6295 46.6318C80.4367 44.3494 81.7704 52.5105 88.527 73.111C95.2836 93.7133 75.5353 100.848 58.5664 100.848C41.5976 100.848 21.8489 93.7133 28.6059 73.111C35.3646 52.5109 36.6966 44.3494 58.5034 46.6318Z" fill="#C4A092"/>
<path d="M41.8899 81.1287C41.8899 69.3116 49.3571 59.7339 58.5665 59.7339C67.776 59.7339 75.2431 69.3116 75.2431 81.1287C75.2431 97.6628 41.8899 97.6628 41.8899 81.1287Z" fill="#F8F8F8"/>
<path d="M58.5664 1.41431C73.6189 1.41431 85.8209 12.4433 85.8209 26.0461C85.8209 39.6512 73.6189 50.6802 58.5664 50.6802C43.514 50.6802 31.312 39.6512 31.312 26.0461C31.3124 12.4429 43.514 1.41431 58.5664 1.41431Z" fill="#C4A092"/>
<path d="M58.5665 3.49341C72.3478 3.49341 83.5204 13.5903 83.5204 26.0458C83.5204 38.5032 72.3478 48.6004 58.5665 48.6004C44.7851 48.6004 33.6125 38.5036 33.6125 26.0458C33.6125 13.5906 44.7851 3.49341 58.5665 3.49341Z" fill="#EAAE95"/>
<path d="M58.5034 26.0583C64.4925 26.0583 69.3512 28.1337 69.3512 33.3883C69.3512 38.6432 64.4929 45.0863 58.5034 45.0863C52.5121 45.0863 47.6555 38.6432 47.6555 33.3883C47.6559 28.1337 52.5121 26.0583 58.5034 26.0583Z" fill="#F8F8F8"/>
<path d="M58.6091 27.6367C61.3582 27.6367 63.5873 29.1639 63.5873 31.0484C63.5873 32.9307 61.3582 34.46 58.6091 34.46C55.86 34.46 53.6309 32.9307 53.6309 31.0484C53.6309 29.1639 55.8603 27.6367 58.6091 27.6367Z" fill="#68606E"/>
<path d="M58.26 34.2688H59.1189V36.7631H58.26V34.2688Z" fill="#68606E"/>
<path d="M60.215 38.1611C60.9011 38.857 61.8187 39.284 62.83 39.284C63.8412 39.284 64.7588 38.857 65.4468 38.1611C65.9158 37.6847 66.2773 37.0794 66.4843 36.4018H67.3046C67.071 37.4364 66.5718 38.3497 65.8958 39.0376C65.0817 39.8629 64.0056 40.3658 62.83 40.3658C61.6544 40.3658 60.5805 39.8629 59.7664 39.0376C59.328 38.5943 58.9643 38.0564 58.7005 37.453C58.4344 38.0564 58.0711 38.5943 57.6346 39.0376C56.8205 39.8629 55.7465 40.3658 54.5709 40.3658C53.3953 40.3658 52.3192 39.8629 51.5051 39.0376C50.8291 38.3501 50.3295 37.4364 50.0959 36.4018H50.9162C51.1232 37.0794 51.4847 37.6847 51.9537 38.1611C52.6421 38.857 53.5597 39.284 54.5706 39.284C55.5818 39.284 56.4994 38.857 57.1874 38.1611C58.3448 36.9891 58.156 36.603 58.2697 35.162L58.2635 35.0103H58.2817H58.6166H58.7832H59.1181H59.1363L59.1301 35.162C59.2445 36.603 59.0558 36.9887 60.215 38.1611Z" fill="#68606E"/>
<path d="M69.4854 16.8564C71.6092 16.8564 73.3307 18.706 73.3307 20.9884C73.3307 23.2708 71.6088 25.1226 69.4854 25.1226C67.3598 25.1226 65.6379 23.2712 65.6379 20.9884C65.6379 18.7056 67.3598 16.8564 69.4854 16.8564Z" fill="#F8F8F8"/>
<path d="M69.4853 18.2358C70.9695 18.2358 72.1754 19.4694 72.1754 20.9884C72.1754 22.5093 70.9695 23.7409 69.4853 23.7409C67.9992 23.7409 66.793 22.5093 66.793 20.9884C66.793 19.4694 67.9992 18.2358 69.4853 18.2358Z" fill="#68606E"/>
<path d="M68.6912 18.7302C69.2455 18.7302 69.6923 19.1878 69.6923 19.7545C69.6923 20.3189 69.2455 20.7787 68.6912 20.7787C68.1391 20.7787 67.6902 20.3189 67.6902 19.7545C67.6905 19.1882 68.1391 18.7302 68.6912 18.7302Z" fill="#F8F8F8"/>
<path d="M47.6497 16.8564C49.7735 16.8564 51.495 18.706 51.495 20.9884C51.495 23.2708 49.7735 25.1226 47.6497 25.1226C45.5241 25.1226 43.8022 23.2712 43.8022 20.9884C43.8022 18.7056 45.5241 16.8564 47.6497 16.8564Z" fill="#F8F8F8"/>
<path d="M47.6496 18.2358C49.1357 18.2358 50.3397 19.4694 50.3397 20.9884C50.3397 22.5093 49.1357 23.7409 47.6496 23.7409C46.1635 23.7409 44.9595 22.5093 44.9595 20.9884C44.9595 19.4694 46.1635 18.2358 47.6496 18.2358Z" fill="#68606E"/>
<path d="M46.8578 18.7302C47.4099 18.7302 47.8589 19.1878 47.8589 19.7545C47.8589 20.3189 47.4103 20.7787 46.8578 20.7787C46.3036 20.7787 45.855 20.3189 45.855 19.7545C45.855 19.1882 46.3036 18.7302 46.8578 18.7302Z" fill="white"/>
<path d="M4.20014 66.2861L29.2433 50.721C32.6662 48.5926 39.0212 45.4476 41.5 48.5472C40.6473 55.204 39.0008 61.7581 36.4711 63.5645L12.7617 79.3945C9.1966 81.7757 4.35246 80.7739 1.99726 77.1695C-1.02372 74.1127 0.56002 68.5482 4.20014 66.2861Z" fill="#EAAE95"/>
<path d="M112.935 66.2861L87.89 50.721C84.467 48.5926 78.112 45.4476 75.6333 48.5472C76.4882 55.204 78.1324 61.7581 80.6622 63.5645L104.372 79.3945C107.937 81.7757 112.781 80.7739 115.136 77.1695C118.157 74.1127 116.575 68.5482 112.935 66.2861Z" fill="#EAAE95"/>
<path d="M55.5904 52.8064L51.885 59.373L54.898 58.2562L56.2361 60.4444L58.7943 52.9582L55.5904 52.8064ZM62.4526 52.8064L66.158 59.373L63.1432 58.2562L61.8072 60.4444L59.2491 52.9582L62.4526 52.8064Z" fill="white"/>
<path d="M55.5902 52.8064L53.637 56.2671L58.1582 54.8199L58.7938 52.9582L55.5902 52.8064ZM59.8801 54.8099L64.1984 55.8997L62.4525 52.8064L59.2485 52.9582L59.8801 54.8099Z" fill="#F8F8F8"/>
<path d="M59.0211 50.8792L58.9744 50.8527L58.9722 50.793L58.8403 50.7764C57.7216 50.1523 51.7 46.9031 49.3609 47.833C48.1772 48.305 48.1772 55.0664 49.3609 55.5365C51.6997 56.4683 57.7216 53.2169 58.8403 52.595L58.9722 52.5766L58.9744 52.5191L59.0211 52.4925L59.0433 51.6857L59.0211 50.8792ZM59.0211 52.4925L58.9988 51.6857L59.0211 50.8788L59.0659 50.8523L59.0681 50.7926L59.2022 50.776C60.3209 50.1519 66.3425 46.9027 68.6795 47.8326C69.8631 48.3046 69.8631 55.066 68.6795 55.5362C66.3425 56.4679 60.3209 53.2165 59.2022 52.5946L59.0681 52.5762L59.0659 52.5187L59.0211 52.4925Z" fill="white"/>
<path d="M57.4642 49.4934H60.3817C60.7716 49.4934 61.0861 49.8117 61.0861 50.2056V53.1306C61.0861 53.5248 60.7712 53.8427 60.3817 53.8427H57.4642C57.0764 53.8427 56.7598 53.5244 56.7598 53.1306V50.2056C56.7598 49.8114 57.0764 49.4934 57.4642 49.4934Z" fill="#FA7876"/>
<path d="M57.4642 49.4912H60.3817C60.7694 49.4912 61.0861 49.8136 61.0861 50.2056V51.6856H56.7598V50.2056C56.7598 49.8136 57.0764 49.4912 57.4642 49.4912Z" fill="#FF8C8A"/>
<path d="M78.9708 82.8592C71.5622 89.0912 69.7128 99.1943 74.8412 105.426C79.9696 111.658 90.1331 111.66 97.5416 105.428C104.95 99.1984 106.798 89.0931 101.669 82.8614C96.5427 76.6294 86.3793 76.6272 78.9708 82.8592Z" fill="#EAAE95"/>
<path d="M90.7198 82.2454C90.0092 83.7644 90.4476 85.4784 91.6964 86.0756C92.9471 86.6728 94.5348 85.9257 95.2454 84.407C95.9538 82.8902 95.5176 81.174 94.2669 80.5786C93.0181 79.9814 91.4304 80.7264 90.7198 82.2454Z" fill="#C4A092"/>
<path d="M96.7519 85.501C95.5337 86.6217 95.2921 88.3604 96.2159 89.3868C97.1375 90.411 98.8713 90.3329 100.09 89.2122C101.308 88.0914 101.549 86.3528 100.626 85.3285C99.704 84.3043 97.9701 84.3802 96.7519 85.501Z" fill="#C4A092"/>
<path d="M98.439 92.5519C97.2207 93.6726 96.9813 95.4113 97.9029 96.4355C98.8245 97.4619 100.558 97.3838 101.779 96.2631C102.997 95.1423 103.236 93.4037 102.315 92.3794C101.391 91.353 99.6568 91.4311 98.439 92.5519Z" fill="#C4A092"/>
<path d="M38.1623 82.8592C45.5709 89.0912 47.4202 99.1943 42.2919 105.426C37.1635 111.658 27.0018 111.66 19.5933 105.428C12.1848 99.1984 10.3354 89.0931 15.4638 82.8614C20.5925 76.6294 30.7542 76.6272 38.1623 82.8592Z" fill="#EAAE95"/>
<path d="M37.2589 89.9941C41.6708 93.7053 42.771 99.7196 39.7176 103.431C36.6642 107.142 30.6138 107.142 26.2041 103.433C21.7921 99.7218 20.692 93.7075 23.7454 89.9963C26.7988 86.2851 32.8491 86.2851 37.2589 89.9941Z" fill="#C4A092"/>
<path d="M26.4131 82.2454C27.1238 83.7644 26.6854 85.4784 25.4365 86.0756C24.188 86.6728 22.5981 85.9257 21.8897 84.407C21.1791 82.8902 21.6175 81.174 22.8663 80.5786C24.1148 79.9814 25.7047 80.7264 26.4131 82.2454Z" fill="#C4A092"/>
<path d="M20.3833 85.501C21.6015 86.6217 21.841 88.3604 20.9194 89.3868C19.9978 90.411 18.2617 90.3329 17.0435 89.2122C15.8252 88.0914 15.5858 86.3528 16.5074 85.3285C17.429 84.3043 19.1651 84.3802 20.3833 85.501Z" fill="#C4A092"/>
<path d="M18.696 92.5519C19.9142 93.6726 20.1536 95.4113 19.232 96.4355C18.3083 97.4619 16.5744 97.3838 15.3562 96.2631C14.1379 95.1423 13.8963 93.4037 14.8201 92.3794C15.7421 91.353 17.4781 91.4311 18.696 92.5519Z" fill="#C4A092"/>
<path d="M78.9705 82.8592C71.562 89.0912 69.7126 99.1943 74.841 105.426C79.9694 111.658 90.1328 111.66 97.5414 105.428C97.862 105.157 98.1747 104.88 98.4753 104.595C91.0993 110.529 81.1814 110.429 76.1365 104.297C71.2315 98.334 72.7095 88.8326 79.332 82.5637C79.2103 82.6602 79.0904 82.7586 78.9705 82.8592Z" fill="#C4A092"/>
<path d="M79.874 89.9941C75.4621 93.7053 74.3619 99.7196 77.4153 103.431C80.4687 107.142 86.5191 107.142 90.9306 103.433C95.3404 99.7218 96.4409 93.7075 93.3893 89.9963C90.3359 86.2851 84.2859 86.2851 79.874 89.9941Z" fill="#C4A092"/>
<path d="M38.1622 82.8592C45.5725 89.0912 47.4201 99.1943 42.2917 105.426C37.1633 111.658 27.0017 111.66 19.5932 105.428C19.2703 105.157 18.9598 104.88 18.6592 104.595C26.0331 110.529 35.9531 110.429 40.9981 104.297C45.9031 98.334 44.4232 88.8326 37.8025 82.5637C37.9228 82.6602 38.0445 82.7586 38.1622 82.8592Z" fill="#C4A092"/>
<path d="M58.5664 74.9298C58.5664 72.1691 56.3515 69.9294 53.6188 69.9294C50.886 69.9294 48.6711 72.1688 48.6711 74.9298C48.6711 81.5947 56.1751 84.5753 58.5668 88.7769C60.9584 84.5749 68.4624 81.5947 68.4624 74.9298C68.4624 72.1691 66.2475 69.9294 63.5148 69.9294C60.782 69.9294 58.5664 72.1688 58.5664 74.9298Z" fill="#FF8C8A"/>
<path d="M57.9292 87.8287C58.1686 88.1385 58.3818 88.4546 58.5666 88.777C60.9582 84.5751 68.4622 81.5948 68.4622 74.9299C68.4622 72.1693 66.2473 69.9277 63.5146 69.9277C63.2992 69.9277 63.086 69.9421 62.8772 69.9686C65.3093 70.2848 67.1893 72.3866 67.1893 74.9299C67.1893 81.0816 60.7938 84.0968 57.9292 87.8287Z" fill="#FA7876"/>
<path d="M58.5727 74.6919C58.2622 71.1675 55.4682 69.9277 53.6188 69.9277C53.4034 69.9277 53.1903 69.9421 52.9814 69.9686C55.4135 70.2848 57.9353 74.6013 57.9353 77.1468C57.9353 76.2537 58.1667 75.4162 58.5727 74.6919Z" fill="#FA7876"/>
</svg>
