<svg width="136" height="107" viewBox="0 0 136 107" fill="none" xmlns="http://www.w3.org/2000/svg">
<path d="M125.698 32.3669C125.157 28.2625 125.08 21.1931 128.858 18.8193C128.926 18.7758 128.976 18.7129 129.035 18.6589C132.124 17.662 134.262 16.2629 132.584 14.3804L87.0187 0.526855L13.2382 10.8775C13.2382 10.8775 4.78946 12.096 5.54421 25.3411C5.95393 32.5499 8.19461 36.0902 10.1542 37.8326L4.0998 39.6737C2.41939 41.5563 4.55664 42.9557 7.64592 43.951C7.70462 44.0066 7.75414 44.0691 7.82283 44.1126C11.5986 46.4884 11.5259 53.557 10.9828 57.6623C-2.58151 61.5487 2.28761 62.8152 2.28761 62.8152L5.26307 63.5417C3.17014 65.4501 1.09159 69.069 1.48095 75.9325C2.23609 89.1751 9.17578 90.089 9.17578 90.089L57.4573 105.924L130.332 88.113C130.332 88.113 135.203 86.8445 121.635 82.9576C121.09 78.8588 121.014 71.791 124.798 69.4091C124.868 69.3668 124.919 69.3027 124.975 69.2496C128.064 68.2526 130.2 66.8548 128.521 64.9722L125.354 64.0071C127.466 62.7217 130.639 59.3623 131.137 50.636C131.48 44.6336 129.928 41.1182 128.132 39.0487L134.392 37.5199C134.393 37.522 138.026 36.5762 130.278 33.8145C129.055 33.3784 127.548 32.897 125.698 32.3669ZM64.742 32.1973L76.9969 29.6559L118.411 21.0682L124.582 19.7876C122.61 23.4286 122.693 28.4116 123.019 31.6142C123.09 32.3387 123.173 33.0004 123.253 33.5033L116.499 35.1977L64.2269 48.319L64.742 32.1973ZM12.1001 45.0849L18.2695 46.3655L58.0423 54.6155L61.517 55.3336L71.9369 57.4946L72.4508 73.6167L18.7263 60.1295L13.4299 58.8014C13.5078 58.2977 13.5901 57.6369 13.6647 56.9104C13.989 53.7101 14.0733 48.726 12.1001 45.0849ZM9.70331 24.7036C9.62863 21.1806 10.2508 18.6327 11.5083 17.3376C12.3086 16.5108 13.253 16.3387 13.9007 16.3387C14.243 16.3387 14.4894 16.3867 14.5061 16.3867L46.2962 26.8445L62.1567 32.0623L61.6364 48.2968L17.1414 35.7094L14.7933 35.0458C14.707 35.0212 14.59 35.0043 14.4998 35.0002C14.3165 34.9869 9.91735 34.5783 9.70331 24.7036ZM57.5723 98.8907L10.7304 85.6392C10.6437 85.6139 10.5279 85.5969 10.4377 85.5925C10.2512 85.58 5.8501 85.1718 5.63725 75.2995C5.56138 71.772 6.18674 69.2266 7.44186 67.9303C8.24413 67.1034 9.18896 66.9314 9.83549 66.9314C10.1785 66.9314 10.4241 66.9777 10.4421 66.9777L58.0894 82.6558L57.5723 98.8907ZM118.952 82.2057C119.026 82.9326 119.109 83.593 119.188 84.0967L60.1616 98.9137L60.6775 82.7916L73.297 80.1736L75.1607 80.6285L82.1459 78.3377L114.345 71.6612L120.517 70.3798C118.544 74.0205 118.626 79.0054 118.952 82.2057ZM122.204 60.2951C122.096 60.2976 121.989 60.3121 121.888 60.3443L117.436 61.6019L75.0473 73.5954L74.529 57.3609L88.4363 52.7837L122.111 41.7021C122.116 41.7001 123.883 41.304 125.18 42.635C126.435 43.9301 127.058 46.4779 126.985 50.0009C126.765 59.8725 122.364 60.2827 122.204 60.2951Z" fill="#2121C4"/>
<path d="M11.5107 45.3828L17.6801 46.6634L57.4529 54.9134L60.9276 55.6315L71.3475 57.7925L71.8614 73.9146L18.137 60.4274L12.8405 59.0993C12.9184 58.5956 13.0007 57.9348 13.0753 57.2083C13.3996 54.008 13.4839 49.0239 11.5107 45.3828ZM121.614 60.593C121.507 60.5955 121.4 60.61 121.299 60.6422L116.847 61.8998L74.4579 73.8933L73.9396 57.6587L87.8469 53.0816L121.522 42C121.526 41.998 123.293 41.6019 124.59 42.9329C125.846 44.228 126.469 46.7758 126.395 50.2988C126.176 60.1703 121.775 60.5806 121.614 60.593Z" fill="#F4EFE9"/>
<path d="M0.278452 75.5778C-0.116096 68.6228 1.99018 64.9556 4.11103 63.0217L73.0525 79.8755L74.9411 80.3365L82.0195 78.0151L125.804 63.4933L129.014 64.4713C130.714 66.379 128.55 67.7955 125.42 68.8057C125.363 68.8596 125.311 68.9245 125.241 68.9674C121.406 71.381 121.483 78.5431 122.036 82.6966C135.784 86.6353 130.849 87.9207 130.849 87.9207L57.0015 105.97L8.07593 89.9232C8.07593 89.9232 1.04367 88.9971 0.278452 75.5778Z" fill="#8D0C68"/>
<path d="M57.1176 99.1221L9.65081 85.6938C9.56299 85.6681 9.44564 85.6509 9.35419 85.6464C9.16521 85.6338 4.7054 85.2201 4.48971 75.2161C4.41283 71.6416 5.04653 69.0622 6.31839 67.7486C7.13136 66.9107 8.0888 66.7364 8.74395 66.7364C9.09156 66.7364 9.34043 66.7833 9.35864 66.7833L57.6416 82.6705L57.1176 99.1221ZM119.317 82.2144C119.391 82.9511 119.475 83.6203 119.556 84.1307L59.7414 99.1453L60.2642 82.8081L73.052 80.1552L74.9406 80.6162L82.019 78.2949L114.648 71.5293L120.902 70.2308C118.903 73.9201 118.986 78.9715 119.317 82.2144Z" fill="#F4EFE9"/>
<path d="M129.187 18.8249C125.409 21.1987 125.485 28.2681 126.026 32.3725C128.906 33.3979 134.725 35.6269 134.96 36.3401C135.196 37.0533 134.47 37.3307 134.077 37.3802L67.5215 54.9126L10.4829 37.8382C8.52331 36.0958 6.28263 32.5555 5.87291 25.3467C5.11816 12.1016 13.5669 10.8831 13.5669 10.8831L87.3474 0.532471L132.913 14.386C134.591 16.2686 132.453 17.6676 129.364 18.6645C129.305 18.7185 129.255 18.7814 129.187 18.8249Z" fill="#10696D"/>
<path d="M65.3338 32.2382L77.5887 29.6968L119.003 21.1091L125.173 19.8285C123.202 23.4696 123.284 28.4525 123.611 31.6552C123.682 32.3797 123.764 33.0413 123.844 33.5442L117.091 35.2386L64.8186 48.3599L65.3338 32.2382ZM10.2951 24.7445C10.2204 21.2215 10.8426 18.6736 12.1001 17.3786C12.9004 16.5517 13.8448 16.3796 14.4925 16.3796C14.8347 16.3796 15.0811 16.4276 15.0979 16.4276L46.888 26.8854L62.7485 32.1032L62.2281 48.3378L17.7331 35.7504L15.385 35.0867C15.2988 35.0621 15.1818 35.0452 15.0915 35.0412C14.9082 35.0279 10.5091 34.6193 10.2951 24.7445Z" fill="#F4EFE9"/>
</svg>
