<svg width="94" height="94" viewBox="0 0 94 94" fill="none" xmlns="http://www.w3.org/2000/svg">
<g clip-path="url(#clip0)">
<path d="M69.9363 70.3996V75.5187C69.9363 77.5665 71.5277 79.1752 73.4805 79.1752H79.3396V70.3994H69.9363V70.3996ZM14.2395 79.1754H20.0986C22.0516 79.1754 23.6429 77.5665 23.6429 75.5189V70.3998H14.2395C14.2395 70.4 14.2395 79.1754 14.2395 79.1754Z" fill="#1E2E37"/>
<path d="M76.4463 70.3997V82.32C76.4463 85.0258 78.6162 87.2199 81.2203 87.2199H83.8966C86.5729 87.2199 88.6707 85.026 88.6707 82.32V68.937L76.4463 70.3997ZM4.83618 82.32C4.83618 85.0258 7.00612 87.2199 9.61023 87.2199H12.2865C14.9628 87.2199 17.0606 85.026 17.0606 82.32V70.3997L4.83618 68.937V82.32Z" fill="#324D5B"/>
<path d="M46.5002 6.77563H46.7173C71.2384 6.77563 77.1697 17.3797 77.1697 37.4907H16.4094C16.4094 17.3797 22.4131 6.77563 46.5002 6.77563Z" fill="#1876A9"/>
<path d="M46.5726 10.4321H46.7897C68.3451 10.4321 73.5531 19.7929 73.5531 37.4907H20.0261C20.0261 19.793 25.3065 10.4321 46.5726 10.4321Z" fill="#85C6DC"/>
<path d="M46.7895 62.3555C61.5456 62.3555 73.5529 65.1344 73.5529 68.5716C73.5529 72.0088 61.5456 74.7878 46.7895 74.7878C32.0334 74.7878 20.0261 72.0088 20.0261 68.5716C20.0259 65.1342 32.0334 62.3555 46.7895 62.3555Z" fill="#125478"/>
<path d="M16.6989 39.6848L46.862 35.2969L76.8804 39.6848C85.8498 39.6848 93.0832 47.0709 93.0832 56.2855V59.8689C93.0832 62.5015 91.9258 64.6224 88.4539 64.6224H5.12541C1.72569 64.5494 0.496094 62.4285 0.496094 59.7959V56.2126C0.496094 47.071 7.72952 39.6848 16.6989 39.6848Z" fill="#1876A9"/>
<path d="M4.18517 63.8179H89.3218C90.5514 63.8179 91.5641 64.7686 91.5641 66.0117C91.5641 68.4251 89.5387 70.3997 87.0071 70.3997H6.49983C3.96808 70.3997 1.94287 68.4251 1.94287 66.0117C1.94287 64.7686 2.95557 63.8179 4.18517 63.8179Z" fill="#E4E7E7"/>
<path d="M78.1101 37.4176C78.1101 37.4176 69.7195 40.7816 65.307 55.6273C65.307 55.6273 62.8476 63.818 57.2056 63.818H36.3737C30.7317 63.818 28.2723 55.6273 28.2723 55.6273C23.8599 40.7816 15.5416 37.5639 15.5416 37.5639C12.6482 36.3937 15.5416 34.6386 15.5416 34.6386C27.2596 27.9105 46.7897 28.7149 46.7897 28.7149C46.7897 28.7149 66.2476 27.8374 78.1101 34.6386C78.1101 34.6386 80.7864 36.1742 78.1101 37.4176Z" fill="#108ECB"/>
<path d="M31.4549 54.6036C31.8165 55.7738 33.6972 60.1615 36.0842 60.1615H42.4495V32.3716C31.4547 32.3716 24.2938 34.4193 20.0261 36.3207C23.3535 38.8804 28.3446 44.2188 31.4549 54.6036ZM51.1296 32.3716V60.1615H56.844C59.3034 60.1615 61.1117 55.7736 61.4733 54.6036C64.5114 44.3653 69.43 38.9535 72.7574 36.3207C68.6344 34.4193 61.6904 32.4447 51.1296 32.3716Z" fill="#1876A9"/>
<path d="M45.343 28.7151H48.2364V63.818H45.343V28.7151Z" fill="#1876A9"/>
<path d="M13.5161 46.2664C9.89947 46.2664 7.0061 49.1916 7.0061 52.8481C7.0061 56.5046 9.89947 59.4299 13.5161 59.4299C17.1327 59.4299 20.0261 56.5046 20.0261 52.8481C20.0261 49.1918 17.1329 46.2664 13.5161 46.2664ZM80.0631 46.2664C76.4465 46.2664 73.5531 49.1916 73.5531 52.8481C73.5531 56.5046 76.4465 59.4299 80.0631 59.4299C83.6797 59.4299 86.5731 56.5046 86.5731 52.8481C86.5731 49.1918 83.6797 46.2664 80.0631 46.2664Z" fill="#E0E3E4"/>
<path d="M13.5161 50.6545C12.2865 50.6545 11.3462 51.6052 11.3462 52.8484C11.3462 54.0916 12.2865 55.0423 13.5161 55.0423C14.7457 55.0423 15.6861 54.0916 15.6861 52.8484C15.6861 51.6052 14.6736 50.6545 13.5161 50.6545ZM80.0631 50.6545C78.8335 50.6545 77.8932 51.6052 77.8932 52.8484C77.8932 54.0916 78.8335 55.0423 80.0631 55.0423C81.2927 55.0423 82.2331 54.0916 82.2331 52.8484C82.2331 51.6052 81.2927 50.6545 80.0631 50.6545Z" fill="#C0C8CB"/>
<path d="M78.8334 36.0283H77.5314C76.0847 36.0283 74.9275 37.1253 74.9275 38.588V39.8311C74.9275 40.5624 76.3742 41.0743 78.1101 41.0743C79.9184 41.0743 81.2928 40.4892 81.2928 39.8311V38.588C81.4375 37.1983 80.2801 36.0283 78.8334 36.0283ZM15.9032 36.0283H14.6012C13.1546 36.0283 11.9973 37.1253 11.9973 38.588V39.8311C11.9973 40.5624 13.444 41.0743 15.1799 41.0743C16.9159 41.0743 18.3626 40.4892 18.3626 39.8311V38.588C18.5073 37.1983 17.3499 36.0283 15.9032 36.0283Z" fill="#F4B459"/>
<path d="M22.0515 22.9376C25.6681 21.1094 36.1566 16.429 46.645 16.429C57.2058 16.429 67.8387 21.1094 71.4554 22.9376C68.4173 14.6737 61.3287 10.4321 46.7895 10.4321H46.5724C32.2505 10.4321 25.162 14.6739 22.0515 22.9376Z" fill="#92D2E8"/>
<path d="M80.0631 47.729C82.8841 47.729 85.1264 49.996 85.1264 52.8481C85.1264 55.7003 82.8841 57.9673 80.0631 57.9673C77.2421 57.9673 74.9998 55.7003 74.9998 52.8481C74.9998 49.9962 77.2421 47.729 80.0631 47.729ZM13.5161 47.729C16.3371 47.729 18.5794 49.996 18.5794 52.8481C18.5794 55.7003 16.3371 57.9673 13.5161 57.9673C10.6951 57.9673 8.45279 55.7003 8.45279 52.8481C8.45279 49.9962 10.6951 47.729 13.5161 47.729ZM80.0631 46.2664C76.4465 46.2664 73.5531 49.1916 73.5531 52.8481C73.5531 56.5046 76.4465 59.4299 80.0631 59.4299C83.6797 59.4299 86.5731 56.5046 86.5731 52.8481C86.5731 49.1918 83.6797 46.2664 80.0631 46.2664ZM13.5161 46.2664C9.89947 46.2664 7.0061 49.1916 7.0061 52.8481C7.0061 56.5046 9.89947 59.4299 13.5161 59.4299C17.1327 59.4299 20.0261 56.5046 20.0261 52.8481C20.0261 49.1918 17.1329 46.2664 13.5161 46.2664Z" fill="#CCD0D2"/>
</g>
<defs>
<clipPath id="clip0">
<rect x="0.496094" y="0.193848" width="92.5872" height="93.6081" fill="white"/>
</clipPath>
</defs>
</svg>
