<svg width="107" height="108" viewBox="0 0 107 108" fill="none" xmlns="http://www.w3.org/2000/svg">
<g clip-path="url(#clip0)">
<path d="M80.3514 80.3877V86.2436C80.3514 88.5861 82.1719 90.4264 84.4058 90.4264H91.1083V80.3875H80.3514V80.3877ZM16.6377 90.4267H23.3402C25.5743 90.4267 27.3946 88.5861 27.3946 86.2438V80.3879H16.6377C16.6377 80.3881 16.6377 90.4267 16.6377 90.4267Z" fill="#1E2E37"/>
<path d="M87.7985 80.3878V94.024C87.7985 97.1192 90.2808 99.6291 93.2597 99.6291H96.3212C99.3827 99.6291 101.782 97.1194 101.782 94.024V78.7146L87.7985 80.3878ZM5.88086 94.024C5.88086 97.1192 8.36314 99.6291 11.3421 99.6291H14.4036C17.4651 99.6291 19.8648 97.1194 19.8648 94.024V80.3878L5.88086 78.7146V94.024Z" fill="#324D5B"/>
<path d="M53.5421 7.60547H53.7905C81.8411 7.60547 88.6262 19.7359 88.6262 42.7416H19.1201C19.1201 19.7359 25.9879 7.60547 53.5421 7.60547Z" fill="#BF392B"/>
<path d="M53.6249 11.7883H53.8733C78.5313 11.7883 84.489 22.4964 84.489 42.7416H23.2573C23.2573 22.4967 29.2978 11.7883 53.6249 11.7883Z" fill="#85C6DC"/>
<path d="M53.873 71.1855C70.7531 71.1855 84.4887 74.3645 84.4887 78.2965C84.4887 82.2284 70.7531 85.4074 53.873 85.4074C36.9929 85.4074 23.2573 82.2284 23.2573 78.2965C23.2571 74.3643 36.9929 71.1855 53.873 71.1855Z" fill="#85281E"/>
<path d="M19.451 45.2514L53.9558 40.2319L88.2951 45.2514C98.5555 45.2514 106.83 53.7008 106.83 64.2417V68.3408C106.83 71.3524 105.506 73.7786 101.534 73.7786H6.21168C2.3226 73.6951 0.916016 71.2689 0.916016 68.2574V64.1582C0.916016 53.7008 9.19062 45.2514 19.451 45.2514Z" fill="#BF392B"/>
<path d="M5.13586 72.8584H102.527C103.934 72.8584 105.092 73.9459 105.092 75.368C105.092 78.1288 102.775 80.3876 99.8792 80.3876H7.78369C4.88752 80.3876 2.5708 78.1288 2.5708 75.368C2.5708 73.9459 3.72927 72.8584 5.13586 72.8584Z" fill="#E4E7E7"/>
<path d="M89.7019 42.6582C89.7019 42.6582 80.1035 46.5065 75.056 63.489C75.056 63.489 72.2426 72.8587 65.7885 72.8587H41.958C35.5039 72.8587 32.6905 63.489 32.6905 63.489C27.6429 46.5065 18.1273 42.8256 18.1273 42.8256C14.8174 41.487 18.1273 39.4792 18.1273 39.4792C31.532 31.7827 53.8733 32.7029 53.8733 32.7029C53.8733 32.7029 76.1319 31.699 89.7019 39.4792C89.7019 39.4792 92.7634 41.2359 89.7019 42.6582Z" fill="#E2574C"/>
<path d="M36.3311 62.3176C36.7448 63.6562 38.8962 68.6755 41.6268 68.6755H48.9083V36.8855C36.3309 36.8855 28.1393 39.228 23.2573 41.4031C27.0636 44.3312 32.7732 50.438 36.3311 62.3176ZM58.8378 36.8855V68.6755H65.3747C68.1881 68.6755 70.2567 63.656 70.6704 62.3176C74.1458 50.6056 79.7724 44.4149 83.5787 41.4031C78.8622 39.228 70.9187 36.9692 58.8378 36.8855Z" fill="#BF392B"/>
<path d="M52.2183 32.7029H55.5281V72.8585H52.2183V32.7029Z" fill="#E87970"/>
<path d="M15.8103 52.7805C11.6731 52.7805 8.36328 56.1269 8.36328 60.3097C8.36328 64.4925 11.6731 67.8388 15.8103 67.8388C19.9475 67.8388 23.2574 64.4925 23.2574 60.3097C23.2574 56.1271 19.9477 52.7805 15.8103 52.7805ZM91.9361 52.7805C87.7989 52.7805 84.489 56.1269 84.489 60.3097C84.489 64.4925 87.7989 67.8388 91.9361 67.8388C96.0733 67.8388 99.3831 64.4925 99.3831 60.3097C99.3831 56.1271 96.0733 52.7805 91.9361 52.7805Z" fill="#E0E3E4"/>
<path d="M15.8099 57.8003C14.4033 57.8003 13.3276 58.8878 13.3276 60.31C13.3276 61.7321 14.4033 62.8196 15.8099 62.8196C17.2165 62.8196 18.2922 61.7321 18.2922 60.31C18.2922 58.8878 17.1339 57.8003 15.8099 57.8003ZM91.9357 57.8003C90.5291 57.8003 89.4534 58.8878 89.4534 60.31C89.4534 61.7321 90.5291 62.8196 91.9357 62.8196C93.3422 62.8196 94.4179 61.7321 94.4179 60.31C94.4179 58.8878 93.3422 57.8003 91.9357 57.8003Z" fill="#C0C8CB"/>
<path d="M90.5292 41.0688H89.0398C87.3849 41.0688 86.0611 42.3238 86.0611 43.9969V45.419C86.0611 46.2555 87.716 46.8411 89.7018 46.8411C91.7704 46.8411 93.3426 46.1718 93.3426 45.419V43.9969C93.5081 42.4073 92.1841 41.0688 90.5292 41.0688ZM18.5409 41.0688H17.0515C15.3966 41.0688 14.0728 42.3238 14.0728 43.9969V45.419C14.0728 46.2555 15.7277 46.8411 17.7135 46.8411C19.6993 46.8411 21.3542 46.1718 21.3542 45.419V43.9969C21.5198 42.4073 20.1958 41.0688 18.5409 41.0688Z" fill="#F4B459"/>
<path d="M25.5742 26.0938C29.7114 24.0024 41.7095 18.6484 53.7077 18.6484C65.7886 18.6484 77.952 24.0024 82.0892 26.0938C78.6138 16.6405 70.505 11.7883 53.873 11.7883H53.6247C37.2412 11.7883 29.1324 16.6407 25.5742 26.0938Z" fill="#92D2E8"/>
<path d="M91.9361 54.4537C95.1631 54.4537 97.7282 57.047 97.7282 60.3097C97.7282 63.5723 95.1631 66.1657 91.9361 66.1657C88.709 66.1657 86.144 63.5723 86.144 60.3097C86.144 57.0472 88.709 54.4537 91.9361 54.4537ZM15.8103 54.4537C19.0374 54.4537 21.6024 57.047 21.6024 60.3097C21.6024 63.5723 19.0374 66.1657 15.8103 66.1657C12.5833 66.1657 10.0182 63.5723 10.0182 60.3097C10.0182 57.0472 12.5833 54.4537 15.8103 54.4537ZM91.9361 52.7805C87.7989 52.7805 84.489 56.1269 84.489 60.3097C84.489 64.4925 87.7989 67.8388 91.9361 67.8388C96.0733 67.8388 99.3831 64.4925 99.3831 60.3097C99.3831 56.1271 96.0733 52.7805 91.9361 52.7805ZM15.8103 52.7805C11.6731 52.7805 8.36328 56.1269 8.36328 60.3097C8.36328 64.4925 11.6731 67.8388 15.8103 67.8388C19.9475 67.8388 23.2574 64.4925 23.2574 60.3097C23.2574 56.1271 19.9477 52.7805 15.8103 52.7805Z" fill="#CCD0D2"/>
</g>
<defs>
<clipPath id="clip0">
<rect x="0.916016" y="0.076416" width="105.914" height="107.082" fill="white"/>
</clipPath>
</defs>
</svg>
