<svg width="85" height="100" viewBox="0 0 85 100" fill="none" xmlns="http://www.w3.org/2000/svg">
<path d="M42.6496 15.9485C26.5558 15.9537 12.4303 38.2551 12.4236 55.4429C12.4178 70.5616 25.355 79.1187 41.7392 79.2948C58.1235 79.471 71.7504 71.1994 71.7562 56.0809C71.7631 38.2358 58.7434 15.9433 42.6496 15.9485Z" fill="#F1CD88"/>
<path d="M42.6496 15.9485C40.551 15.9493 38.4865 16.332 36.4817 17.0301C57.2869 22.6735 67.7071 39.355 67.7071 56.0807C67.7071 69.4337 52.0984 77.4441 37.1139 79.0118C38.6182 79.1824 40.1625 79.2777 41.7392 79.2946C58.1234 79.4708 71.7504 71.1992 71.7562 56.0807C71.7631 38.2358 58.7434 15.9433 42.6496 15.9485Z" fill="#EBB34C"/>
<path d="M71.4864 28.7161C71.5996 29.3012 71.3977 29.9002 70.9342 30.3258L67.7123 33.2841C66.8806 34.0481 65.5058 34.0481 64.674 33.2841L59.6708 28.6886C58.8391 27.9247 57.4669 27.9247 56.6325 28.6886L51.6293 33.2841C50.7976 34.0481 49.4254 34.0481 48.591 33.2841L43.5878 28.6886C42.7556 27.9243 41.3815 27.9243 40.5496 28.6886L35.5463 33.2841C34.7146 34.0481 33.3398 34.0481 32.5081 33.2841L27.5022 28.6886C26.6705 27.9247 25.2983 27.9247 24.464 28.6886L19.4607 33.2841C18.629 34.0481 17.254 34.0481 16.4225 33.2841L12.9614 30.1075C12.4893 29.6741 12.2889 29.0613 12.4152 28.4672C16.1335 10.9849 30.1761 0.457661 42.4285 0.587615C54.5909 0.719879 68.1375 11.3872 71.4864 28.7161Z" fill="#F7F3F1"/>
<path d="M71.4865 28.7161C68.1375 11.3872 54.591 0.719875 42.4286 0.587611C41.1463 0.573942 39.8442 0.678675 38.5366 0.894301C49.7121 2.7589 61.1418 12.9965 64.1796 28.7161C64.2927 29.3012 64.0908 29.9002 63.6273 30.3258L62.5402 31.3241L64.6741 33.2841C65.5059 34.0481 66.8809 34.0481 67.7124 33.2841L70.9343 30.3258C71.3978 29.9003 71.5994 29.3012 71.4865 28.7161Z" fill="#EBE1DC"/>
<path d="M76.3069 69.7578C76.0742 86.9825 60.481 99.3615 41.4558 99.1562C22.4307 98.951 7.1764 86.2404 7.40912 69.0156C7.43606 67.054 7.57052 65.1498 7.8041 63.3054C7.95278 62.131 9.55444 61.6329 10.4771 62.4798L13.0153 64.8094C13.958 65.6754 15.5163 65.6754 16.4591 64.8094L22.1301 59.6005C23.0758 58.7345 24.6311 58.7345 25.5739 59.6005L31.2479 64.8094C32.1906 65.6754 33.749 65.6754 34.6917 64.8094L40.3627 59.6005C41.3059 58.7341 42.8633 58.7341 43.8065 59.6005L49.4775 64.8094C50.4232 65.6754 51.9786 65.6754 52.9213 64.8094L58.5923 59.6005C59.538 58.7345 61.0934 58.7345 62.0361 59.6005L67.7071 64.8094C68.6498 65.6754 70.2082 65.6754 71.1509 64.8094L73.349 62.7912C74.2786 61.9377 75.8988 62.4488 76.0253 63.6344C76.2367 65.6107 76.3343 67.6528 76.3069 69.7578Z" fill="#F7F3F1"/>
<path d="M76.0256 63.6341C75.8991 62.4487 74.2789 61.9374 73.3493 62.7908L71.1512 64.8091C70.5386 65.3718 69.6666 65.5665 68.8719 65.3978C68.9729 66.8196 69.0191 68.272 68.9999 69.7575C68.7842 85.7224 55.3721 97.5225 38.2629 99.0002C39.3141 99.0906 40.3785 99.1444 41.4559 99.1559C60.4811 99.3611 76.0743 86.9822 76.307 69.7575C76.3342 67.6524 76.2366 65.6102 76.0256 63.6341Z" fill="#EBE1DC"/>
<path d="M32.1462 42.991C31.2268 42.991 30.4814 42.3251 30.4814 41.5036V40.7496C30.4814 39.9281 31.2268 39.2622 32.1462 39.2622C33.0657 39.2622 33.811 39.9281 33.811 40.7496V41.5036C33.811 42.3251 33.0657 42.991 32.1462 42.991Z" fill="#655E67"/>
<path d="M51.9744 42.991C51.0549 42.991 50.3096 42.3251 50.3096 41.5036V40.7496C50.3096 39.9281 51.0549 39.2622 51.9744 39.2622C52.8938 39.2622 53.6392 39.9281 53.6392 40.7496V41.5036C53.6392 42.3251 52.8938 42.991 51.9744 42.991Z" fill="#655E67"/>
<path d="M37.0376 48.453L40.4325 52.4985C41.2462 53.4682 42.8741 53.4682 43.6878 52.4985L47.0827 48.453C47.4641 47.9984 47.413 47.3577 46.9562 46.9623C43.6923 44.1376 40.4282 44.1376 37.1643 46.9623C36.7073 47.3577 36.656 47.9984 37.0376 48.453Z" fill="#E27C48"/>
<path d="M84.0023 43.6613C83.8707 41.2702 80.9565 39.8417 78.6091 40.9962L66.6411 46.8828L67.7508 56.063C69.2122 57.1215 70.9147 57.2643 72.5108 56.9703C76.7467 56.1904 80.5221 53.6144 82.4795 50.1688C83.6158 48.1689 84.1256 45.9004 84.0023 43.6613Z" fill="#F1CD88"/>
<path d="M84.0025 43.6608C83.9288 42.3239 82.9854 41.2887 81.7578 40.8367C81.6766 42.6843 81.1668 44.5166 80.2299 46.1661C78.2724 49.6117 74.497 52.1877 70.2611 52.9676C69.6853 53.0737 69.0958 53.122 68.5088 53.0912C67.9231 53.0606 67.4405 53.4922 67.5036 54.0136L67.7512 56.0624C69.2126 57.1209 70.9151 57.2638 72.5112 56.9698C76.7471 56.1899 80.5225 53.6139 82.4799 50.1683C83.6159 48.1684 84.1257 45.8999 84.0025 43.6608Z" fill="#EBB34C"/>
<path d="M0.117369 43.6613C0.249027 41.2702 3.16318 39.8417 5.51062 40.9962L17.4786 46.8828L16.3689 56.063C14.9075 57.1215 13.205 57.2643 11.6089 56.9703C7.37301 56.1904 3.59759 53.6144 1.64017 50.1688C0.503939 48.1689 -0.00588582 45.9004 0.117369 43.6613Z" fill="#F1CD88"/>
</svg>
