<svg width="115" height="113" viewBox="0 0 115 113" fill="none" xmlns="http://www.w3.org/2000/svg">
<path d="M67.4048 61.751L114.782 64.2151V109.651H69.6899L67.4048 61.751Z" fill="#D15241"/>
<path d="M69.6896 64.2152H114.782L96.6536 48.9673H54.7603L69.6896 64.2152Z" fill="#E56353"/>
<path d="M54.7603 48.9673L69.6896 64.2151V109.651L54.7603 96.8673V48.9673Z" fill="#CE412D"/>
<path d="M13.0195 64.2151L60.5493 66.6797V112.115H15.609L13.0195 64.2151Z" fill="#3A556A"/>
<path d="M15.6089 66.6797H60.5492L42.4207 51.4319H0.527344L15.6089 66.6797Z" fill="#64798A"/>
<path d="M0.527344 51.4319L15.6089 66.6797V112.115L0.527344 99.3314V51.4319Z" fill="#2F4859"/>
<path d="M27.644 12.927L75.4782 15.6993V61.2891H30.3861L27.644 12.927Z" fill="#3EA69B"/>
<path d="M30.3863 15.6993H75.4783L57.1976 0.605713H15.3047L30.3863 15.6993Z" fill="#44C4A1"/>
<path d="M15.3047 0.605713L30.3862 15.6993V61.289L15.3047 48.3514V0.605713Z" fill="#31978C"/>
<path d="M44.4014 22.7844H55.522V53.5883H49.5807V28.7912H44.4014V22.7844Z" fill="#EBF0F3"/>
<path d="M41.5069 84.5457C42.2688 83.4677 42.5731 82.3893 42.5731 81.3113C42.5731 80.2333 42.2683 79.4631 41.6591 78.6928C41.0499 78.0769 40.2881 77.6148 39.374 77.6148C37.6981 77.6148 36.0227 79.001 34.499 81.7733L29.624 78.5389C30.8429 76.2287 32.3661 74.6886 33.8894 73.4563C35.4126 72.3783 37.3933 71.762 39.6784 71.762C42.1157 71.762 44.0964 72.5322 45.9244 74.2261C47.7525 75.92 48.6666 78.2308 48.6666 81.157C48.6666 82.697 48.3617 84.2375 47.6003 85.7775C46.8385 87.1637 45.6201 89.1658 43.6394 91.3222L38.7644 97.1751H49.5806V103.336H29.9288V98.2531L38.003 89.0119C39.6788 87.1641 40.7451 85.6241 41.5069 84.5457Z" fill="#EBF0F3"/>
<path d="M82.4862 75.3045V69.4517H99.2436V74.2261L93.6072 81.4651C95.7401 81.9272 97.5682 82.8513 98.7866 84.5457C100.005 86.24 100.615 88.0882 100.615 90.2442C100.615 93.4786 99.7006 95.9427 97.7204 97.791C95.7401 99.6392 93.3024 100.563 90.2559 100.563C87.209 100.563 84.1625 99.331 80.9634 97.0207L83.5533 91.4761C86.1432 93.4781 88.4283 94.5566 90.5608 94.5566C91.7796 94.5566 92.8458 94.2484 93.6077 93.4786C94.3695 92.7088 94.8265 91.7842 94.8265 90.5524C94.8265 89.3205 94.3695 88.2421 93.4555 87.4719C92.5415 86.7016 91.3226 86.3939 89.6472 86.3939C88.7331 86.3939 87.5143 86.7021 85.991 87.1641V82.0815L91.323 75.1507H82.4875V75.3045H82.4862Z" fill="#EBF0F3"/>
</svg>
