<svg width="109" height="115" viewBox="0 0 109 115" fill="none" xmlns="http://www.w3.org/2000/svg">
<path d="M59.8524 15.132L31.3094 2.7644L2.76636 15.132V50.1736L31.3094 62.5412L59.8524 50.1736V15.132Z" fill="#BD53B5"/>
<path d="M31.3094 64.6024C31.0357 64.6024 30.763 64.5462 30.5061 64.4354L1.96304 52.0678C1.21328 51.7437 0.727539 50.9991 0.727539 50.1735V15.132C0.727539 14.3064 1.21328 13.5618 1.96304 13.2377L30.5061 0.870047C31.0198 0.648461 31.5994 0.648461 32.1126 0.870047L60.6557 13.2377C61.4054 13.5618 61.8912 14.3064 61.8912 15.132V50.1735C61.8912 50.9991 61.4054 51.7437 60.6557 52.0678L32.1126 64.4354C31.8557 64.5462 31.5831 64.6024 31.3094 64.6024ZM4.80511 48.8146L31.3094 60.2985L57.8136 48.8146V16.4909L31.3094 5.00701L4.80511 16.4909V48.8146Z" fill="#4C241D"/>
<path d="M31.3094 62.541L2.76636 50.1734V15.1318L31.3094 27.4994V62.541Z" fill="#9DC1E4"/>
<path d="M31.3094 64.6023C31.0367 64.6023 30.764 64.5482 30.5061 64.4354L1.96304 52.0678C1.21328 51.7436 0.727539 50.999 0.727539 50.1735V15.1319C0.727539 14.4393 1.07209 13.7931 1.64448 13.4107C2.21687 13.0304 2.94268 12.9619 3.56961 13.2376L32.1126 25.6052C32.8624 25.9293 33.3481 26.674 33.3481 27.4995V62.5411C33.3481 63.2337 33.0036 63.8799 32.4312 64.2622C32.0938 64.4874 31.7023 64.6023 31.3094 64.6023ZM4.80511 48.8146L29.2706 59.4146V28.8579L4.80511 18.2578V48.8146Z" fill="#4C241D"/>
<path d="M31.3093 62.541L59.8523 50.1734V15.1318L31.3093 27.4994V62.541Z" fill="#F4AEAB"/>
<path d="M31.3093 64.6023C30.9163 64.6023 30.5249 64.4874 30.1875 64.2622C29.6151 63.8799 29.2705 63.2337 29.2705 62.5411V27.4995C29.2705 26.674 29.7563 25.9293 30.506 25.6052L59.049 13.2376C59.679 12.9619 60.4028 13.0304 60.9742 13.4107C61.5466 13.7931 61.8911 14.4393 61.8911 15.1319V50.1735C61.8911 50.999 61.4054 51.7436 60.6556 52.0678L32.1126 64.4354C31.8547 64.5482 31.581 64.6023 31.3093 64.6023ZM33.3481 28.8584V59.4152L57.8135 48.8151V18.2578L33.3481 28.8584Z" fill="#4C241D"/>
<path d="M31.3094 97.5827L2.76636 85.2151V50.1736L31.3094 62.5412V97.5827Z" fill="#BF7E68"/>
<path d="M31.3094 99.6439C31.0367 99.6439 30.764 99.5898 30.5061 99.477L1.96304 87.1094C1.21328 86.7852 0.727539 86.0406 0.727539 85.2151V50.1735C0.727539 49.4809 1.07209 48.8347 1.64448 48.4523C2.21687 48.072 2.94268 48.0055 3.56961 48.2792L32.1126 60.6468C32.8624 60.9709 33.3481 61.7156 33.3481 62.5411V97.5827C33.3481 98.2753 33.0036 98.9215 32.4312 99.3038C32.0938 99.529 31.7023 99.6439 31.3094 99.6439ZM4.80511 83.8562L29.2706 94.4562V63.8995L4.80511 53.2994V83.8562Z" fill="#4C241D"/>
<path d="M31.3093 97.5828L59.8523 85.2151V50.1736L31.3093 62.5412V97.5828Z" fill="#B5A19C"/>
<path d="M31.3093 99.6439C30.9163 99.6439 30.5249 99.529 30.1875 99.3038C29.6151 98.9215 29.2705 98.2753 29.2705 97.5827V62.5411C29.2705 61.7156 29.7563 60.9709 30.506 60.6468L59.049 48.2792C59.679 48.0035 60.4028 48.07 60.9742 48.4523C61.5466 48.8347 61.8911 49.4809 61.8911 50.1735V85.2151C61.8911 86.0406 61.4054 86.7852 60.6556 87.1094L32.1126 99.477C31.8547 99.5898 31.581 99.6439 31.3093 99.6439ZM33.3481 63.9V94.4568L57.8135 83.8567V53.2999L33.3481 63.9Z" fill="#4C241D"/>
<path d="M106.744 64.6025L78.2015 52.2349L49.6584 64.6025V99.644L78.2015 112.012L106.744 99.644V64.6025Z" fill="#FFCE56"/>
<path d="M78.2014 114.073C77.9277 114.073 77.655 114.017 77.3982 113.906L48.8551 101.538C48.1054 101.214 47.6196 100.47 47.6196 99.644V64.6024C47.6196 63.7769 48.1054 63.0323 48.8551 62.7081L77.3982 50.3405C77.9119 50.1189 78.4915 50.1189 79.0047 50.3405L107.548 62.7081C108.298 63.0323 108.783 63.7769 108.783 64.6024V99.644C108.783 100.47 108.298 101.214 107.548 101.538L79.0047 113.906C78.7478 114.017 78.4751 114.073 78.2014 114.073ZM51.6972 98.2851L78.2014 109.769L104.706 98.2851V65.9608L78.2014 54.477L51.6972 65.9608V98.2851Z" fill="#4C241D"/>
<path d="M78.2015 112.011L49.6584 99.6439V64.6023L78.2015 76.9699V112.011Z" fill="#FC8C29"/>
<path d="M78.2014 114.073C77.9287 114.073 77.656 114.019 77.3981 113.906L48.8551 101.538C48.1054 101.214 47.6196 100.47 47.6196 99.644V64.6025C47.6196 63.9099 47.9642 63.2637 48.5366 62.8813C49.1079 62.4989 49.8338 62.4325 50.4617 62.7082L79.0047 75.0758C79.7545 75.3999 80.2402 76.1445 80.2402 76.9701V112.012C80.2402 112.704 79.8957 113.35 79.3233 113.733C78.9858 113.958 78.5944 114.073 78.2014 114.073ZM51.6972 98.2851L76.1626 108.885V78.3285L51.6972 67.7284V98.2851Z" fill="#4C241D"/>
<path d="M78.2014 112.011L106.744 99.6439V64.6023L78.2014 76.9699V112.011Z" fill="#A9BA5A"/>
<path d="M78.2014 114.073C77.8084 114.073 77.417 113.958 77.0795 113.733C76.5072 113.35 76.1626 112.704 76.1626 112.012V76.9699C76.1626 76.1444 76.6483 75.3998 77.3981 75.0756L105.941 62.708C106.572 62.4323 107.296 62.5009 107.866 62.8812C108.439 63.2635 108.783 63.9097 108.783 64.6023V99.6439C108.783 100.469 108.297 101.214 107.548 101.538L79.0047 113.906C78.7468 114.019 78.4731 114.073 78.2014 114.073ZM80.2402 78.3288V108.886L104.706 98.2855V67.7288L80.2402 78.3288Z" fill="#4C241D"/>
</svg>
