<svg width="116" height="118" viewBox="0 0 116 118" fill="none" xmlns="http://www.w3.org/2000/svg">
<path d="M57.8656 102.526L48.8787 111.612V60.7301L57.8656 51.644V102.526Z" fill="#00A8E7"/>
<path d="M57.8656 51.644H14.7284L5.74146 60.7301H48.8787L57.8656 51.644Z" fill="#00A8E7"/>
<path d="M57.8655 102.526L66.8524 111.612V60.7301L57.8655 51.644V102.526Z" fill="#931D5B"/>
<path d="M57.8655 51.644H101.003L109.99 60.7301H66.8524L57.8655 51.644Z" fill="#931D5B"/>
<path d="M66.8525 60.73H109.99V111.612H66.8525V60.73Z" fill="#F249B4"/>
<path d="M5.74146 60.73H48.8787V111.612H5.74146V60.73Z" fill="#29C0EF"/>
<path d="M30.9048 6.21387H84.8263V60.7299H30.9048V6.21387Z" fill="#F8F117"/>
<path d="M61.4602 13.4827H54.2707L38.0942 53.4611H47.0812L50.6759 44.3751H65.055L68.6497 53.4611H77.6367L61.4602 13.4827ZM52.4733 37.1063L57.8654 24.3859L63.2576 37.1063H52.4733Z" fill="#E22526"/>
<path d="M38.0945 77.3966V77.0848C38.0945 72.0667 34.0709 67.9988 29.1076 67.9988H16.5259V104.343H29.1076C34.0709 104.343 38.0945 100.275 38.0945 95.2568V94.945C38.0945 91.654 36.8014 88.4979 34.4997 86.1708C36.8014 83.8437 38.0945 80.6876 38.0945 77.3966ZM30.9049 93.4396C30.9049 95.4468 29.2955 97.074 27.3102 97.074H23.7154V89.8052H27.3102C29.2955 89.8052 30.9049 91.4324 30.9049 93.4396ZM30.9049 78.902C30.9049 80.9092 29.2955 82.5364 27.3102 82.5364H23.7154V75.2676H27.3102C29.2955 75.2676 30.9049 76.8948 30.9049 78.902Z" fill="#F8F117"/>
<path d="M99.2053 78.902V78.902C99.2053 72.8803 94.377 67.9988 88.421 67.9988H88.421C82.465 67.9988 77.6367 72.8803 77.6367 78.902V93.4396C77.6367 99.4613 82.465 104.343 88.421 104.343H88.421C94.377 104.343 99.2053 99.4613 99.2053 93.4396V93.4396H92.0158V93.4396C92.0158 95.4468 90.4064 97.074 88.421 97.074H88.421C86.4357 97.074 84.8263 95.4468 84.8263 93.4396V78.902C84.8263 76.8948 86.4357 75.2676 88.421 75.2676H88.421C90.4064 75.2676 92.0158 76.8948 92.0158 78.902V78.902H99.2053Z" fill="#ACDD12"/>
</svg>
