<svg width="110" height="112" viewBox="0 0 110 112" fill="none" xmlns="http://www.w3.org/2000/svg">
<g clip-path="url(#clip0)">
<path d="M19.8862 85.8686C19.4228 84.8543 18.8411 83.896 18.1874 82.9961C15.7758 79.6753 11.9916 76.5178 7.6568 76.977C3.96951 77.3679 0.499512 80.3275 0.499512 84.2575C0.499512 85.6939 0.917162 87.0987 1.70028 88.2971C5.04104 93.4089 10.6964 96.4842 16.7564 96.4842H20.5969L19.8862 85.8686Z" fill="#EFB485"/>
<path d="M16.7564 89.8065C10.6964 89.8065 5.04082 86.7312 1.70028 81.6194C1.57369 81.4257 1.46052 81.2252 1.35331 81.0215C0.814565 81.984 0.499512 83.0762 0.499512 84.2575C0.499512 85.6939 0.917162 87.0987 1.70028 88.2969C5.04104 93.4087 10.6964 96.484 16.7564 96.484H20.5969L20.1498 89.8063H16.7564V89.8065Z" fill="#9D602F"/>
<path d="M66.3038 54.4346C64.6048 49.9425 62.6451 45.2171 60.4673 40.7444H80.5008C82.5054 44.8605 84.2857 48.739 85.8415 52.3928L83.4891 59.0211H72.5835L66.3038 54.4346Z" fill="#DEDEDE"/>
<path d="M73.0016 57.5474C72.5727 56.2956 68.0891 43.2462 67.1358 42.9702C67.095 42.9702 67.1131 42.9637 67.1358 42.9702L61.2739 42.4326C63.1017 46.3322 64.7853 50.4194 66.304 54.4347L73.0016 57.5474Z" fill="#BCBAC1"/>
<path d="M86.8869 100.641C82.3348 104.827 76.3466 107.052 70.1937 107.052H36.3693C26.9146 107.052 19.251 99.3039 19.251 89.7449L70.9119 67.7772C69.7342 64.0566 68.1785 59.3893 66.3043 54.4349C68.5398 54.9989 70.8777 55.297 73.2819 55.297C77.7785 55.297 82.0398 54.2535 85.8418 52.3931C96.3799 77.1372 96.66 91.657 86.8869 100.641Z" fill="#EFB485"/>
<path d="M75.3804 66.6597C74.7694 63.5708 74.0213 60.5242 73.0013 57.5475C72.9071 57.2726 72.6171 56.4281 72.212 55.2751C70.1834 55.2001 68.2061 54.9147 66.3037 54.4348C68.178 59.3892 69.7339 64.0565 70.9113 67.7771L67.6251 79.6083C73.1389 77.976 76.507 72.3552 75.3804 66.6597Z" fill="#9D602F"/>
<path d="M73.281 47.735C85.1207 47.735 94.7187 38.0311 94.7187 26.0608C94.7187 14.0906 85.1207 4.38672 73.281 4.38672C61.4413 4.38672 51.8433 14.0906 51.8433 26.0608C51.8433 38.0311 61.4413 47.735 73.281 47.735Z" fill="#3DCDAD"/>
<path d="M58.4482 26.0608C58.4482 15.226 66.3117 6.24869 76.5835 4.6427C75.5069 4.47442 74.4041 4.38672 73.281 4.38672C61.4413 4.38672 51.8433 14.0906 51.8433 26.0608C51.8433 38.0311 61.4413 47.735 73.281 47.735C74.4041 47.735 75.5069 47.647 76.5835 47.479C66.3117 45.873 58.4482 36.8957 58.4482 26.0608Z" fill="#1BAD8E"/>
<path d="M57.1955 93.6231H47.1809L36.7773 67.1416C39.5877 65.2142 42.7037 63.5506 46.1316 62.3254L58.7576 75.8429L57.1955 93.6231Z" fill="#5889D8"/>
<path d="M39.3125 73.5948C43.1643 71.0041 47.2259 69.1488 51.4658 68.0363L46.1319 62.3257C46.127 62.3275 46.1222 62.329 46.1173 62.3308C42.8012 63.5174 39.6769 65.1533 36.7773 67.1417L39.3125 73.5948Z" fill="#245BAF"/>
<path d="M47.1812 93.623H20.8902C18.5415 93.623 17.0391 91.0971 18.1397 88.9991C21.1059 83.3447 27.1776 73.7143 36.7776 67.1416C40.4385 71.8886 45.7171 80.7388 47.1812 93.623Z" fill="#3DCDAD"/>
<path d="M55.8813 60.2359C56.9115 60.1538 57.963 60.1106 59.0358 60.1106C68.1891 60.1106 75.6115 67.6126 75.6115 76.8668C75.6115 83.5131 71.784 89.2562 66.2339 91.9636L55.8813 60.2359Z" fill="#F5EA69"/>
<path d="M107.232 30.837C103.868 29.8818 98.0585 27.2995 93.9892 20.4402C93.9892 20.4402 94.439 24.4695 89.3017 28.7437C88.0842 29.7567 87.3735 31.2641 87.3735 32.8583C87.3735 35.7963 89.7293 38.1778 92.635 38.1778H106.22C108.264 38.1778 109.921 36.5026 109.921 34.436C109.921 32.7628 108.825 31.2895 107.232 30.837Z" fill="#F5EA69"/>
<path d="M106.22 33.7257H92.6352C90.517 33.7257 88.6923 32.4597 87.8581 30.6357C87.5437 31.3247 87.3735 32.0808 87.3735 32.8581C87.3735 35.7958 89.7293 38.1776 92.635 38.1776H106.22C108.264 38.1776 109.921 36.5023 109.921 34.4356C109.921 33.6109 109.653 32.8354 109.192 32.2059C108.518 33.1265 107.44 33.7257 106.22 33.7257Z" fill="#EAB657"/>
<path d="M76.8711 36.4142C81.2029 36.4142 84.7145 33.587 84.7145 30.0993C84.7145 26.6117 81.2029 23.7844 76.8711 23.7844C72.5394 23.7844 69.0278 26.6117 69.0278 30.0993C69.0278 33.587 72.5394 36.4142 76.8711 36.4142Z" fill="#EE9FA9"/>
<path d="M82.5111 25.6897C81.5989 25.6897 80.8599 24.9422 80.8599 24.0202V20.5627C80.8599 19.6408 81.5989 18.8933 82.5111 18.8933C83.4232 18.8933 84.1623 19.6408 84.1623 20.5627V24.0205C84.1623 24.9424 83.4232 25.6897 82.5111 25.6897Z" fill="#434050"/>
<path d="M66.2336 91.9638C64.058 93.0268 61.6153 93.6232 59.0358 93.6232H57.1957C56.6209 77.2256 49.6111 66.6167 46.1318 62.3256C49.1388 61.2518 52.3851 60.515 55.8813 60.2361C59.6362 65.1711 66.0306 75.9034 66.2336 91.9638Z" fill="#E05D7C"/>
<path d="M75.5096 75.0259C75.09 71.1455 73.3258 67.5428 70.5293 64.8001C66.2837 60.6361 61.682 59.7174 55.9673 60.2301C55.9389 60.2327 55.9102 60.235 55.8818 60.2374L58.0612 66.9169C59.111 66.8323 60.1697 66.7885 61.2373 66.7885C67.3134 66.7887 72.6237 70.0962 75.5096 75.0259Z" fill="#EAB657"/>
<path d="M50.235 68.381C53.4051 67.4337 56.6787 66.9086 60.0415 66.808C58.5779 64.0267 57.0929 61.8288 55.882 60.2373C52.7358 60.4802 49.3894 61.1631 46.1318 62.3259C47.2463 63.7006 48.7234 65.7271 50.235 68.381Z" fill="#D6375A"/>
<path d="M20.8898 93.623H21.4639C24.7217 87.8897 30.4598 79.6519 38.9788 73.8193C39.4907 73.4683 40.0068 73.132 40.5259 72.8072C39.2289 70.5176 37.9238 68.6285 36.7772 67.1416C27.1772 73.7145 21.1055 83.3447 18.1393 88.9991C17.038 91.0991 18.5426 93.623 20.8898 93.623Z" fill="#1BAD8E"/>
</g>
<defs>
<clipPath id="clip0">
<rect x="0.499512" y="0.405518" width="109.421" height="110.628" fill="white"/>
</clipPath>
</defs>
</svg>
