<svg width="110" height="111" viewBox="0 0 110 111" fill="none" xmlns="http://www.w3.org/2000/svg">
<path d="M97.8483 51.7643L97.2176 52.0391C97.1093 52.0863 97.001 52.1314 96.8906 52.1765L96.6167 52.2903C96.4744 52.3504 96.33 52.4083 96.1856 52.4642C96.0412 52.5221 95.8968 52.5779 95.7524 52.6338C95.0283 52.9128 94.2958 53.1705 93.5568 53.4066C93.1151 53.5505 92.6692 53.6857 92.2212 53.8124C91.0278 54.1516 89.8174 54.4371 88.5943 54.669L88.3735 54.7119C86.7831 55.0125 85.4814 56.161 84.9697 57.7132C84.8167 58.1791 84.7403 58.66 84.7403 59.1365C84.7403 59.2911 84.7488 59.4457 84.7636 59.6003C84.7785 59.7377 84.7976 59.8729 84.8252 60.0082C84.8804 60.2958 84.9654 60.5749 85.0737 60.8454C85.1289 60.9807 85.1905 61.1138 85.2584 61.2448C85.4644 61.6333 85.7256 61.9962 86.0441 62.3182L90.0935 66.4122C93.8689 70.2293 95.9945 75.4054 96.003 80.8068V81.1568C96.0136 87.4986 93.0132 93.4625 87.9382 97.1894L87.6579 97.3955C80.9139 102.35 72.7917 105.019 64.453 105.015C59.4077 105.015 53.5726 105.013 48.3171 105.013C38.4686 105.015 28.8877 101.784 21.0098 95.8111L20.5489 95.4612C15.423 91.5733 11.6051 86.3715 9.45612 80.4075L9.27136 79.8923C7.1416 73.9756 7.36452 67.4556 9.89356 61.702L9.97636 61.5153C11.1889 58.7566 13.4482 56.7128 16.1492 55.7746C17.2237 55.3989 18.3682 55.1992 19.5446 55.1992H19.5467L21.0395 53.69C23.3476 51.3564 26.4754 50.0468 29.7392 50.0468L29.7349 57.1808C29.7328 61.1675 33.7163 63.8961 37.3771 62.4148L37.7445 62.2667C43.7029 59.8579 49.9882 58.6342 56.333 58.6363H56.5878C58.6454 58.6363 60.3166 56.9489 60.3166 54.8665V54.7978C60.3166 53.9433 60.0363 53.1168 59.516 52.4427C57.9893 50.4633 54.5791 46.0386 51.9397 42.6166C49.6612 39.6604 48.4169 36.0257 48.402 32.2795L48.3999 31.7922C48.3765 26.0472 51.2113 20.6758 55.9423 17.4942L56.1738 17.3374C61.1129 14.0163 66.9077 12.2344 72.8406 12.2108C74.0021 12.2065 75.1679 12.2022 76.2636 12.1957C80.1771 12.1786 84.0014 13.3765 87.2183 15.6285L87.4562 15.7939C91.754 18.7994 94.3106 23.7522 94.2958 29.0335V29.1666C94.2915 30.5169 94.1237 31.8609 93.7967 33.1704C93.6311 33.8338 93.4443 34.5874 93.268 35.3001C92.8476 36.9897 93.3381 38.778 94.5548 40.0081C94.5803 40.0339 94.6079 40.0597 94.6333 40.0833L87.4965 44.8944L95.9902 51.7643H97.8483Z" fill="#F8F117"/>
<path d="M104.484 45.708C104.484 46.4551 104.291 47.1743 103.938 47.8033C103.586 48.4324 103.076 48.9691 102.443 49.3534C100.959 50.2529 99.4238 51.058 97.8483 51.7643L97.2176 52.0391C97.1093 52.0863 97.001 52.1314 96.8906 52.1765L96.6167 52.2903C96.4744 52.3504 96.33 52.4083 96.1856 52.4642C96.0412 52.5221 95.8968 52.5779 95.7524 52.6338C95.0283 52.9128 94.2958 53.1705 93.5568 53.4066C93.113 53.5505 92.6692 53.6836 92.2212 53.8124C91.0278 54.1516 89.8174 54.4371 88.5943 54.669L88.3735 54.7119C86.7831 55.0125 85.4814 56.161 84.9697 57.7132C84.8167 58.1791 84.7403 58.66 84.7403 59.1365C84.7403 59.2911 84.7488 59.4457 84.7636 59.6003C84.7785 59.7377 84.7977 59.8729 84.8252 60.0082C84.8804 60.2958 84.9654 60.5749 85.0737 60.8454C85.1289 60.9828 85.1905 61.1138 85.2584 61.2448C85.4644 61.6333 85.7256 61.9962 86.0441 62.3182L90.0935 66.4122C93.869 70.2293 95.9945 75.4054 96.003 80.8068V81.1568C96.0136 87.4986 93.0132 93.4625 87.9382 97.1894L87.6579 97.3955C80.9139 102.35 72.7918 105.019 64.453 105.015C59.4078 105.015 53.5726 105.013 48.3171 105.013C38.4686 105.015 28.8877 101.784 21.0098 95.8111L20.5489 95.4612C15.423 91.5733 11.6051 86.3715 9.45613 80.4075L9.27136 79.8923C7.1416 73.9756 7.36452 67.4556 9.89356 61.702L9.97636 61.5153C11.1889 58.7566 13.4482 56.7128 16.1492 55.7746C17.2237 55.3989 18.3682 55.1992 19.5446 55.1992H19.5467L21.0395 53.69C23.3476 51.3564 26.4754 50.0468 29.7392 50.0468L29.7349 57.1808C29.7328 61.1675 33.7163 63.8961 37.3771 62.4148L37.7445 62.2667C43.7029 59.8579 49.9882 58.6342 56.333 58.6363H56.5878C58.6454 58.6363 60.3166 56.9489 60.3166 54.8665V54.7978C60.3166 53.9433 60.0363 53.1168 59.5161 52.4427C57.9893 50.4633 54.5791 46.0386 51.9397 42.6166C49.6612 39.6604 48.4169 36.0257 48.402 32.2795L48.3999 31.7922C48.3765 26.0472 51.2113 20.6758 55.9423 17.4942L56.1738 17.3374C61.1129 14.0163 66.9077 12.2344 72.8406 12.2108C74.0021 12.2065 75.1679 12.2022 76.2636 12.1957C80.1771 12.1786 84.0014 13.3765 87.2184 15.6285L87.4562 15.7939C91.754 18.7994 94.3106 23.7522 94.2958 29.0335V29.1666C94.2915 30.5169 94.1238 31.8609 93.7967 33.1704C93.6312 33.8338 93.4443 34.5874 93.268 35.3001C92.8476 36.9897 93.3381 38.778 94.5548 40.0081C94.5803 40.0339 94.6079 40.0597 94.6334 40.0833C95.0751 40.5126 95.5911 40.8497 96.1453 41.0816C96.7335 41.3285 97.3705 41.4594 98.0203 41.4594H100.282C102.603 41.4594 104.484 43.3615 104.484 45.708Z" fill="#F8F117"/>
<path d="M83.4877 100.07C77.6801 103.304 71.1356 105.019 64.4532 105.015C59.4079 105.015 53.5727 105.012 48.3172 105.012C38.4687 105.015 28.8878 101.784 21.0099 95.8111L20.5491 95.4612C15.4231 91.5732 11.6052 86.3714 9.45628 80.4075L9.27151 79.8922C7.61953 75.3001 7.3838 70.3452 8.54532 65.6672C9.72171 69.4629 12.1254 72.8721 15.3275 75.1906C13.2169 75.3452 10.9214 74.3684 9.21635 73.0996C11.3822 81.0623 17.7334 87.4169 25.5498 89.8171C23.5622 90.4569 21.9081 90.708 19.8229 90.7059C29.6586 98.0524 41.0381 102.632 53.2032 103.879C63.4106 104.924 73.843 103.6 83.4877 100.07Z" fill="#FCC200"/>
<path d="M84.099 58.6342L84.099 58.6342C78.5887 56.4058 72.2534 48.9786 69.1999 43.8334L68.8103 43.1769L75.6053 39.7419L75.6053 39.742C78.8387 45.1904 85.9716 52.3661 92.1708 53.4107L92.5928 53.4818L84.099 58.6342Z" fill="#FCC200"/>
<path d="M85.7979 31.1545H89.1954V34.5895H85.7979V31.1545Z" fill="#E22526"/>
<path d="M104.484 45.708C104.484 46.4551 104.291 47.1743 103.938 47.8033C103.586 48.4323 103.076 48.9691 102.443 49.3533C100.959 50.2529 99.4239 51.0579 97.8483 51.7643H95.9903L87.4966 44.8943L94.6334 40.0833C95.0751 40.5126 95.5911 40.8497 96.1453 41.0815C96.7335 41.3284 97.3705 41.4594 98.0203 41.4594H100.282C102.603 41.4594 104.484 43.3615 104.484 45.708Z" fill="#F8F117"/>
<path d="M56.9191 58.634C63.714 58.634 67.1115 63.7865 67.1115 67.2214C67.1115 72.3739 63.714 79.2438 55.2203 82.6787C46.7266 86.1137 36.5341 84.3962 28.0404 80.9613C19.5466 77.5263 17.8479 67.2214 17.8479 67.2214H17.8479C23.452 67.2214 28.9976 66.0706 34.1486 63.8387L34.2792 63.7762C41.3568 60.3903 49.0892 58.634 56.919 58.634H56.9191Z" fill="#FCC200"/>
<path d="M64.952 74.6495C63.0897 77.7968 59.9428 80.768 55.2203 82.6787C46.7266 86.1137 36.5341 84.3962 28.0404 80.9613C20.483 77.9063 18.3065 69.4134 17.918 67.5757C20.9863 71.1094 25.5474 73.7393 29.9344 74.4799C27.8811 75.4417 25.66 76.0879 23.4728 75.4997C30.2657 79.4756 38.235 81.3649 46.0683 80.8604C52.7444 80.4288 59.2994 78.2605 64.952 74.6495Z" fill="#F98800"/>
<path d="M20.7485 61.5668C20.4152 61.9017 19.982 62.0691 19.5467 62.0691C19.1113 62.0691 18.6782 61.9017 18.3448 61.5668C16.9285 60.1348 16.1492 58.2306 16.1492 56.2061V55.7746C17.2236 55.3989 18.3681 55.1992 19.5445 55.1992H19.5467V56.2061C19.5467 57.3117 19.9735 58.3529 20.7485 59.1365C21.411 59.8085 21.411 60.8948 20.7485 61.5668Z" fill="#FCC200"/>
<path d="M95.9903 19.1322L87.6649 22.8731C83.4305 24.7758 80.7016 29.0213 80.7016 33.7062V33.7062C80.7016 38.416 77.9438 42.6792 73.6759 44.567L53.5216 53.4817L49.2831 48.5843C44.3886 42.9289 41.9516 35.5196 42.5217 28.027L42.5217 28.0269C43.03 21.3464 46.6197 15.2976 52.2108 11.7004L52.2108 11.7004C58.6142 7.58057 66.0468 5.39233 73.6367 5.39233H73.6368C77.1852 5.39233 80.7047 6.03758 84.0272 7.29726L84.0272 7.29726C89.4836 9.36594 93.8261 13.6619 95.9903 19.1321L95.9903 19.1322Z" fill="#63C4F8"/>
<path d="M90.1763 21.7449L87.6643 22.8741C83.4302 24.7762 80.7015 29.0205 80.7015 33.7071C80.7015 36.0622 80.0114 38.3035 78.7883 40.1949C77.5652 42.0862 75.8091 43.6234 73.6751 44.568L55.9444 52.4104C53.8507 49.1751 51.9248 45.8325 50.6868 42.1872C49.0135 37.2515 48.7311 31.6075 51.0796 26.9617C52.6212 23.911 55.1927 21.4894 58.0594 19.6646C63.2023 16.3906 69.441 14.9136 75.4864 15.5362C80.8438 16.0879 86.0186 18.2863 90.1763 21.7449Z" fill="#AEDEF8"/>
<path d="M75.6053 20.8496L80.7015 26.002L51.8228 51.7642L46.7266 46.6118L75.6053 20.8496Z" fill="#00587E"/>
<path d="M94.2914 20.8496V20.8496C93.277 18.7983 93.6746 16.3208 95.2787 14.6991L95.9902 13.9797L87.4965 5.39233L75.6052 17.4147V20.8496L82.4002 27.7195L94.2914 20.8496Z" fill="#F05A29"/>
<path d="M85.7979 24.2845L94.2916 29.2223L104.484 19.1321H104.484C98.8983 19.1321 93.3893 20.4469 88.3933 22.9725L85.7979 24.2845Z" fill="#00587E"/>
<path d="M104.441 45.0995C104.577 46.0612 104.386 47.0049 103.938 47.8033C103.586 48.4323 103.076 48.969 102.443 49.3533C101.892 49.6875 101.546 50.0089 101.248 50.317C100.352 51.2424 99.127 51.7647 97.8465 51.7642H97.846H97.846C96.6448 51.7642 95.4793 51.3509 94.5413 50.5922L90.381 47.2272C88.9535 46.0726 89.0489 43.8479 90.5699 42.8225L94.6263 40.088C94.6305 40.0852 94.6361 40.0857 94.6397 40.0892C95.08 40.5157 95.5938 40.8507 96.1454 41.0815C96.7335 41.3284 97.3706 41.4593 98.0204 41.4593H100.174C102.284 41.4593 104.144 42.9878 104.441 45.0995Z" fill="#F05A29"/>
</svg>
