<svg width="110" height="112" viewBox="0 0 110 112" fill="none" xmlns="http://www.w3.org/2000/svg">
<g clip-path="url(#clip0)">
<path d="M21.5164 34.8591C21.5164 34.8591 11.1922 39.5975 3.56445 38.9273C1.40812 38.7383 -0.214768 40.9116 0.588326 42.9449C3.03017 49.1223 9.47747 57.7676 25.9426 51.6147L21.5164 34.8591Z" fill="#FF7117"/>
<path d="M25.942 51.6146C9.47852 57.7675 3.02955 49.1222 0.588542 42.9448C-0.0150309 41.412 0.756341 39.7991 2.09789 39.1821C4.45125 45.0591 10.426 53.0646 25.1289 48.5314L25.942 51.6146Z" fill="#FF5F00"/>
<path d="M109.305 65.1926C108.73 60.6095 107.967 55.6197 106.388 51.0763C105.611 48.843 102.705 48.3746 101.234 50.2162C99.822 51.9828 98.2233 53.6109 96.4167 54.9656C91.6791 58.5189 85.888 58.9401 80.1996 58.9401C77.4071 58.9401 75.6757 55.856 77.1191 53.4396C79.8381 48.8878 81.4184 43.562 81.4585 37.8665C81.577 21.1262 68.1732 7.27236 51.6171 7.0411C34.702 6.80393 20.9166 20.5961 20.9166 37.6428C20.9166 44.8955 23.4119 51.5591 27.5827 56.8038C28.7447 58.2657 28.617 60.3808 27.2855 61.6874C17.0948 71.6806 18.863 92.1827 29.84 100.776C34.045 104.068 39.2309 105.219 44.446 105.479C55.8988 106.048 67.3701 105.876 78.833 105.835C87.2095 105.804 97.249 104.18 102.875 97.2173C109.661 88.8193 110.599 75.5209 109.305 65.1926Z" fill="#F3CC50"/>
<path d="M102.874 97.2164C97.2488 104.18 87.2076 105.804 78.8335 105.835C73.4147 105.855 70.7709 105.848 74.8673 105.835C83.2422 105.804 93.2826 104.18 98.9076 97.2164C103.074 92.0619 104.513 85.3367 104.89 78.8361C105.184 73.7593 104.963 68.8842 104.705 63.8243C104.616 62.0907 104.304 60.3916 103.128 59.0522C101.773 57.5093 99.0119 58.8842 97.667 59.6936C93.9905 61.9067 90.1011 63.1474 85.8761 63.9129C84.1188 64.2311 82.3314 64.3822 80.5516 64.1754C76.6121 63.7171 72.044 62.8866 71.771 57.8613C71.6291 55.2507 73.0449 52.3886 74.2404 50.1469C76.4318 46.0373 77.1364 40.217 77.0303 35.601C76.9143 30.4921 75.4459 25.5056 72.7143 21.2003C67.5476 13.0563 58.7053 7.74402 49.1875 7.10426C49.9898 7.04855 50.8004 7.02829 51.6177 7.04011C68.1738 7.27137 81.5768 21.1252 81.4574 37.8655C81.4173 43.5618 79.8378 48.8876 77.1188 53.4386C75.6754 55.8559 77.4077 58.9391 80.1993 58.9391C85.8886 58.9391 91.6789 58.5179 96.4156 54.9646C98.2222 53.6108 99.8225 51.9818 101.233 50.2153C102.704 48.3736 105.613 48.8437 106.388 51.0753C107.965 55.6195 108.73 60.6094 109.305 65.1916C110.598 75.5216 109.66 88.82 102.874 97.2164Z" fill="#EEB900"/>
<path d="M47.5437 82.3388C48.0705 84.1121 48.9512 85.7833 50.2076 87.2333C61.9718 100.809 83.5193 88.6647 90.6003 76.5412C91.37 75.2228 90.6153 73.5272 89.1293 73.2309C85.5212 72.5118 82.4825 71.8813 79.326 70.0566C75.9 68.0756 72.5715 65.2136 69.1054 63.6099C63.28 60.9149 56.3135 62.354 51.7211 66.7843C47.5545 70.8035 45.9675 77.0333 47.5437 82.3388Z" fill="#FFAA00"/>
<path d="M90.6014 76.5422C83.5196 88.6649 61.9713 100.81 50.2079 87.2342C48.9515 85.7825 48.0708 84.1139 47.544 82.3381C46.9246 80.2508 46.7927 78.0192 47.1183 75.8383C47.2176 76.4839 47.3587 77.1237 47.544 77.7491C48.0708 79.5224 48.9515 81.1936 50.2079 82.6436C61.498 95.6703 81.7974 85.0136 89.6739 73.4167C90.7867 73.9645 91.2693 75.3968 90.6014 76.5422Z" fill="#FF9500"/>
<path d="M38.6419 33.6505C37.757 33.6505 37.0391 32.9247 37.0391 32.03V27.3415C37.0391 26.4468 37.757 25.7209 38.6419 25.7209C39.5277 25.7209 40.2448 26.4468 40.2448 27.3415V32.03C40.2448 32.9247 39.5277 33.6505 38.6419 33.6505Z" fill="#7C7B7B"/>
</g>
<defs>
<clipPath id="clip0">
<rect x="0.379883" y="0.986816" width="109.421" height="110.628" fill="white"/>
</clipPath>
</defs>
</svg>
