<svg width="101" height="101" viewBox="0 0 101 101" fill="none" xmlns="http://www.w3.org/2000/svg">
<g clip-path="url(#clip0)">
<path d="M93.2321 51.123C85.1128 46.2489 68.5928 52.8788 60.1092 67.337C54.3864 77.0899 58.035 88.8856 67.6775 94.674C77.32 100.462 89.3044 98.0518 95.0272 88.2989C103.511 73.8406 101.351 55.9971 93.2321 51.123Z" fill="#F1CD88"/>
<path d="M93.2322 51.1231C92.2739 50.5478 91.1974 50.1348 90.0321 49.874C96.0465 56.5713 96.9299 72.1271 89.3767 84.9993C84.2689 93.7045 74.1724 96.5595 65.2053 92.9567C65.9786 93.5745 66.803 94.1494 67.6775 94.6743C77.3197 100.463 89.3044 98.0521 95.0272 88.2992C103.511 73.8407 101.351 55.9972 93.2322 51.1231Z" fill="#EBB34C"/>
<path d="M78.7437 51.1684L100.078 63.6272C99.2035 57.886 96.7902 53.2589 93.2321 51.123C89.5957 48.9398 84.2739 49.0663 78.7437 51.1684Z" fill="#E27C48"/>
<path d="M97.9712 56.6262C96.6191 53.8804 94.9094 52.1301 93.2323 51.1231C92.2417 50.5284 91.1524 50.1246 90.0322 49.874C92.2515 52.3453 93.7712 56.0236 94.4271 60.3271L100.079 63.6274C99.7136 61.2338 99.0438 58.8034 97.9712 56.6262Z" fill="#DD552D"/>
<path d="M57.6401 80.3064C58.5902 86.0591 62.1477 91.3546 67.6773 94.6742C73.3668 98.0897 79.8715 98.6495 85.4244 96.5316L57.6401 80.3064Z" fill="#E27C48"/>
<path d="M65.2053 92.9565C65.9648 93.5631 66.8277 94.164 67.6775 94.6741C67.6812 94.6763 67.6847 94.6783 67.6884 94.6804C69.735 95.9077 71.987 96.8154 74.3068 97.3161C74.3412 97.3236 74.3757 97.3303 74.4101 97.3374C78.2377 98.142 82.0397 97.823 85.4246 96.5316L79.7707 93.2297C75.2295 94.9609 70.0529 94.9043 65.2053 92.9565Z" fill="#DD552D"/>
<path d="M98.3795 80.9301L96.5303 74.8517C96.2846 74.0441 95.4644 73.5652 94.6501 73.7538L88.3108 75.2216C87.4965 75.4101 86.6763 74.9312 86.4306 74.1238L84.5178 67.8369C84.2721 67.0294 83.4519 66.5505 82.6376 66.7391L76.2984 68.2069C75.484 68.3955 74.6639 67.9164 74.4182 67.109L72.5053 60.8222C72.2596 60.0146 71.4395 59.5357 70.6252 59.7243L64.6462 61.1088C63.7793 62.0817 62.9493 63.1111 62.1643 64.1945C62.2406 64.315 62.3028 64.447 62.3464 64.59L64.2596 70.8766C64.5053 71.6842 65.3255 72.1631 66.1398 71.9745L72.4791 70.5067C73.2934 70.3182 74.1135 70.7972 74.3592 71.6045L76.2721 77.8914C76.5178 78.6989 77.3379 79.1778 78.1523 78.9892L84.4915 77.5214C85.3059 77.333 86.1258 77.8119 86.3717 78.6193L88.2846 84.9061C88.5302 85.7137 89.3504 86.1926 90.1647 86.004L96.504 84.5362C96.6647 84.499 96.8256 84.4886 96.9822 84.5008C97.5111 83.3203 97.9762 82.1276 98.3795 80.9301Z" fill="#E27C48"/>
<path d="M96.9819 84.5012C97.5109 83.321 97.9764 82.1273 98.3794 80.9303L96.5302 74.852C96.2845 74.0444 95.4644 73.5655 94.65 73.7541L93.7741 73.9569C92.9057 77.6802 91.4638 81.4423 89.3766 84.9994C89.2245 85.2588 89.0671 85.5122 88.9062 85.7614C89.2621 86.0082 89.714 86.1089 90.1645 86.0047L96.5037 84.5368C96.6642 84.4993 96.8251 84.489 96.9819 84.5012Z" fill="#DD552D"/>
<path d="M55.0753 3.00544C51.6945 1.81848 37.1144 17.8279 39.9326 30.3487L46.5561 30.6957C55.895 26.4954 57.3184 3.79294 55.0753 3.00544Z" fill="#EBE1DC"/>
<path d="M7.22582 85.5614C10.4001 85.242 12.7174 82.3815 12.4016 79.1722C12.0857 75.9629 9.25639 73.6201 6.08208 73.9394C2.90776 74.2587 0.590509 77.1192 0.906345 80.3286C1.22218 83.5379 4.05151 85.8807 7.22582 85.5614Z" fill="#EBE1DC"/>
<path d="M74.361 11.7435C71.6937 8.55648 49.8532 17.2727 44.9434 26.7815C36.5245 26.4578 29.2299 32.8467 28.4434 41.4306C27.6297 50.3124 34.0917 58.1795 42.8767 59.0022C52.0803 59.8641 62.6685 59.3508 65.5161 51.3495C67.2741 46.4101 64.6598 37.0676 57.4803 31.419C69.599 26.9965 76.3583 14.13 74.361 11.7435Z" fill="#F7F3F1"/>
<path d="M63.4121 45.7587C61.6825 54.0804 51.2652 56.0647 42.032 56.4937C38.6074 56.6528 35.3879 55.7058 32.7041 53.9701C35.2807 56.748 38.8311 58.6233 42.8769 59.0021C52.0805 59.8641 62.6687 59.3506 65.5163 51.3493C67.0934 46.918 65.1485 38.9446 59.5482 33.272C62.73 37.5537 64.1021 42.4392 63.4121 45.7587Z" fill="#EBE1DC"/>
<path d="M61.6881 68.7446C48.9652 66.7448 44.7935 56.3009 44.7935 56.3009L32.3945 50.9678C-2.30046 63.7269 8.3596 97.7775 26.0385 97.7775H59.9276C60.8999 97.7775 61.6881 96.9806 61.6881 95.9976V93.6465C61.6881 88.9077 57.8885 85.0662 53.2014 85.0662H47.5971C48.0435 83.8352 48.2871 82.5052 48.2871 81.1179C48.2871 78.7196 47.5582 76.4939 46.3134 74.653C49.7599 75.6429 53.9227 76.7081 57.2765 77.1744C65.7819 78.3565 67.4232 69.646 61.6881 68.7446Z" fill="#F7F3F1"/>
<path d="M64.0383 69.8564C62.7933 71.0165 61.1989 71.8301 59.552 72.2764C56.9797 72.9732 54.2681 72.8859 51.6119 72.6898C47.5458 72.3895 43.4971 71.8457 39.4944 71.0623C40.8159 74.8684 44.3879 77.9018 48.1665 79.4497C47.9124 77.6896 47.2641 76.0589 46.3136 74.6531C49.7601 75.6429 53.9232 76.7082 57.2767 77.1745C64.2797 78.1478 66.6282 72.4152 64.0383 69.8564Z" fill="#EBE1DC"/>
<path d="M51.5971 41.8975C51.4074 41.8975 51.2146 41.8609 51.0281 41.7838C50.2598 41.4658 49.8922 40.5786 50.2067 39.8019L50.8094 38.3138C51.124 37.5373 52.0009 37.1652 52.7697 37.4834C53.5379 37.8015 53.9056 38.6887 53.591 39.4654L52.9884 40.9534C52.7505 41.5413 52.1892 41.8975 51.5971 41.8975Z" fill="#655E67"/>
<path d="M72.7739 18.422C70.0969 23.0673 64.7544 28.7626 57.4806 31.4189C57.0304 31.0641 56.5628 30.7242 56.0766 30.4007C55.2518 29.852 54.9637 28.7691 55.4232 27.8854C58.4468 22.0686 64.0664 17.9627 72.7739 18.422Z" fill="#DF646E"/>
<path d="M53.2013 85.0664H47.5969C48.1101 83.6509 48.3554 82.1048 48.2704 80.4905C47.9609 74.6163 43.1943 69.8775 37.3802 69.6547C35.9695 69.6006 34.614 69.8081 33.3557 70.2313C38.3336 72.2343 42.248 78.9944 42.248 84.3293C42.248 84.8843 42.2091 85.4301 42.1337 85.9639C41.9607 87.1898 42.9299 88.2776 44.1545 88.2776H47.1622C51.8493 88.2776 55.6489 92.1191 55.6489 96.8579V97.7776H59.9273C60.8996 97.7776 61.6878 96.9806 61.6878 95.9976V93.6465C61.688 88.908 57.8884 85.0664 53.2013 85.0664Z" fill="#EBE1DC"/>
</g>
<defs>
<clipPath id="clip0">
<rect x="0.841553" y="0.0107422" width="99.6013" height="100.7" fill="white"/>
</clipPath>
</defs>
</svg>
