<svg width="75" height="75" viewBox="0 0 75 75" fill="none" xmlns="http://www.w3.org/2000/svg">
<g clip-path="url(#clip0)">
<path d="M64.6875 10.7812H56.0938V25.7812H64.6875V10.7812Z" fill="#F05540"/>
<path d="M67.9688 3.125H52.8125V11.2501H67.9688V3.125Z" fill="#F3705A"/>
<path d="M6.5625 40.4688V75H67.8125V40.4688C55.7813 28.4376 49.0625 21.7188 37.1874 9.84375C25.3125 21.875 18.5937 28.5937 6.5625 40.4688Z" fill="#FFD15C"/>
<path d="M67.9687 40.4688C55.9375 28.4376 49.2187 21.7188 37.3437 9.84375C31.2499 15.7812 26.5624 20.4687 21.8749 25.1562C17.1874 29.8437 12.4999 34.5312 6.5625 40.4687V47.4999C18.5937 35.4687 25.3125 28.7499 37.1875 16.8749C49.2187 28.9061 55.9375 35.6249 67.8126 47.4999V48.4374V40.4687H67.9687V40.4688Z" fill="#F7B64C"/>
<path d="M31.7186 74.9999H13.2812V56.8749C13.2812 51.7187 17.5 47.6562 22.4999 47.6562C27.6562 47.6562 31.7186 51.875 31.7186 56.8749V74.9999Z" fill="#415A6B"/>
<path d="M61.25 47.6562H37.1875V68.75H61.25V47.6562Z" fill="#344A5E"/>
<path d="M47.9687 50.1562H39.6875V66.25H47.9687V50.1562Z" fill="#8AD7F8"/>
<path d="M58.75 50.1562H50.4688V66.25H58.75V50.1562Z" fill="#8AD7F8"/>
<path d="M73.5938 34.0625L40.9375 1.40625C39.0625 -0.46875 35.7813 -0.46875 33.9063 1.40625L1.40625 34.0625C-0.46875 35.9375 -0.46875 39.2187 1.40625 41.0937C3.28125 42.9687 6.5625 42.9687 8.4375 41.0937L37.5 12.0312L66.5625 41.0937C68.4375 42.9687 71.7188 42.9687 73.5938 41.0937C75.4688 39.0625 75.4688 35.9375 73.5938 34.0625Z" fill="#F3705A"/>
</g>
<defs>
<clipPath id="clip0">
<rect width="75" height="75" fill="white"/>
</clipPath>
</defs>
</svg>
