<svg width="54" height="70" viewBox="0 0 54 70" fill="none" xmlns="http://www.w3.org/2000/svg">
<path d="M31.255 64.626C31.1364 62.0249 29.7185 62.0878 29.2588 62.2434L36.001 58.5454C36.3951 58.8122 37.3989 60.01 38.2615 62.6666C39.124 65.3233 36.189 66.6431 33.8063 67.1773C33.3873 67.4071 31.3735 67.227 31.255 64.626Z" fill="#109B7E"/>
<path d="M49.2849 46.0368C52.3679 47.7909 56.8753 52.8937 50.2417 59.2721C46.9249 62.3338 40.0361 61.3983 37.0064 60.5478C34.7739 60.2289 30.4365 60.2608 30.9468 62.9398C31.5847 66.2885 29.5117 70.275 26.6414 69.7966C23.7711 69.3182 21.5386 69.7966 20.1035 67.7236C18.9553 66.0652 20.6882 64.8002 21.6981 64.3749C22.2828 63.5245 22.7824 61.5684 20.1035 60.5478C19.7481 60.4125 19.3731 60.243 18.9872 60.0383C15.7365 58.3136 11.7196 54.0868 12.2898 46.6746C11.2267 46.3026 9.22811 45.1757 9.73838 43.6449C10.3762 41.7313 13.5655 39.4989 14.0439 39.1799C14.5222 38.861 15.6385 34.5555 21.3791 25.7851C17.3394 28.3897 8.07999 32.2912 3.35991 27.0608C-1.36016 21.8305 -0.0950965 15.5264 1.12745 13.0282C3.2536 10.4768 9.61082 5.4059 18.0304 5.53347C18.1367 4.0983 18.7958 1.06851 20.5818 0.43066C22.3678 -0.207188 23.5584 3.80809 23.9305 5.89546C24.2665 5.94327 24.585 5.99651 24.8873 6.05568C25.7909 4.65907 28.1084 1.92963 30.1495 2.18477C32.1906 2.43991 30.501 6.43709 29.4011 8.40379C29.6098 8.64915 29.8054 8.91442 29.9924 9.2011C31.852 8.77586 35.635 8.30811 35.8902 9.83894C36.1453 11.3698 33.4451 13.0282 32.0631 13.666C32.0732 14.1991 32.0881 14.7883 32.1082 15.4201C33.4752 15.3138 36.4323 15.5796 37.3253 17.4931C38.2183 19.4067 34.348 19.7787 32.3012 19.7256C32.3346 20.3036 32.3717 20.8904 32.4125 21.4797C33.7312 21.3734 36.4961 21.4797 37.0064 22.7554C37.5167 24.0311 34.4063 25.3068 32.7873 25.7851C32.8283 26.1636 32.8712 26.5363 32.9161 26.9014C34.1732 26.7419 36.8788 26.71 37.6442 27.8581C38.4097 29.0063 35.2282 30.2501 33.5419 30.7285C33.663 31.2698 33.7929 31.7529 33.932 32.1636C34.9037 31.8978 37.1977 31.6214 38.601 32.642C40.0043 33.6626 36.9043 35.2997 35.179 35.9907C35.2549 36.2718 35.3326 36.5584 35.4118 36.8496C36.4748 36.6164 38.8243 36.4372 39.7172 37.5853C40.6102 38.7334 37.9123 40.0836 36.4518 40.6151C36.5413 40.9341 36.6313 41.2534 36.7216 41.5719C37.7201 41.2529 39.9405 40.9021 40.8335 42.0503C41.7265 43.1984 39.1409 44.5485 37.7364 45.08C37.8554 45.4814 37.9729 45.8735 38.0882 46.2536C39.2159 46.1282 41.6308 46.1325 42.2686 47.153C42.9065 48.1736 40.4855 49.2792 39.1952 49.7044C39.5692 50.7737 39.8652 51.4755 40.0362 51.6179C40.5145 51.0864 41.8221 50.1509 43.2254 50.6612C44.6287 51.1715 43.1722 53.0631 42.2686 53.9452C42.8081 54.348 43.3987 54.6905 44.0227 54.9178C44.3416 53.871 45.2027 51.8412 46.0957 52.0963C46.9887 52.3515 47.4246 53.9707 47.5309 54.7483C48.0104 54.5049 48.4908 54.158 48.966 53.6888C48.4345 52.9985 47.4671 51.5542 47.8498 51.299C48.2325 51.0439 49.9292 50.9801 50.7297 50.9801C50.8243 50.6078 50.8796 50.1776 50.8627 49.7044C50.8329 48.872 50.5795 47.9064 49.9228 46.8881C49.742 46.6078 49.5306 46.3235 49.2849 46.0368Z" fill="#1BAD8E"/>
<path d="M3.5083 27.1523C8.45162 27.3118 18.6572 25.9404 19.9329 19.1792" stroke="black"/>
<path d="M13.9277 39.2715C14.4061 38.9526 15.5224 34.6471 21.263 25.8767C21.6457 34.9342 16.5323 38.5805 13.9277 39.2715Z" fill="#AFD9C3"/>
<path d="M12.1737 46.7662C11.6035 54.1784 15.6203 58.4051 18.8711 60.1299C19.9341 59.0772 21.4224 54.3247 18.8711 43.7365C17.4891 44.5338 14.2148 46.256 12.1737 46.7662Z" fill="#AFD9C3"/>
<path d="M17.8594 5.53347C17.9657 4.0983 18.6248 1.06851 20.4108 0.43066C22.1967 -0.207188 23.3874 3.80809 23.7595 5.89546C24.0955 5.94327 24.414 5.99651 24.7162 6.05568C25.6199 4.65907 27.9374 1.92963 29.9785 2.18477C32.0196 2.43991 30.33 6.43709 29.2301 8.40379C29.4387 8.64915 29.6344 8.91442 29.8214 9.2011C31.681 8.77586 35.464 8.30811 35.7191 9.83894C35.9743 11.3698 33.274 13.0282 31.892 13.666C31.9022 14.1991 31.9171 14.7883 31.9372 15.4201C33.3041 15.3138 36.2613 15.5796 37.1543 17.4931C38.0473 19.4067 34.177 19.7787 32.1302 19.7256C32.1636 20.3036 32.2006 20.8904 32.2415 21.4797C33.5602 21.3734 36.3251 21.4797 36.8353 22.7554C37.3456 24.0311 34.2352 25.3068 32.6163 25.7851C32.6572 26.1636 32.7001 26.5363 32.7451 26.9014C34.0022 26.7419 36.7078 26.71 37.4732 27.8581C38.2386 29.0063 35.0572 30.2501 33.3708 30.7285C33.492 31.2698 33.6219 31.7529 33.761 32.1636C34.7326 31.8978 37.0267 31.6214 38.43 32.642C39.8332 33.6626 36.7333 35.2997 35.0079 35.9907C35.0838 36.2718 35.1615 36.5584 35.2407 36.8496C36.3038 36.6164 38.6532 36.4372 39.5462 37.5853C40.4392 38.7335 37.7413 40.0836 36.2807 40.6151C36.3703 40.9341 36.4603 41.2534 36.5505 41.5719C37.5491 41.253 39.7694 40.9021 40.6624 42.0503C41.5554 43.1984 38.9698 44.5485 37.5654 45.08C37.6844 45.4814 37.8019 45.8735 37.9172 46.2536C39.0449 46.1282 41.4597 46.1325 42.0976 47.153C42.7354 48.1736 40.3144 49.2792 39.0242 49.7044C39.3981 50.7737 39.6942 51.4755 39.8651 51.618C40.3435 51.0864 41.6511 50.1509 43.0544 50.6612C44.4576 51.1715 43.0012 53.0631 42.0976 53.9452C42.637 54.348 43.2277 54.6905 43.8517 54.9178C44.1706 53.871 45.0317 51.8412 45.9247 52.0963C46.8177 52.3515 47.2535 53.9707 47.3598 54.7483C47.8394 54.5049 48.3198 54.158 48.795 53.6888C48.2635 52.9985 47.2961 51.5542 47.6788 51.2991C48.0615 51.0439 49.7582 50.9801 50.5587 50.9801C50.4373 51.4578 50.2514 51.8402 50.0707 52.0963C49.6528 52.7371 49.226 53.2632 48.795 53.6888C48.3198 54.158 47.8394 54.5049 47.3598 54.7483C46.1523 55.3614 44.9503 55.3181 43.8517 54.9178C43.2277 54.6905 42.637 54.348 42.0976 53.9452C41.1728 53.2546 40.3985 52.3867 39.8651 51.618C39.6942 51.4755 39.3981 50.7737 39.0242 49.7044C38.7027 48.7852 38.3237 47.5943 37.9172 46.2536C37.8019 45.8735 37.6844 45.4814 37.5654 45.08C37.234 43.9625 36.8908 42.7731 36.5505 41.5719C36.4603 41.2534 36.3703 40.9341 36.2807 40.6151C35.9203 39.331 35.5677 38.0516 35.2407 36.8496C35.1615 36.5584 35.0838 36.2718 35.0079 35.9907C34.7411 35.0032 34.4961 34.0846 34.284 33.2798C34.0967 33.0206 33.9226 32.641 33.761 32.1636C33.6219 31.7529 33.492 31.2698 33.3708 30.7285C33.1287 29.6469 32.9213 28.3332 32.7451 26.9014C32.7001 26.5363 32.6572 26.1636 32.6163 25.7851C32.466 24.3969 32.3421 22.9306 32.2415 21.4797C32.2006 20.8904 32.1636 20.3036 32.1302 19.7256C32.0415 18.1896 31.9784 16.7154 31.9372 15.4201C31.9171 14.7883 31.9022 14.1991 31.892 13.666C31.1584 11.7862 30.5567 10.3282 29.8214 9.2011C29.6344 8.91442 29.4387 8.64915 29.2301 8.40379C28.2082 7.2022 26.8746 6.47811 24.7162 6.05568C24.414 5.99651 24.0955 5.94327 23.7595 5.89546C22.2117 5.67524 20.2909 5.57031 17.8594 5.53347Z" fill="#FFA012"/>
<circle cx="19.9324" cy="12.3223" r="4.30547" fill="white"/>
<circle cx="18.8165" cy="12.4817" r="2.23247" fill="black"/>
<path d="M18.6572 10.7277C19.0293 10.6746 19.8691 10.7277 20.2518 11.3656C20.6346 12.0034 19.3482 11.2061 18.6572 10.7277Z" fill="white"/>
</svg>
