<svg width="117" height="110" viewBox="0 0 117 110" fill="none" xmlns="http://www.w3.org/2000/svg">
<path d="M33.4583 0.246268C39.888 -0.3388 45.4978 5.06166 45.989 12.3098C46.4824 19.5557 41.6685 25.9023 35.2388 26.4874C28.811 27.0725 23.1994 21.672 22.7081 14.4261C22.2165 7.1783 27.0282 0.831337 33.4583 0.246268Z" fill="#FFE17D"/>
<path d="M34.386 6.39386C37.8498 6.07774 40.8726 8.98835 41.1386 12.8945C41.4046 16.7987 38.81 20.2203 35.3463 20.5346C31.8807 20.8507 28.8575 17.9401 28.5915 14.034C28.3255 10.1297 30.9201 6.70813 34.386 6.39386Z" fill="#E3C04D"/>
<path d="M83.2686 0.246268C76.8407 -0.3388 71.2291 5.06166 70.7379 12.3098C70.2466 19.5557 75.0584 25.9023 81.488 26.4874C87.9177 27.0725 93.5275 21.672 94.0188 14.4261C94.5122 7.1783 89.6983 0.831337 83.2686 0.246268Z" fill="#FFE17D"/>
<path d="M82.3409 6.39386C78.8772 6.07774 75.8544 8.98835 75.5883 12.8945C75.3223 16.7987 77.9169 20.2203 81.3829 20.5346C84.8466 20.8507 87.8716 17.9401 88.1354 14.034C88.4011 10.1297 85.8065 6.70813 82.3409 6.39386Z" fill="#E3C04D"/>
<path d="M58.3003 46.0183L58.3633 46.0246L58.4264 46.0183C80.2336 43.7359 81.5673 51.897 88.3239 72.4974C95.0805 93.0997 75.3322 100.235 58.3633 100.235C41.3944 100.235 21.6458 93.0997 28.4027 72.4974C35.1615 51.8973 36.4934 43.7359 58.3003 46.0183Z" fill="#FAD55C"/>
<path d="M41.6868 80.5152C41.6868 68.6981 49.154 59.1204 58.3634 59.1204C67.5728 59.1204 75.04 68.6981 75.04 80.5152C75.04 97.0492 41.6868 97.0492 41.6868 80.5152Z" fill="#F8F8F8"/>
<path d="M58.3633 0.800781C73.4158 0.800781 85.6178 11.8298 85.6178 25.4326C85.6178 39.0377 73.4158 50.0666 58.3633 50.0666C43.3109 50.0666 31.1089 39.0377 31.1089 25.4326C31.1093 11.8294 43.3109 0.800781 58.3633 0.800781Z" fill="#FAD55C"/>
<path d="M58.3633 2.87988C72.1447 2.87988 83.3172 12.9767 83.3172 25.4323C83.3172 37.8897 72.1447 47.9869 58.3633 47.9869C44.582 47.9869 33.4094 37.89 33.4094 25.4323C33.4094 12.9771 44.582 2.87988 58.3633 2.87988Z" fill="#FFE17D"/>
<path d="M58.3002 25.4448C64.2894 25.4448 69.1481 27.5202 69.1481 32.7748C69.1481 38.0297 64.2897 44.4728 58.3002 44.4728C52.3089 44.4728 47.4524 38.0297 47.4524 32.7748C47.4528 27.5202 52.3089 25.4448 58.3002 25.4448Z" fill="#F8F8F8"/>
<path d="M58.406 27.0232C61.1551 27.0232 63.3842 28.5503 63.3842 30.4348C63.3842 32.3172 61.1551 33.8465 58.406 33.8465C55.6569 33.8465 53.4277 32.3172 53.4277 30.4348C53.4277 28.5503 55.6572 27.0232 58.406 27.0232Z" fill="#68606E"/>
<path d="M58.0569 33.6553H58.9158V36.1495H58.0569V33.6553Z" fill="#68606E"/>
<path d="M60.0118 37.5475C60.698 38.2435 61.6156 38.6705 62.6269 38.6705C63.6381 38.6705 64.5557 38.2435 65.2437 37.5475C65.7127 37.0712 66.0742 36.4658 66.2812 35.7883H67.1015C66.8679 36.8228 66.3686 37.7362 65.6927 38.424C64.8786 39.2493 63.8024 39.7522 62.6269 39.7522C61.4513 39.7522 60.3773 39.2493 59.5632 38.424C59.1249 37.9808 58.7612 37.4429 58.4973 36.8394C58.2313 37.4429 57.868 37.9808 57.4314 38.424C56.6173 39.2493 55.5434 39.7522 54.3678 39.7522C53.1922 39.7522 52.1161 39.2493 51.302 38.424C50.626 37.7366 50.1264 36.8228 49.8928 35.7883H50.7131C50.9201 36.4658 51.2816 37.0712 51.7506 37.5475C52.439 38.2435 53.3566 38.6705 54.3674 38.6705C55.3787 38.6705 56.2963 38.2435 56.9843 37.5475C58.1417 36.3756 57.9529 35.9895 58.0666 34.5485L58.0604 34.3967H58.0786H58.4135H58.5801H58.9149H58.9332L58.927 34.5485C59.0414 35.9895 58.8526 36.3752 60.0118 37.5475Z" fill="#68606E"/>
<path d="M69.2823 16.2429C71.4061 16.2429 73.1276 18.0924 73.1276 20.3749C73.1276 22.6573 71.4057 24.509 69.2823 24.509C67.1567 24.509 65.4348 22.6577 65.4348 20.3749C65.4348 18.0921 67.1567 16.2429 69.2823 16.2429Z" fill="#F8F8F8"/>
<path d="M69.2821 17.6223C70.7664 17.6223 71.9722 18.8558 71.9722 20.3749C71.9722 21.8958 70.7664 23.1274 69.2821 23.1274C67.7961 23.1274 66.5898 21.8958 66.5898 20.3749C66.5898 18.8558 67.7961 17.6223 69.2821 17.6223Z" fill="#68606E"/>
<path d="M68.4881 18.1167C69.0424 18.1167 69.4892 18.5743 69.4892 19.1409C69.4892 19.7054 69.0424 20.1652 68.4881 20.1652C67.936 20.1652 67.4871 19.7054 67.4871 19.1409C67.4874 18.5747 67.936 18.1167 68.4881 18.1167Z" fill="#F8F8F8"/>
<path d="M47.4466 16.2429C49.5704 16.2429 51.2919 18.0924 51.2919 20.3749C51.2919 22.6573 49.5704 24.509 47.4466 24.509C45.321 24.509 43.5991 22.6577 43.5991 20.3749C43.5991 18.0921 45.321 16.2429 47.4466 16.2429Z" fill="#F8F8F8"/>
<path d="M47.4465 17.6223C48.9325 17.6223 50.1366 18.8558 50.1366 20.3749C50.1366 21.8958 48.9325 23.1274 47.4465 23.1274C45.9604 23.1274 44.7563 21.8958 44.7563 20.3749C44.7563 18.8558 45.9604 17.6223 47.4465 17.6223Z" fill="#68606E"/>
<path d="M46.6547 18.1167C47.2068 18.1167 47.6558 18.5743 47.6558 19.1409C47.6558 19.7054 47.2072 20.1652 46.6547 20.1652C46.1004 20.1652 45.6519 19.7054 45.6519 19.1409C45.6519 18.5747 46.1004 18.1167 46.6547 18.1167Z" fill="white"/>
<path d="M3.99701 65.6726L29.0402 50.1075C32.4631 47.979 38.8181 44.8341 41.2969 47.9337C40.4441 54.5905 38.7977 61.1445 36.268 62.951L12.5585 78.781C8.99348 81.1621 4.14934 80.1604 1.79414 76.556C-1.22684 73.4991 0.356895 67.9347 3.99701 65.6726Z" fill="#FFE17D"/>
<path d="M112.732 65.6726L87.6866 50.1075C84.2637 47.979 77.9087 44.8341 75.4299 47.9337C76.2848 54.5905 77.9291 61.1445 80.4588 62.951L104.168 78.781C107.733 81.1621 112.577 80.1604 114.933 76.556C117.954 73.4991 116.372 67.9347 112.732 65.6726Z" fill="#FFE17D"/>
<path d="M55.3872 52.1929L51.6819 58.7594L54.6948 57.6427L56.033 59.8308L58.5912 52.3447L55.3872 52.1929ZM62.2495 52.1929L65.9548 58.7594L62.9401 57.6427L61.6041 59.8308L59.0459 52.3447L62.2495 52.1929Z" fill="white"/>
<path d="M55.3871 52.1929L53.4338 55.6535L57.9551 54.2063L58.5906 52.3447L55.3871 52.1929ZM59.6769 54.1964L63.9952 55.2862L62.2493 52.1929L59.0454 52.3447L59.6769 54.1964Z" fill="#F8F8F8"/>
<path d="M58.8179 50.2657L58.7713 50.2391L58.7691 50.1795L58.6372 50.1629C57.5184 49.5388 51.4969 46.2896 49.1577 47.2195C47.9741 47.6914 47.9741 54.4529 49.1577 54.923C51.4965 55.8548 57.5184 52.6034 58.6372 51.9814L58.7691 51.963L58.7713 51.9055L58.8179 51.879L58.8402 51.0722L58.8179 50.2657ZM58.8179 51.879L58.7957 51.0722L58.8179 50.2653L58.8628 50.2388L58.8649 50.1791L58.9991 50.1625C60.1178 49.5384 66.1394 46.2892 68.4763 47.2191C69.6599 47.6911 69.6599 54.4525 68.4763 54.9226C66.1394 55.8544 60.1178 52.603 58.9991 51.9811L58.8649 51.9627L58.8628 51.9052L58.8179 51.879Z" fill="white"/>
<path d="M57.261 48.8799H60.1785C60.5684 48.8799 60.8829 49.1982 60.8829 49.5921V52.517C60.8829 52.9112 60.5681 53.2292 60.1785 53.2292H57.261C56.8733 53.2292 56.5566 52.9109 56.5566 52.517V49.5921C56.5566 49.1978 56.8733 48.8799 57.261 48.8799Z" fill="#FA7876"/>
<path d="M57.261 48.8777H60.1785C60.5663 48.8777 60.8829 49.2001 60.8829 49.5921V51.0721H56.5566V49.5921C56.5566 49.2001 56.8733 48.8777 57.261 48.8777Z" fill="#FF8C8A"/>
<path d="M78.7676 82.2457C71.3591 88.4777 69.5097 98.5808 74.6381 104.812C79.7665 111.044 89.93 111.046 97.3385 104.815C104.747 98.5849 106.595 88.4795 101.466 82.2479C96.3396 76.0159 86.1761 76.0136 78.7676 82.2457Z" fill="#FFE17D"/>
<path d="M90.5166 81.6319C89.806 83.1509 90.2444 84.8649 91.4933 85.4621C92.7439 86.0593 94.3317 85.3122 95.0423 83.7935C95.7507 82.2766 95.3145 80.5605 94.0638 79.9651C92.815 79.3679 91.2272 80.1128 90.5166 81.6319Z" fill="#FAD55C"/>
<path d="M96.5488 84.8872C95.3305 86.008 95.0889 87.7466 96.0127 88.773C96.9343 89.7973 98.6682 89.7192 99.8864 88.5984C101.105 87.4776 101.346 85.739 100.422 84.7148C99.5009 83.6905 97.767 83.7664 96.5488 84.8872Z" fill="#FAD55C"/>
<path d="M98.2361 91.9383C97.0178 93.0591 96.7784 94.7977 97.7 95.822C98.6216 96.8484 100.356 96.7703 101.576 95.6495C102.794 94.5288 103.034 92.7902 102.112 91.7659C101.188 90.7395 99.4539 90.8176 98.2361 91.9383Z" fill="#FAD55C"/>
<path d="M37.9592 82.2457C45.3677 88.4777 47.2171 98.5808 42.0887 104.812C36.9604 111.044 26.7987 111.046 19.3902 104.815C11.9817 98.5849 10.1323 88.4795 15.2607 82.2479C20.3894 76.0159 30.5511 76.0136 37.9592 82.2457Z" fill="#FFE17D"/>
<path d="M37.0558 89.3806C41.4677 93.0918 42.5679 99.106 39.5145 102.817C36.4611 106.528 30.4107 106.528 26.001 102.819C21.589 99.1083 20.4889 93.094 23.5423 89.3828C26.5957 85.6716 32.646 85.6716 37.0558 89.3806Z" fill="#FAD55C"/>
<path d="M26.21 81.6319C26.9206 83.1509 26.4822 84.8649 25.2334 85.4621C23.9849 86.0593 22.395 85.3122 21.6866 83.7935C20.976 82.2766 21.4144 80.5605 22.6632 79.9651C23.9117 79.3679 25.5016 80.1128 26.21 81.6319Z" fill="#FAD55C"/>
<path d="M20.1802 84.8872C21.3984 86.008 21.6378 87.7466 20.7162 88.773C19.7946 89.7973 18.0586 89.7192 16.8403 88.5984C15.6221 87.4776 15.3827 85.739 16.3043 84.7148C17.2259 83.6905 18.9619 83.7664 20.1802 84.8872Z" fill="#FAD55C"/>
<path d="M18.4929 91.9383C19.7111 93.0591 19.9505 94.7977 19.0289 95.822C18.1051 96.8484 16.3713 96.7703 15.153 95.6495C13.9348 94.5288 13.6932 92.7902 14.617 91.7659C15.5389 90.7395 17.275 90.8176 18.4929 91.9383Z" fill="#FAD55C"/>
<path d="M78.7674 82.2457C71.3589 88.4777 69.5095 98.5808 74.6379 104.812C79.7662 111.044 89.9297 111.046 97.3382 104.815C97.6589 104.544 97.9716 104.266 98.2722 103.981C90.8961 109.916 80.9783 109.815 75.9333 103.684C71.0283 97.7205 72.5064 88.219 79.1289 81.9502C79.0072 82.0467 78.8873 82.1451 78.7674 82.2457Z" fill="#FAD55C"/>
<path d="M79.6709 89.3806C75.2589 93.0918 74.1588 99.106 77.2122 102.817C80.2656 106.528 86.3159 106.528 90.7275 102.819C95.1373 99.1083 96.2378 93.094 93.1862 89.3828C90.1328 85.6716 84.0828 85.6716 79.6709 89.3806Z" fill="#FAD55C"/>
<path d="M37.9591 82.2457C45.3694 88.4777 47.217 98.5808 42.0886 104.812C36.9602 111.044 26.7986 111.046 19.39 104.815C19.0672 104.544 18.7567 104.266 18.4561 103.981C25.8299 109.916 35.75 109.815 40.7949 103.684C45.6999 97.7205 44.22 88.219 37.5994 81.9502C37.7197 82.0467 37.8414 82.1451 37.9591 82.2457Z" fill="#FAD55C"/>
<path d="M58.3633 74.3165C58.3633 71.5558 56.1484 69.3162 53.4156 69.3162C50.6829 69.3162 48.468 71.5555 48.468 74.3165C48.468 80.9814 55.972 83.962 58.3636 88.1636C60.7553 83.9617 68.2593 80.9814 68.2593 74.3165C68.2593 71.5558 66.0444 69.3162 63.3116 69.3162C60.5789 69.3162 58.3633 71.5555 58.3633 74.3165Z" fill="#FF8C8A"/>
<path d="M57.7261 87.2152C57.9655 87.525 58.1787 87.8411 58.3634 88.1635C60.7551 83.9615 68.2591 80.9813 68.2591 74.3164C68.2591 71.5557 66.0442 69.3142 63.3114 69.3142C63.0961 69.3142 62.8829 69.3286 62.6741 69.3551C65.1062 69.6712 66.9862 71.7731 66.9862 74.3164C66.9862 80.4681 60.5907 83.4833 57.7261 87.2152Z" fill="#FA7876"/>
<path d="M58.3695 74.0784C58.059 70.554 55.2651 69.3142 53.4157 69.3142C53.2003 69.3142 52.9871 69.3286 52.7783 69.3551C55.2104 69.6712 57.7322 73.9878 57.7322 76.5332C57.7322 75.6402 57.9636 74.8027 58.3695 74.0784Z" fill="#FA7876"/>
</svg>
