<svg width="116" height="117" viewBox="0 0 116 117" fill="none" xmlns="http://www.w3.org/2000/svg">
<path d="M19.8758 21.6107V112.812L39.7272 95.1818V3.98088H37.1442L35.7694 5.04166H22.7199L22.7157 3.96313L20.5691 3.98088L0.716797 21.6098H19.8749L19.8758 21.6107Z" fill="#5DDDD3"/>
<path d="M3.45215 21.6106H17.6221L35.7695 5.0415H21.5996L3.45215 21.6106Z" fill="white"/>
<path d="M24.8918 17.1564L22.5409 17.1199L17.623 21.6105H3.45307L8.60209 16.9082L6.05519 16.8701L0.717529 21.6105V112.811H19.8756L24.8909 108.358V17.1564H24.8918Z" fill="#FF757C"/>
<path d="M50.6995 21.6106V112.811L70.5502 95.1816V3.98073V3.97976H67.9672L66.5934 5.04215H53.5448L53.5407 3.96362L51.3931 3.97976L31.5408 21.6096H50.6988H50.6998V21.6106H50.6995Z" fill="#ECF0F1"/>
<path d="M34.2761 21.6106H48.4457L66.5932 5.0415H52.4236L34.2761 21.6106Z" fill="white"/>
<path d="M55.7147 17.1564L53.3638 17.1199L48.4459 21.6105H34.2763L39.4253 16.9082L36.8784 16.8701L31.5408 21.6105V112.811H50.6988L55.7141 108.358V17.1564H55.7147Z" fill="#FF757C"/>
<path d="M92.5967 0.740723L77.8985 22.939L101.102 111.071L115.801 88.8722L92.5967 0.740723L90.1009 1.41295L89.0428 2.79516L76.4328 6.18888L76.1547 5.14843L74.0841 5.72319L59.3853 27.9215L77.8979 22.939L92.5967 0.740723Z" fill="#5DDDD3"/>
<path d="M62.0276 27.2105L75.7209 23.5257L89.0418 2.79517L75.3494 6.47998L62.0279 27.2115V27.2105H62.0276Z" fill="white"/>
<path d="M81.6121 17.3301L79.3305 17.9074L75.721 23.5257L62.0286 27.2105L65.8089 21.3283L63.3382 21.953L59.3862 27.9224L82.5902 116.054L101.104 111.071L104.817 105.464L81.6131 17.331L81.6121 17.3301Z" fill="#FF757C"/>
<path d="M96.8959 25.2378L95.7305 20.7539L87.5168 34.3317L88.6816 38.8156L96.8959 25.2371V25.2378Z" fill="white"/>
<path d="M92.4593 22.6916L91.8407 19.7781L86.2971 28.943L86.9167 31.8559L92.4603 22.6919H92.4593V22.6916Z" fill="white"/>
</svg>
