<svg width="116" height="116" viewBox="0 0 116 116" fill="none" xmlns="http://www.w3.org/2000/svg">
<path d="M96.1242 21.3495V112.55L76.2728 94.9205V3.71965H78.8558L80.2306 4.78043H93.2801L93.2843 3.7019L95.4309 3.71965L115.283 21.3485H96.1251L96.1242 21.3495Z" fill="#DF55B7"/>
<path d="M112.548 21.3493H98.3779L80.2304 4.78027H94.4004L112.548 21.3493Z" fill="#F7DBDB"/>
<path d="M91.1084 16.8951L93.4593 16.8587L98.3773 21.3493H112.547L107.398 16.647L109.945 16.6089L115.283 21.3493V112.55H96.1247L91.1094 108.097V16.8951H91.1084Z" fill="#8D0C68"/>
<path d="M65.3008 21.3493V112.55L45.4501 94.9204V3.7195V3.71853H48.033L49.4069 4.78092H62.4554L62.4596 3.70239L64.6072 3.71853L84.4595 21.3484H65.3014H65.3005V21.3493H65.3008Z" fill="#8CB6C0"/>
<path d="M81.7241 21.3493H67.5545L49.407 4.78027H63.5766L81.7241 21.3493Z" fill="#F7DBDB"/>
<path d="M60.2855 16.8951L62.6364 16.8587L67.5543 21.3493H81.7239L76.5749 16.647L79.1218 16.6089L84.4595 21.3493V112.55H65.3014L60.2862 108.097V16.8951H60.2855Z" fill="#8D0C68"/>
<path d="M23.4033 0.479492L38.1015 22.6778L14.8976 110.809L0.199368 88.611L23.4033 0.479492L25.8991 1.15172L26.9572 2.53393L39.5672 5.92765L39.8453 4.8872L41.9159 5.46196L56.6147 27.6602L38.1021 22.6778L23.4033 0.479492Z" fill="#DF55B7"/>
<path d="M53.9727 26.9493L40.2793 23.2645L26.9585 2.53394L40.6509 6.21875L53.9723 26.9503V26.9493H53.9727Z" fill="#F7DBDB"/>
<path d="M34.3879 17.0688L36.6695 17.6462L40.279 23.2644L53.9714 26.9492L50.1911 21.067L52.6618 21.6918L56.6138 27.6612L33.4098 115.793L14.8963 110.81L11.183 105.203L34.3869 17.0698L34.3879 17.0688Z" fill="#8D0C68"/>
<path d="M19.1038 24.9765L20.2692 20.4927L28.4829 34.0705L27.3182 38.5543L19.1038 24.9759V24.9765Z" fill="#F7DBDB"/>
<path d="M23.5405 22.4304L24.1591 19.5168L29.7026 28.6818L29.0831 31.5946L23.5395 22.4307H23.5405V22.4304Z" fill="#F7DBDB"/>
</svg>
