<svg width="102" height="103" viewBox="0 0 102 103" fill="none" xmlns="http://www.w3.org/2000/svg">
<g clip-path="url(#clip0)">
<path d="M93.5779 25.3819L52.1716 1.21205C51.4505 0.790969 50.5613 0.790969 49.8399 1.21205L8.4332 25.3815C7.71208 25.8026 7.26758 26.5808 7.26758 27.4228V75.7626C7.26758 76.6045 7.71189 77.3829 8.4332 77.8038C52.9027 103.761 50.0931 102.29 51.0056 102.29C51.4084 102.29 51.8105 102.184 52.1716 101.974L93.5779 77.804C94.2997 77.3831 94.744 76.6047 94.744 75.7628V27.423C94.744 26.581 94.2995 25.8026 93.5779 25.3819Z" fill="#34A4B7"/>
<path d="M93.578 25.3821L82.8794 19.137C70.8105 21.8439 61.1856 41.5348 60.7936 65.586C60.6181 76.3512 62.3213 86.3029 65.3286 94.2938L93.578 77.804C94.2998 77.3831 94.7441 76.6047 94.7441 75.7627V27.4231C94.7441 26.5812 94.2996 25.8028 93.578 25.3821Z" fill="#49B5CE"/>
<path d="M93.5783 25.3819L52.1719 1.21205C51.4508 0.790969 50.5616 0.790969 49.8403 1.21205L8.43353 25.3816C8.07287 25.5919 7.78156 25.8918 7.58057 26.2439C7.78156 26.5963 8.07287 26.8959 8.43353 27.1063L49.8403 51.276C50.2009 51.4863 50.6039 51.5917 51.0059 51.5917C51.4087 51.5917 51.8109 51.4865 52.1719 51.276L93.5783 27.1063C93.9385 26.8957 94.2298 26.5961 94.4316 26.2439C94.2298 25.8918 93.9385 25.5921 93.5783 25.3819Z" fill="#C44137"/>
<path d="M93.5781 25.3819L52.1718 1.21205C51.4507 0.790969 50.5615 0.790969 49.8402 1.21205L26.1985 15.0119C25.0437 17.0752 24.4209 19.2592 24.4209 21.5201C24.4209 33.5055 41.8385 43.3406 64.0324 44.3527L93.5781 27.1063C93.9384 26.8957 94.2297 26.5961 94.4315 26.2439C94.2297 25.8918 93.9384 25.5921 93.5781 25.3819Z" fill="#E04E4B"/>
<path d="M8.4332 27.1068C8.07255 26.8962 7.78124 26.5965 7.58024 26.2444C7.37846 26.5969 7.26758 27.0022 7.26758 27.4233V75.7631C7.26758 76.605 7.71189 77.3834 8.4332 77.8043C52.9027 103.762 50.093 102.29 51.0056 102.29V51.592C50.6036 51.592 50.2006 51.4868 49.8399 51.2763L8.4332 27.1068Z" fill="#F7AC16"/>
<path d="M51.0058 70.738V67.2123L37.9365 59.5837V44.328L34.9162 42.5651V57.8207L23.3567 51.0733V35.8177L20.3365 34.0547V49.3103L7.26758 41.6817V45.2076L20.3365 52.8361V66.263L7.26758 58.6346V62.1603L20.3365 69.7887V84.752L23.3567 86.515V71.5517L34.9162 78.2991V93.2624L37.9365 95.0254V80.0621L51.0058 87.6907V84.165L37.9365 76.5364V63.1094L51.0058 70.738ZM34.9164 74.7736L23.3569 68.0262V54.5992L34.9164 61.3467V74.7736Z" fill="#FF8828"/>
<path d="M78.6525 35.8187L81.6727 34.0557L68.4996 26.3663L81.8821 18.5547L78.8619 16.7917L65.4791 24.6033L53.816 17.7955L67.1988 9.98367L64.1787 8.2207L50.796 16.0325L37.6228 8.3435L34.6028 10.1063L47.7759 17.7955L36.1128 24.6035L22.9397 16.9141L19.9194 18.6771L33.0926 26.3665L20.1291 33.9335L23.1493 35.6965L36.1128 28.1295L47.7759 34.9373L34.8124 42.5043L37.8326 44.2673L50.7962 36.7003L63.9695 44.3897L66.9897 42.6267L53.8164 34.9373L65.4795 28.1295L78.6525 35.8187ZM50.796 33.1743L39.1329 26.3665L50.796 19.5585L62.4591 26.3665L50.796 33.1743Z" fill="#BA2B20"/>
<path d="M94.744 45.1409V41.6152L81.6743 49.244V34.0547L78.654 35.8177V51.0067L67.0953 57.7536V42.5651L64.0751 44.328V59.5169L51.0054 67.1457V70.6715L64.0751 63.0427V76.4698L51.0054 84.0986V87.6243L64.0751 79.9955V95.0256L67.0953 93.2626V78.2327L78.654 71.4857V86.5156L81.6743 84.7526V69.7229L94.744 62.0941V58.5684L81.6743 66.1972V52.7703L94.744 45.1409ZM78.654 67.9598L67.0953 74.7068V61.2797L78.654 54.5329V67.9598Z" fill="#2571A0"/>
</g>
<defs>
<clipPath id="clip0">
<rect x="0.854492" y="0.896484" width="100.303" height="101.409" fill="white"/>
</clipPath>
</defs>
</svg>
