<svg width="115" height="112" viewBox="0 0 115 112" fill="none" xmlns="http://www.w3.org/2000/svg">
<path d="M67.1135 61.4006L114.491 63.8648V109.301H69.3986L67.1135 61.4006Z" fill="#D15241"/>
<path d="M69.3986 63.8648H114.491L96.3626 48.6169H54.4692L69.3986 63.8648Z" fill="#E56353"/>
<path d="M54.4692 48.6169L69.3986 63.8648V109.301L54.4692 96.5169V48.6169Z" fill="#CE412D"/>
<path d="M12.7285 63.8647L60.2583 66.3293V111.765H15.318L12.7285 63.8647Z" fill="#3A556A"/>
<path d="M15.3179 66.3294H60.2582L42.1297 51.0815H0.236328L15.3179 66.3294Z" fill="#64798A"/>
<path d="M0.236328 51.0815L15.3179 66.3294V111.765L0.236328 98.9811V51.0815Z" fill="#2F4859"/>
<path d="M27.353 12.5767L75.1872 15.349V60.9387H30.0951L27.353 12.5767Z" fill="#CE3A1C"/>
<path d="M30.0952 15.3489H75.1873L56.9066 0.255371H15.0137L30.0952 15.3489Z" fill="#EE7937"/>
<path d="M15.0137 0.255371L30.0952 15.3489V60.9386L15.0137 48.0011V0.255371Z" fill="#FF5D00"/>
</svg>
